<svg fill="none" height="64" viewBox="0 0 64 64" width="64" xmlns="http://www.w3.org/2000/svg">
  <path
    d="M57.9998 20.464C58.0177 19.5923 57.7979 18.7322 57.3638 17.976C56.9072 17.234 56.261 16.6271 55.4918 16.218C48.5665 12.394 41.6378 8.57199 34.7058 4.75199C33.8702 4.24875 32.9115 3.98684 31.9361 3.99532C30.9606 4.00379 30.0066 4.28231 29.1798 4.79999C26.4238 6.35799 12.6298 13.93 8.51783 16.212C7.73581 16.6056 7.08299 17.2152 6.63673 17.9684C6.19046 18.7216 5.96943 19.587 5.99983 20.462V43.54C5.97963 44.3922 6.18672 45.2344 6.59983 45.98C7.05883 46.7435 7.71888 47.3662 8.50783 47.78C12.6198 50.062 26.4158 57.634 29.1718 59.192C29.9982 59.7103 30.9521 59.9895 31.9275 59.9987C32.9029 60.0079 33.8618 59.7466 34.6978 59.244C41.6178 55.416 48.5418 51.594 55.4698 47.778C56.2589 47.3637 56.9195 46.7412 57.3798 45.978C57.7929 45.2324 58 44.3902 57.9798 43.538V20.464"
    fill="#659AD2"/>
  <path
    d="M57.098 46.342C57.203 46.2265 57.3012 46.105 57.392 45.978C57.8051 45.2324 58.0122 44.3902 57.992 43.538V20.464C58.0099 19.5923 57.79 18.7322 57.356 17.976C57.284 17.858 57.178 17.766 57.096 17.656L32 32L57.098 46.342Z"
    fill="#00599C"/>
  <path
    d="M57.0979 46.342L31.9999 32L6.90186 46.342C7.32443 46.939 7.87785 47.4315 8.51986 47.782C12.6319 50.064 26.4279 57.636 29.1839 59.194C30.0103 59.7123 30.9641 59.9915 31.9395 60.0007C32.9149 60.0099 33.8738 59.7486 34.7099 59.246C41.6299 55.418 48.5539 51.596 55.4819 47.78C56.1229 47.4299 56.6756 46.938 57.0979 46.342Z"
    fill="#004482"/>
  <path
    d="M39.1999 36.04C38.309 37.6243 36.9193 38.8698 35.2471 39.5824C33.575 40.295 31.7141 40.4349 29.9542 39.9802C28.1943 39.5256 26.6341 38.5019 25.5163 37.0684C24.3986 35.635 23.786 33.8723 23.774 32.0547C23.762 30.237 24.3512 28.4664 25.4499 27.0183C26.5486 25.5703 28.0952 24.5261 29.849 24.0482C31.6027 23.5703 33.4652 23.6856 35.1467 24.376C36.8281 25.0665 38.2342 26.2935 39.1459 27.866L46.3759 23.72C44.5408 20.5705 41.721 18.1119 38.351 16.7227C34.981 15.3335 31.2478 15.0909 27.7263 16.0322C24.2049 16.9735 21.0906 19.0465 18.8632 21.9318C16.6358 24.8172 15.4189 28.3549 15.3999 32C15.3948 34.8905 16.1538 37.7311 17.5999 40.234C19.0629 42.7625 21.1659 44.8613 23.6973 46.3193C26.2288 47.7772 29.0995 48.543 32.0207 48.5396C34.942 48.5361 37.8109 47.7636 40.3389 46.2996C42.8669 44.8357 44.9649 42.7319 46.4219 40.2L39.1999 36.04Z"
    fill="white"/>
  <path
    d="M48.1521 31.0759H46.3001V29.2339H44.4501V31.0759H42.5981V32.9219H44.4501V34.7619H46.3001V32.9219H48.1521V31.0759ZM55.0981 31.0759H53.2461V29.2339H51.3941V31.0759H49.5421V32.9219H51.3941V34.7619H53.2461V32.9219H55.0981V31.0759Z"
    fill="white"/>
</svg>
