<svg fill="none" height="64" viewBox="0 0 64 64" width="64" xmlns="http://www.w3.org/2000/svg">
  <path d="M11.804 54.402L7.31201 4H56.688L52.19 54.394L31.97 60L11.804 54.402Z" fill="#1572B6"/>
  <path d="M32 55.7161L48.34 51.1861L52.184 8.12207H32V55.7161Z" fill="#33A9DC"/>
  <path d="M32 26.3821H40.18L40.744 20.0521H32V13.8701H47.5L47.352 15.5281L45.834 32.5641H32V26.3821Z" fill="white"/>
  <path
    d="M32.038 42.4361L32.01 42.4441L25.126 40.5841L24.686 35.6541H18.48L19.346 45.3601L32.008 48.8761L32.038 48.8681V42.4361Z"
    fill="#EBEBEB"/>
  <path d="M39.6541 32.302L38.9101 40.58L32.0161 42.44V48.872L44.6881 45.36L44.7821 44.316L45.8561 32.302H39.6541Z"
        fill="white"/>
  <path
    d="M32.0221 13.8701V20.0521H17.0901L16.9661 18.6621L16.6841 15.5281L16.5361 13.8701H32.0221ZM32.0001 26.3821V32.5641H25.2021L25.0781 31.1741L24.7981 28.0401L24.6501 26.3821H32.0001Z"
    fill="#EBEBEB"/>
</svg>
