<svg fill="none" height="69" viewBox="0 0 64 69" width="64" xmlns="http://www.w3.org/2000/svg">
  <g clip-path="url(#clip0_2313_804)">
    <path d="M32 69L4.69537 54.0355L0 11.3893L32 0V69ZM32 0L64 11.3893L59.2536 54.0355L32 69V0Z" fill="#E23137"/>
    <path d="M32 69L4.69537 54.0355L0 11.3893L32 0V69Z" fill="#E23137"/>
    <path d="M32 0L64 11.3893L59.2536 54.0355L32 69V0Z" fill="#B52E31"/>
    <path
      d="M12.0957 13.9431H29.6523V17.8247H12.0957V13.9431ZM51.8533 23.647H12.1467V31.0016H51.8533V23.647ZM49.9139 29.0097H14.0861V25.5878H49.9139V29.0097ZM51.8533 35.0364H12.1467V42.442H51.8533V35.0364ZM49.9139 40.4501H14.0861V37.0282H49.9139V40.4501ZM51.8533 46.4768H12.1467V53.8313H51.8533V46.4768ZM49.9139 51.8906H14.0861V48.4686H49.9139V51.8906Z"
      fill="white"/>
  </g>
  <defs>
    <clipPath id="clip0_2313_804">
      <rect fill="white" height="69" width="64"/>
    </clipPath>
  </defs>
</svg>
