<svg fill="none" height="64" viewBox="0 0 64 64" width="64" xmlns="http://www.w3.org/2000/svg">
  <path
    d="M25.4002 47.1199C25.4002 47.1199 23.2602 48.3639 26.9222 48.7859C30.7865 49.3306 34.7179 49.1638 38.5222 48.2939C39.5032 48.883 40.533 49.3869 41.6002 49.7999C30.6382 54.4979 16.7902 49.5279 25.4002 47.1219M24.0522 40.9879C24.0522 40.9879 21.6522 42.7639 25.3182 43.1439C30.3108 43.7384 35.3675 43.4957 40.2802 42.4259C40.9437 43.0461 41.7281 43.5227 42.5842 43.8259C29.3302 47.7019 14.5662 44.1319 24.0522 40.9839"
    fill="#5382A1"/>
  <path
    d="M35.3459 30.588C35.7013 31.0166 35.9657 31.513 36.123 32.0471C36.2803 32.5813 36.3272 33.1418 36.2608 33.6946C36.1943 34.2474 36.016 34.7809 35.7366 35.2625C35.4573 35.7442 35.0827 36.1639 34.6359 36.496C34.6359 36.496 41.4939 32.956 38.3439 28.522C35.4019 24.388 33.1439 22.332 45.3599 15.25C45.3599 15.25 26.1879 20.038 35.3459 30.588Z"
    fill="#E76F00"/>
  <path
    d="M49.8439 51.654C49.8439 51.654 51.4279 52.958 48.0999 53.968C41.7719 55.884 21.7639 56.464 16.2039 54.044C14.2039 53.174 17.9519 51.968 19.1319 51.716C19.764 51.5615 20.4133 51.489 21.0639 51.5C18.8419 49.934 6.70192 54.574 14.8979 55.9C37.2499 59.524 55.6419 54.27 49.8439 51.654ZM26.4219 34.636C26.4219 34.636 16.2439 37.054 22.8219 37.932C27.3047 38.2823 31.8097 38.2341 36.2839 37.788C39.1117 37.5312 41.9279 37.1609 44.7259 36.678C43.8371 37.0649 42.981 37.5231 42.1659 38.048C31.8259 40.764 11.8599 39.5 17.5999 36.718C20.3297 35.3304 23.3518 34.6158 26.4139 34.634M44.6799 44.842C55.1859 39.382 50.3279 34.136 46.9379 34.842C46.5302 34.918 46.129 35.0257 45.7379 35.164C45.9608 34.8482 46.2738 34.607 46.6359 34.472C53.3439 32.114 58.5019 41.428 44.4699 45.116C44.5562 45.0371 44.6279 44.9436 44.6819 44.84"
    fill="#5382A1"/>
  <path
    d="M38.3438 3.81211C38.3438 3.81211 44.1618 9.6321 32.8258 18.5841C23.7338 25.7641 30.7518 29.8581 32.8258 34.5341C27.5198 29.7461 23.6258 25.5341 26.2378 21.6081C30.0718 15.8501 40.6958 13.0581 38.3498 3.80811"
    fill="#E76F00"/>
  <path
    d="M27.4541 59.6361C37.5381 60.2821 53.0261 59.2781 53.3921 54.5061C53.3921 54.5061 52.6861 56.3061 45.0581 57.7521C36.6229 59.2004 28.0145 59.3353 19.5381 58.1521C19.5381 58.1521 20.8281 59.2181 27.4561 59.6441"
    fill="#5382A1"/>
</svg>
