<svg fill="none" height="64" viewBox="0 0 64 64" width="64" xmlns="http://www.w3.org/2000/svg">
  <path
    d="M63.926 18.24C63.91 18.18 63.88 18.128 63.858 18.07C63.8203 17.9622 63.7735 17.8578 63.718 17.758C63.6191 17.6144 63.5108 17.4774 63.394 17.348C63.3381 17.2967 63.2793 17.2486 63.218 17.204C63.1651 17.1557 63.1097 17.1103 63.052 17.068L62.964 17.028L62.894 16.98L50.894 10.98C50.6164 10.8413 50.3103 10.769 50 10.769C49.6897 10.769 49.3836 10.8413 49.106 10.98L37.106 16.98L37.036 17.028L36.948 17.068C36.8903 17.1103 36.8349 17.1557 36.782 17.204C36.634 17.3061 36.507 17.4358 36.408 17.586C36.3623 17.641 36.3196 17.6984 36.28 17.758C36.2252 17.8579 36.179 17.9622 36.142 18.07C36.122 18.128 36.09 18.18 36.074 18.24C36.0257 18.4125 36.0008 18.5908 36 18.77V29.534L28 33.534V10.77C27.9992 10.5908 27.9743 10.4125 27.926 10.24C27.91 10.18 27.88 10.128 27.858 10.07C27.8203 9.96217 27.7735 9.85779 27.718 9.75798C27.6791 9.69844 27.637 9.64103 27.592 9.58598C27.493 9.4358 27.366 9.3061 27.218 9.20398C27.1651 9.1557 27.1097 9.1103 27.052 9.06798L26.964 9.02798L26.894 8.97997L14.894 2.97997C14.6164 2.84126 14.3103 2.76904 14 2.76904C13.6897 2.76904 13.3836 2.84126 13.106 2.97997L1.106 8.97997L1.036 9.02798L0.948 9.06798C0.890273 9.1103 0.83486 9.1557 0.782 9.20398C0.72065 9.2486 0.661888 9.29668 0.606 9.34797C0.533259 9.422 0.466391 9.50157 0.406 9.58598C0.360972 9.64103 0.318912 9.69844 0.28 9.75798C0.225198 9.85786 0.17903 9.96223 0.142 10.07C0.122 10.128 0.09 10.18 0.074 10.24C0.0257026 10.4125 0.000813178 10.5908 0 10.77L0 48.77C0.000198297 49.1413 0.103766 49.5052 0.299105 49.821C0.494443 50.1368 0.773838 50.392 1.106 50.558L13.106 56.558L25.106 62.558C25.134 62.572 25.166 62.568 25.198 62.58C25.4472 62.704 25.7217 62.7685 26 62.7685C26.2783 62.7685 26.5528 62.704 26.802 62.58C26.832 62.568 26.866 62.572 26.894 62.56L50.894 50.56C51.2265 50.3938 51.5061 50.1384 51.7014 49.8222C51.8968 49.506 52.0002 49.1416 52 48.77V38.006L62.894 32.558C63.2262 32.392 63.5056 32.1368 63.7009 31.821C63.8962 31.5052 63.9998 31.1413 64 30.77V18.77C63.9992 18.5908 63.9743 18.4125 63.926 18.24ZM18.472 42.77L26.894 38.558H26.896L38 33.006L45.528 36.77L26 46.534L18.472 42.77ZM48 26.006V33.534L40 29.534V22.006L48 26.006ZM50 15.006L57.528 18.77L50 22.534L42.472 18.77L50 15.006ZM16 39.534V18.006L24 14.006V35.534L16 39.534ZM14 7.00597L21.528 10.77L14 14.534L6.472 10.77L14 7.00597ZM4 14.006L12 18.006V51.534L4 47.534V14.006ZM16 46.006L24 50.006V57.534L16 53.534V46.006ZM48 47.534L28 57.534V50.006L48 40.006V47.534ZM60 29.534L52 33.534V26.006L60 22.006V29.534Z"
    fill="#FF5252"/>
</svg>
