<svg fill="none" height="64" viewBox="0 0 64 64" width="64" xmlns="http://www.w3.org/2000/svg">
  <g clip-path="url(#clip0_2382_758)">
    <mask height="64" id="mask0_2382_758" maskUnits="userSpaceOnUse" style="mask-type:luminance" width="64" x="0" y="0">
      <path d="M64 0H0V64H64V0Z" fill="white"/>
    </mask>
    <g mask="url(#mask0_2382_758)">
      <path
        d="M62.255 10.67L60.0702 44.9536L39.1796 0L62.255 10.67ZM47.7852 55L32.0001 64L16.2141 55L17.1061 49.7549H46.8945L47.7852 55ZM3.90664 44.9539L1.74463 10.6705L24.8196 0L3.90664 44.9539Z"
        fill="url(#paint0_radial_2382_758)"/>
      <path clip-rule="evenodd"
            d="M46.82 27.7452L46.8179 27.7609C45.8947 33.1441 42.3219 36.5476 36.1 37.9708C37.6389 39.0489 39.4355 39.3409 41.516 38.8524C37.6315 40.2924 34.2045 40.3457 31.2259 39.0249C31.7499 40.8798 32.9784 42.2177 34.9309 43.0593C30.0915 42.0198 26.9179 38.6689 25.4175 33.0084C24.651 34.0193 24.709 35.7052 25.5875 38.0942C22.9675 34.9217 22.4785 31.5868 24.1325 28.0977C25.8651 24.2624 29.0139 22.726 33.5784 23.4883C39.7749 30.2873 43.7699 32.2729 45.5451 29.4369C46.3219 27.0113 45.5235 24.0268 43.1451 20.4953C41.4365 18.0828 39.4251 16.3903 37.1269 15.4458C36.6565 14.1108 35.8195 13.1753 34.6445 12.6858C33.8264 12.3043 33.0696 12.2298 32.4069 12.4993C32.2995 12.5435 32.1923 12.5887 32.0856 12.6348C31.0304 13.0863 29.2784 13.8368 27.3275 13.0958C25.8842 12.5474 24.8708 12.8989 24.2875 14.1503C23.7131 15.4329 23.3285 16.1296 23.1335 16.2403C22.8365 16.4713 22.205 16.7128 21.2445 16.9603C20.2842 17.2083 19.6816 17.5906 19.437 18.1073C18.986 19.2023 18.8227 20.0861 18.947 20.7588C18.7305 21.5928 18.382 22.1563 17.9035 22.4358C17.7984 22.4966 17.6926 22.5561 17.586 22.6143C17.084 22.8913 16.8325 23.0298 16.707 23.6213L16.697 23.6693C16.554 24.3348 16.507 24.5553 17.192 26.7753C16.745 30.0684 17.288 33.2404 18.821 36.2782C18.819 36.2742 20.9645 41.6329 26.8664 44.4257C33.1181 47.0107 38.6843 46.0945 43.5651 41.6769C40.6736 42.2598 38.5451 42.2998 37.1899 41.8057C42.3435 41.4297 45.716 38.9172 47.3251 34.2708C45.1819 35.9257 43.5229 36.8902 42.3579 37.1497C44.3531 35.8788 45.7179 34.4124 46.4629 32.7628C47.2069 31.1129 47.3253 29.4398 46.82 27.7452ZM38.9544 20.9103C38.4835 21.5183 37.8579 22.9328 39.1211 23.7288C40.384 24.5248 39.8211 23.5288 39.3819 22.9308C38.9429 22.3333 38.9544 20.9103 38.9544 20.9103Z"
            fill="url(#paint1_radial_2382_758)"
            fill-rule="evenodd"/>
    </g>
  </g>
  <defs>
    <radialGradient cx="0" cy="0" gradientTransform="translate(32.0606 29.2584) rotate(90) scale(34.7077 32.8155)"
                    gradientUnits="userSpaceOnUse" id="paint0_radial_2382_758"
                    r="1">
      <stop stop-color="#AA1BB6"/>
      <stop offset="1" stop-color="#452070"/>
    </radialGradient>
    <radialGradient cx="0" cy="0" gradientTransform="translate(31.9653 31.0764) rotate(26.565) scale(24.022 21.4367)"
                    gradientUnits="userSpaceOnUse" id="paint1_radial_2382_758"
                    r="1">
      <stop offset="0.271" stop-color="#B1219B"/>
      <stop offset="1" stop-color="#5306A1"/>
    </radialGradient>
    <clipPath id="clip0_2382_758">
      <rect fill="white" height="64" width="64"/>
    </clipPath>
  </defs>
</svg>
