<svg fill="none" height="64" viewBox="0 0 64 64" width="64" xmlns="http://www.w3.org/2000/svg">
  <g clip-path="url(#clip0_2320_761)">
    <path
      d="M29.1672 19.0776C28.8116 19.2198 28.9776 18.9828 26.1094 23.3917L23.7153 27.0657L24.5568 27.1013C25.1376 27.125 25.4457 27.0894 25.5524 26.9828C25.6235 26.8998 26.5716 25.4539 27.6501 23.7709L29.6176 20.7013L30.1509 21.5428C30.4472 22.005 30.9568 22.8109 31.2887 23.3324L31.8813 24.2806H29.8072C28.6694 24.2806 27.7331 24.3043 27.7331 24.3398C27.7331 24.3754 27.9227 24.6954 28.1598 25.0509L28.5983 25.7028H30.7435H32.9005L33.3153 26.4139L33.7183 27.125H34.6546H35.579L35.3657 26.7931C35.2472 26.6154 34.145 24.9206 32.9124 23.0361C31.6798 21.1398 30.5538 19.4806 30.4235 19.3383C30.1153 19.0183 29.5583 18.9117 29.1672 19.0776Z"
      fill="#EA1B22"/>
    <path
      d="M2.87983 19.2316C2.15687 19.4686 1.62353 19.836 1.01909 20.4997C-0.746837 22.4672 -0.0238742 25.5842 2.47687 26.7575L3.14057 27.0657H6.51835H9.89612L10.6902 26.6746C13.1317 25.4775 13.7598 22.4079 11.9583 20.4286C11.6028 20.0494 11.0932 19.6583 10.6902 19.4568L10.0146 19.1249L6.69612 19.1012C4.19538 19.0775 3.25909 19.1131 2.87983 19.2316ZM10.3346 20.9264C11.2828 21.5901 11.6858 22.716 11.3658 23.8657C11.188 24.4938 10.2872 25.3946 9.65909 25.5723C9.37464 25.6435 8.08279 25.7027 6.42353 25.7027C3.37761 25.7027 3.12872 25.6553 2.38205 24.956C1.51687 24.1264 1.31538 23.0005 1.84872 21.9338C2.13316 21.3649 2.74946 20.796 3.31835 20.5709C3.41316 20.5353 4.90649 20.5116 6.63686 20.5235L9.7776 20.5472L10.3346 20.9264Z"
      fill="#EA1B22"/>
    <path
      d="M13.8667 23.0954V27.125H14.6371H15.4074V23.8065V20.488H18.323H21.2385L21.6415 20.8909C22.0919 21.3413 22.163 21.8035 21.8667 22.3843C21.5585 22.9887 21.3452 23.0361 18.7615 23.0954L16.3556 23.1546L18.6785 25.1339L21.0015 27.125H22.0563C22.6489 27.125 23.0993 27.0776 23.0637 27.0183C23.0282 26.9591 22.3526 26.3902 21.5585 25.7502L20.1245 24.5769L20.8593 24.482C21.2623 24.4346 21.7956 24.2924 22.0326 24.162C23.4193 23.4628 23.9408 21.8746 23.2415 20.5117C22.9452 19.9428 22.5897 19.6109 21.926 19.3146C21.4282 19.0894 21.1556 19.0657 17.6356 19.0657H13.8667V23.0954Z"
      fill="#EA1B22"/>
    <path
      d="M37.7248 19.2435C36.4566 19.6346 35.4137 20.6302 35.0226 21.8035C34.7381 22.645 34.8211 24.0198 35.2003 24.7546C35.6152 25.5606 35.9115 25.9043 36.5515 26.3546C37.5233 27.0065 38.1989 27.125 41.1855 27.125H43.7929L44.2433 26.4139L44.6818 25.7028H41.5766C38.5544 25.7028 38.4477 25.6909 37.867 25.4183C37.1677 25.0865 36.824 24.7428 36.5515 24.1028C36.1366 23.1191 36.3974 21.9102 37.1796 21.1754C37.8433 20.5472 38.1633 20.488 40.9959 20.488H43.6033L44.03 19.8717C44.2552 19.528 44.4448 19.208 44.4448 19.1606C44.4448 18.9946 38.27 19.0657 37.7248 19.2435Z"
      fill="#EA1B22"/>
    <path
      d="M45.5112 22.8583C45.5112 26.4969 45.5231 26.6628 45.7483 26.888C45.9735 27.1131 46.1394 27.125 49.7186 27.125H53.4401L53.926 26.4139L54.412 25.7028H50.726H47.052V22.3843V19.0657H46.2816H45.5112V22.8583Z"
      fill="#EA1B22"/>
    <path
      d="M56.9243 19.2314C55.8457 19.5751 54.9568 20.381 54.4354 21.4951C54.1746 22.0758 54.1154 22.3721 54.1035 23.0951C54.1035 23.8773 54.1628 24.1025 54.4946 24.7781C54.945 25.6907 55.585 26.3188 56.5213 26.7573C57.1731 27.0655 57.2324 27.0655 60.1124 27.101L63.0398 27.1484L63.4665 26.4847C63.6917 26.1292 63.8813 25.7973 63.8813 25.7618C63.8813 25.7262 62.5302 25.7025 60.8946 25.7025C59.1168 25.7025 57.7065 25.6433 57.4339 25.5721C56.9243 25.4299 55.905 24.4936 55.7983 24.067L55.7272 23.8062H59.0931H62.4472L62.9331 23.0951L63.4191 22.384H59.5554C57.4339 22.384 55.7035 22.3366 55.7035 22.2892C55.7035 21.9692 56.4739 21.0803 56.9954 20.8077C57.5761 20.4877 57.5761 20.4877 60.2309 20.4877H62.8976L63.3361 19.8358C63.5731 19.4803 63.7628 19.1603 63.7628 19.1247C63.7628 19.0892 62.3405 19.0655 60.5983 19.0773C58.3346 19.0773 57.2798 19.1247 56.9243 19.2314Z"
      fill="#EA1B22"/>
    <path d="M0 32.1027V32.4583H32H64V32.1027V31.7471H32H0V32.1027Z" fill="#5E5E5D"/>
    <path
      d="M51.9703 36.95C51.0814 37.353 50.7259 37.9574 50.7259 39.0478C50.7259 39.8182 50.951 40.4108 51.3303 40.6834C51.4844 40.79 52.1481 41.0389 52.7999 41.2404C53.4518 41.4419 54.0799 41.6908 54.1984 41.7974C54.4947 42.0582 54.4473 42.6034 54.1036 42.9471C53.8784 43.1841 53.7007 43.2434 53.191 43.2434C52.4325 43.2434 52.1007 43.0419 51.911 42.473C51.7807 42.07 51.757 42.0582 51.1762 42.0582H50.5718L50.6547 42.6152C50.797 43.6582 51.6503 44.4049 52.8355 44.5115C53.997 44.6182 54.9807 44.1797 55.3955 43.3737C55.6562 42.876 55.7392 42.0108 55.5851 41.5249C55.3125 40.7071 54.957 40.4345 53.6533 40.0315C52.1007 39.5574 51.911 39.4389 51.911 38.9174C51.911 38.633 51.994 38.4552 52.2192 38.2774C52.8355 37.7915 53.9851 38.076 54.1273 38.7397C54.1866 39.0834 54.2221 39.0952 54.8384 39.0952H55.4903L55.4073 38.6567C55.3007 38.0523 55.0636 37.6374 54.637 37.2819C53.9614 36.7012 52.7999 36.5589 51.9703 36.95Z"
      fill="#EA1B22"/>
    <path
      d="M0 40.6357V44.3098H1.65926C3.46074 44.3098 3.70963 44.2506 4.29037 43.6343C4.91852 42.9824 5.1437 42.2476 5.19111 40.7543C5.22666 39.5809 5.20296 39.2965 4.97778 38.7157C4.42074 37.2224 3.93481 36.9735 1.63555 36.9617H0V40.6357ZM3.34222 38.5024C3.76889 38.8343 3.94667 39.6165 3.88741 40.8372C3.80444 42.5083 3.42518 42.9824 2.07407 43.1009L1.3037 43.1602V40.7069V38.2654H2.18074C2.86815 38.2654 3.11704 38.3128 3.34222 38.5024Z"
      fill="#EA1B22"/>
    <path
      d="M10.6307 37.045C10.5951 37.0924 10.1092 38.6805 9.55214 40.5768C8.98325 42.4613 8.49733 44.085 8.47362 44.1561C8.43807 44.2746 8.61585 44.3102 9.11362 44.3102H9.80103L9.99066 43.5991L10.1921 42.8879H11.3655H12.5388L12.7047 43.5635L12.8707 44.2509L13.5818 44.2865L14.3047 44.322L13.2144 40.6717L12.1358 37.0213L11.4129 36.9857C11.0099 36.962 10.6662 36.9976 10.6307 37.045ZM11.7803 40.1976C11.9462 40.8494 12.0884 41.4183 12.0884 41.4776C12.0884 41.5368 11.7329 41.5842 11.3062 41.5842C10.6425 41.5842 10.5358 41.5605 10.5951 41.4065C10.6307 41.2998 10.8084 40.6598 10.9862 39.9842C11.164 39.3087 11.3536 38.8109 11.3892 38.8939C11.4366 38.9768 11.6144 39.5576 11.7803 40.1976Z"
      fill="#EA1B22"/>
    <path
      d="M16.5923 37.6135V38.2654H17.4812H18.3701V41.2876V44.3098H19.0219H19.6738V41.2876V38.2654H20.6219H21.5701V37.6135V36.9617H19.0812H16.5923V37.6135Z"
      fill="#EA1B22"/>
    <path
      d="M25.7898 37.9335C24.6639 41.6906 23.9409 44.1202 23.9409 44.2031C23.9409 44.2624 24.2372 44.3098 24.5928 44.3098H25.2446L25.4461 43.5987L25.6357 42.8876H26.7972H27.9587L28.1602 43.5987L28.3617 44.3098H29.0609C29.5824 44.3098 29.7602 44.2743 29.7246 44.1557C29.6891 44.0846 29.1913 42.4254 28.6224 40.4817L27.5794 36.9617H26.8328H26.0861L25.7898 37.9335ZM27.1883 40.0313C27.3661 40.7069 27.5439 41.3231 27.5794 41.418C27.6268 41.5483 27.4728 41.5839 26.8565 41.5839C26.3824 41.5839 26.0743 41.5365 26.0743 41.4535C26.0743 41.3943 26.2046 40.8491 26.3705 40.2446C26.7854 38.775 26.7972 38.7157 26.8446 38.7631C26.8565 38.7869 27.0224 39.3557 27.1883 40.0313Z"
      fill="#EA1B22"/>
    <path
      d="M33.1851 40.6479V44.322L35.1288 44.2865C36.8947 44.2509 37.108 44.2272 37.4162 44.002C37.9614 43.5872 38.2814 42.9235 38.2814 42.1413C38.2814 41.3946 38.1747 41.0983 37.7362 40.6242L37.4517 40.3161L37.6888 40.1028C38.2102 39.6287 38.2695 38.4791 37.7954 37.7205C37.4043 37.0687 36.9895 36.962 34.9747 36.962H33.1851V40.6479ZM36.6458 38.4672C36.9065 38.7042 36.9184 39.2968 36.6576 39.5931C36.5036 39.7709 36.2784 39.8065 35.4132 39.8065H34.3702V39.0361V38.2657H35.4014C36.1836 38.2657 36.4799 38.3131 36.6458 38.4672ZM36.7406 41.3472C37.0488 41.6554 37.0606 42.402 36.7643 42.7694C36.5628 43.0183 36.4325 43.042 35.4843 43.0539L34.4295 43.0657L34.3939 42.082L34.3584 41.1102H35.4369C36.3495 41.1102 36.5391 41.1457 36.7406 41.3472Z"
      fill="#EA1B22"/>
    <path
      d="M42.7376 40.4817C42.1569 42.4254 41.6591 44.0846 41.6235 44.1557C41.588 44.2743 41.7657 44.3098 42.2754 44.3098H42.9746L43.1524 43.6224L43.3302 42.9469L44.5272 42.9113L45.7124 42.8757L45.8665 43.5987L46.0206 44.3098H46.708C47.0991 44.3098 47.4072 44.2624 47.4072 44.215C47.4072 44.1202 46.305 40.3631 45.6176 38.1113L45.262 36.9617H44.5272H43.7924L42.7376 40.4817ZM44.9183 40.1143C45.108 40.8254 45.2739 41.4417 45.2739 41.4891C45.2739 41.5483 44.9183 41.5839 44.4917 41.5839C43.8043 41.5839 43.7094 41.5602 43.7687 41.3706C43.7924 41.2639 43.9702 40.6239 44.148 39.9483C44.3376 39.2846 44.5035 38.7631 44.5272 38.7869C44.5509 38.8106 44.7287 39.4031 44.9183 40.1143Z"
      fill="#EA1B22"/>
    <path
      d="M59.2593 40.6357V44.3098H61.6296H64V43.658V43.0061H62.2815H60.563V42.058V41.1098H62.0445H63.5259V40.458V39.8061H62.0445H60.563V39.0357V38.2654H62.2222H63.8815V37.6135V36.9617H61.5704H59.2593V40.6357Z"
      fill="#EA1B22"/>
  </g>
  <defs>
    <clipPath id="clip0_2320_761">
      <rect fill="white" height="64" width="64"/>
    </clipPath>
  </defs>
</svg>
