<svg fill="none" height="64" viewBox="0 0 64 64" width="64" xmlns="http://www.w3.org/2000/svg">
  <g clip-path="url(#clip0_2316_827)">
    <path d="M32 0C14.332 0 0 14.332 0 32C0 49.668 14.332 64 32 64C49.668 64 64 49.668 64 32C64 14.332 49.668 0 32 0Z"
          fill="#368FB9"/>
    <path
      d="M50.8293 43.515C48.8526 43.9845 47.8518 44.417 45.4056 46.0107C41.5878 48.4817 37.4116 49.6307 37.4116 49.6307C37.4116 49.6307 37.0658 50.1497 36.0648 50.3845C34.3353 50.8045 27.8241 51.163 27.2311 51.1752C25.6371 51.1877 24.6611 50.7677 24.3893 50.1127C23.5616 48.136 25.5753 47.271 25.5753 47.271C25.5753 47.271 25.1306 46.9992 24.8711 46.752C24.6363 46.5172 24.3893 46.048 24.3151 46.2207C24.0063 46.9745 23.8456 48.8155 23.0178 49.6432C21.8811 50.7922 19.7313 50.4092 18.4588 49.742C17.0626 49.0007 18.5576 47.2587 18.5576 47.2587C18.5576 47.2587 17.8038 47.7035 17.1986 46.7892C16.6548 45.9492 16.1486 44.5157 16.2843 42.7492C16.4326 40.7352 18.6811 38.783 18.6811 38.783C18.6811 38.783 18.2858 35.8055 19.5831 32.7537C20.7568 29.9737 23.9198 27.7375 23.9198 27.7375C23.9198 27.7375 21.2633 24.797 22.2518 22.153C22.8943 20.423 23.1538 20.4355 23.3638 20.3615C24.1051 20.0772 24.8216 19.7682 25.3531 19.1877C28.0093 16.3212 31.3946 16.8647 31.3946 16.8647C31.3946 16.8647 33.0008 11.9847 34.4836 12.936C34.9406 13.2325 36.5838 16.8895 36.5838 16.8895C36.5838 16.8895 38.3383 15.864 38.5361 16.247C39.5986 18.3105 39.7221 22.2517 39.2526 24.6487C38.4618 28.6022 36.4851 30.7275 35.6943 32.0617C35.5091 32.3707 37.8193 33.3467 39.2773 37.3867C40.6241 41.081 39.4256 44.1822 39.6356 44.5282C39.6726 44.59 39.6851 44.6147 39.6851 44.6147C39.6851 44.6147 41.2293 44.7382 44.3306 42.8232C45.9861 41.7977 47.9506 40.6487 50.1868 40.624C52.3493 40.5867 52.4603 43.1197 50.8293 43.515ZM53.7701 41.6987C53.5476 39.9445 52.0651 38.7337 50.1623 38.7582C47.3206 38.7952 44.9361 40.2657 43.3546 41.2417C42.7368 41.6247 42.2056 41.909 41.7483 42.119C41.8471 40.6857 41.7608 38.8077 41.0193 36.7445C40.1173 34.2732 38.9068 32.7537 38.0418 31.8765C39.0426 30.4185 40.4141 28.2935 41.0563 25.007C41.6123 22.2022 41.4396 17.841 40.1668 15.3945C39.9073 14.9005 39.4751 14.542 38.9313 14.3937C38.7088 14.332 38.2888 14.2085 37.4611 14.4432C36.2133 11.861 35.7808 11.5892 35.4471 11.3667C34.7553 10.922 33.9398 10.8232 33.1738 11.1072C32.1483 11.478 31.2713 12.4665 30.4433 14.2207C30.3242 14.4684 30.213 14.7198 30.1098 14.9745C28.5406 15.0857 26.0696 15.654 23.9816 17.915C23.7221 18.1992 23.2156 18.4092 22.6841 18.607H22.6966C21.6093 18.99 21.1151 19.8795 20.5098 21.4857C19.6696 23.7342 20.5343 25.9457 21.3868 27.3792C20.2256 28.417 18.6811 30.0725 17.8658 32.0122C16.8526 34.4092 16.7413 36.7567 16.7783 38.0292C15.9136 38.9437 14.5793 40.661 14.4308 42.5885C14.2333 45.2817 15.2093 47.1105 15.6418 47.7775C15.7653 47.9752 15.9013 48.136 16.0493 48.2965C16.0001 48.63 15.9878 48.9885 16.0618 49.359C16.2226 50.224 16.7661 50.9282 17.5938 51.373C19.2248 52.238 21.4981 52.6085 23.2526 51.7312C23.8826 52.3985 25.0318 53.041 27.1198 53.041H27.2433C27.7746 53.041 34.5206 52.6827 36.4851 52.201C37.3623 51.9907 37.9676 51.62 38.3631 51.2865C39.6231 50.891 43.1073 49.705 46.3938 47.58C48.7166 46.0725 49.5198 45.7512 51.2496 45.3312C52.9296 44.9237 53.9801 43.3915 53.7701 41.6987Z"
      fill="white"/>
  </g>
  <defs>
    <clipPath id="clip0_2316_827">
      <rect fill="white" height="64" width="64"/>
    </clipPath>
  </defs>
</svg>
