<svg fill="none" height="64" viewBox="0 0 64 64" width="64" xmlns="http://www.w3.org/2000/svg">
  <path
    d="M33.66 4.00001C32.9738 3.99972 32.3152 4.27075 31.828 4.75401L31.802 4.77401L14.646 14.68L31.758 31.78V31.79L52.324 52.344L56.244 45.286L42.108 11.366L35.51 4.772C35.2676 4.52682 34.9788 4.33231 34.6605 4.19977C34.3423 4.06723 34.0008 3.99933 33.656 4.00001H33.66Z"
    fill="#4FC3F7"/>
  <path
    d="M14.6861 14.6399L4.77605 31.7699L4.75605 31.7959C4.51547 32.0373 4.32483 32.3238 4.19502 32.6389C4.06521 32.9541 3.99877 33.2917 3.99952 33.6325C4.00026 33.9734 4.06816 34.3107 4.19935 34.6253C4.33053 34.9399 4.52242 35.2255 4.76405 35.4659L4.77405 35.4759L12.9861 43.6899L45.114 56.3179L52.378 52.2879L52.182 52.0919L52.132 52.0959L31.9901 31.9399H31.9661L14.6861 14.6399Z"
    fill="#01579B"/>
  <path
    d="M14.6421 14.6479L32.1481 32.158H32.1741L52.3201 52.312L59.9901 50.852L60.0001 28.1779L51.9021 20.2479C49.8842 18.4467 47.3548 17.3197 44.6661 17.0239L44.6701 16.9379L14.6461 14.6499L14.6421 14.6479Z"
    fill="#01579B"/>
  <path
    d="M14.6641 14.6699L32.1801 32.1699V32.1959L52.3381 52.3379L50.8721 59.9999H28.1801L20.2461 51.9039C18.4455 49.8858 17.3192 47.3564 17.0241 44.6679L16.9341 44.6759L14.6641 14.6699Z"
    fill="#64B5F6"/>
</svg>
