<svg fill="none" height="64" viewBox="0 0 64 64" width="64" xmlns="http://www.w3.org/2000/svg">
  <g clip-path="url(#clip0_2313_794)">
    <mask height="64" id="mask0_2313_794" maskUnits="userSpaceOnUse" style="mask-type:luminance" width="64" x="0" y="0">
      <path d="M64 0H0V64H64V0Z" fill="white"/>
    </mask>
    <g mask="url(#mask0_2313_794)">
      <path clip-rule="evenodd"
            d="M4.992 64H58.992C61.76 64 63.984 61.7606 63.984 59.0092V16.7478C32.992 22.1545 14.272 38.8862 4.432 51.2032C2.704 53.1707 1.472 55.1382 0.736 56.6099C0.496 57.0897 0.016 58.3054 0 59.0412C0.032 61.7766 2.256 63.984 4.992 63.984V64Z"
            fill="#596C7D"
            fill-rule="evenodd"/>
      <path clip-rule="evenodd"
            d="M4.992 0C2.24 0 0 2.23944 0 4.99075V37.6386C11.328 25.8336 31.36 13.8045 61.536 9.5816C62.656 9.42165 63.456 9.30968 64 9.2137V4.99075C64 2.22344 61.76 0 59.008 0H4.992Z"
            fill="#2190F7"
            fill-rule="evenodd"/>
      <path
        d="M52.5277 42.9174C53.7277 43.9411 54.7517 45.1087 55.5517 46.3884L55.5677 46.3564C56.1757 47.4763 56.4637 48.7079 56.4157 49.9396C56.4797 51.6511 55.8237 53.3468 54.5757 54.6743C53.9677 55.2823 53.2477 55.7462 52.4317 56.066C51.6637 56.354 50.8317 56.514 50.0157 56.514H49.7277C48.3037 56.514 46.8957 56.082 45.7597 55.2983L45.5837 55.1863V51.0913L46.2237 51.5551C47.1357 52.243 48.2557 52.627 49.4557 52.707C49.8237 52.707 50.2077 52.659 50.5437 52.531C50.8797 52.403 51.1837 52.211 51.4237 51.9711C51.9357 51.4113 52.1917 50.6915 52.1437 49.9556C52.1597 49.2038 51.9677 48.4679 51.5677 47.8281C51.3277 47.4603 51.0397 47.1083 50.7357 46.7724C50.3517 46.3564 49.8717 45.8926 49.3117 45.3967C48.2877 44.4849 47.5837 43.8291 47.0557 43.2852C46.5597 42.8054 42.0477 37.9747 46.5277 33.4958C47.1197 32.9039 47.8557 32.4559 48.6557 32.1521C49.4557 31.8481 50.3517 31.7201 51.1997 31.7521H51.2477C52.5277 31.7521 53.8237 32.0401 54.9757 32.5679L55.1997 32.6799V36.8068L54.5757 36.359C53.7757 35.7991 52.8157 35.4633 51.7917 35.4153C51.4077 35.4153 51.0397 35.4791 50.6877 35.6071C50.3357 35.7351 50.0317 35.9431 49.7917 36.183C49.2477 36.711 48.0637 38.5985 50.6077 41.1419C51.0717 41.6057 51.6957 42.1815 52.5277 42.9174Z"
        fill="white"/>
      <path
        d="M36.3041 32.1042H40.6561V50.4196C40.6561 54.8185 38.4481 55.8103 37.6161 56.1462C36.9441 56.4182 36.2081 56.562 35.4561 56.562C35.3761 56.562 35.3001 56.558 35.2241 56.554C35.1481 56.55 35.0721 56.546 34.9921 56.546H34.8161C33.7921 56.546 32.7681 56.3222 31.8401 55.9062L31.6001 55.7943V51.6833L32.2081 52.0511C32.8481 52.4511 33.6001 52.6911 34.3841 52.771C36.1441 52.771 36.3041 51.1234 36.3041 50.2436V32.1042Z"
        fill="white"/>
    </g>
  </g>
  <defs>
    <clipPath id="clip0_2313_794">
      <rect fill="white" height="64" width="64"/>
    </clipPath>
  </defs>
</svg>
