<svg fill="none" height="51" viewBox="0 0 64 51" width="64" xmlns="http://www.w3.org/2000/svg">
  <g clip-path="url(#clip0_2385_833)">
    <path
      d="M63.0117 20.9356C61.4403 19.8697 57.3157 19.4124 54.3161 20.2301C54.1527 17.2143 52.6117 14.6711 49.794 12.456L48.7514 11.7488L48.0542 12.8096C46.6883 14.904 46.1123 17.6937 46.3161 20.2318C46.4761 21.7958 47.015 23.5519 48.0542 24.8269C44.1502 27.1134 40.551 26.5932 24.6117 26.5932H0.00534282C-0.065394 30.2261 0.513975 37.2148 4.91482 42.9013C5.40155 43.5303 5.93208 44.1372 6.51145 44.7237C10.0921 48.3413 15.4984 50.995 23.586 51.0018C35.9228 51.0137 46.4929 44.2817 52.9232 28.0059C55.0403 28.0399 60.6234 28.3884 63.3569 23.0572C63.4226 22.9688 64.0525 21.6445 64.0525 21.6445L63.0117 20.939V20.9356ZM16.0643 17.6155H9.14555V24.5991H16.0643V17.6155ZM25.0041 17.6155H18.0853V24.5991H25.0041V17.6155ZM33.9439 17.6155H27.0251V24.5991H33.9439V17.6155ZM42.8837 17.6155H35.9649V24.5991H42.8837V17.6155ZM7.1245 17.6155H0.205764V24.5991H7.1245V17.6155ZM16.0643 8.79248H9.14555V15.7761H16.0643V8.79248ZM25.0041 8.79248H18.0853V15.7761H25.0041V8.79248ZM33.9439 8.79248H27.0251V15.7761H33.9439V8.79248ZM33.9439 -0.0305176H27.0251V6.95478H33.9439V-0.0305176Z"
      fill="#0288D1"/>
  </g>
  <defs>
    <clipPath id="clip0_2385_833">
      <rect fill="white" height="51" width="64"/>
    </clipPath>
  </defs>
</svg>
