<svg fill="none" height="64" viewBox="0 0 64 64" width="64" xmlns="http://www.w3.org/2000/svg">
  <path
    d="M26.3442 5.65601L23.5602 8.44001L27.3802 12.26L31.3802 16.26C32.2912 15.8093 33.3022 15.5986 34.3175 15.6479C35.3327 15.6971 36.3185 16.0046 37.1817 16.5413C38.0449 17.0781 38.7567 17.8262 39.25 18.7149C39.7432 19.6037 40.0014 20.6036 40.0002 21.62C39.9786 22.527 39.7674 23.4195 39.3802 24.24L43.5002 28.24C44.5807 27.6158 45.8451 27.388 47.0755 27.5961C48.3059 27.8043 49.4251 28.4351 50.2402 29.38C50.8097 29.9262 51.2601 30.5843 51.563 31.3129C51.8659 32.0416 52.0147 32.825 52.0002 33.614C52.0015 35.1895 51.3871 36.7031 50.2882 37.832C49.7353 38.4095 49.0689 38.8664 48.331 39.1741C47.5931 39.4818 46.7996 39.6336 46.0002 39.62C45.2094 39.6324 44.4244 39.4847 43.6922 39.1857C42.9601 38.8866 42.2961 38.4425 41.7402 37.88C40.7983 37.0581 40.1715 35.9343 39.9672 34.701C39.7628 33.4677 39.9937 32.2018 40.6202 31.12L36.6202 27C36.4181 27.0914 36.2111 27.1715 36.0002 27.24V40C37.1613 40.4136 38.1669 41.1748 38.8802 42.18C39.6082 43.1792 40.0004 44.3837 40.0002 45.62C40.0159 46.412 39.8681 47.1988 39.5659 47.9311C39.2638 48.6634 38.8138 49.3255 38.2442 49.876C37.155 50.9638 35.6872 51.5881 34.1482 51.618C33.036 51.6528 31.9364 51.3756 30.9736 50.8179C30.0108 50.2602 29.2232 49.4442 28.7001 48.4621C28.1769 47.4801 27.939 46.3713 28.0132 45.2611C28.0875 44.1509 28.4709 43.0836 29.1202 42.18C29.8335 41.1748 30.8391 40.4136 32.0002 40V27.24C30.8365 26.8311 29.8296 26.069 29.1202 25.06C28.3896 24.0621 27.9972 22.8568 28.0002 21.62C27.9985 20.7101 28.2109 19.8126 28.6202 19L20.8202 11.2L5.66219 26.344C4.91884 27.0868 4.32912 27.9687 3.92671 28.9395C3.5243 29.9102 3.31708 30.9508 3.31689 32.0016C3.31671 33.0524 3.52356 34.093 3.92563 35.0639C4.3277 36.0348 4.91711 36.917 5.66019 37.66L26.3442 58.344C27.8444 59.8438 29.8789 60.6863 32.0002 60.6863C34.1215 60.6863 36.156 59.8438 37.6562 58.344L58.3442 37.656C59.844 36.1558 60.6865 34.1213 60.6865 32C60.6865 29.8787 59.844 27.8442 58.3442 26.344L37.6562 5.65601C36.156 4.15624 34.1215 3.31372 32.0002 3.31372C29.8789 3.31372 27.8444 4.15624 26.3442 5.65601Z"
    fill="#E64A19"/>
</svg>
