<svg fill="none" height="64" viewBox="0 0 64 64" width="64" xmlns="http://www.w3.org/2000/svg">
  <g clip-path="url(#clip0_2313_702)">
    <path d="M0 0H64V64H0V0Z" fill="#F7DF1E"/>
    <path
      d="M16.8279 53.4831L21.7254 50.5191C22.6704 52.1943 23.5299 53.6118 25.5916 53.6118C27.5679 53.6118 28.8141 52.8388 28.8141 49.8318V29.3823H34.8284V49.9168C34.8284 56.1461 31.1769 58.9816 25.8494 58.9816C21.0381 58.9816 18.2454 56.4898 16.8276 53.4826M38.0951 52.8386L42.9921 50.0033C44.2814 52.1086 45.9569 53.6551 48.9209 53.6551C51.4131 53.6551 53.0021 52.4091 53.0021 50.6906C53.0021 48.6286 51.3696 47.8981 48.6201 46.6956L47.1169 46.0506C42.7776 44.2038 39.8994 41.8838 39.8994 36.9863C39.8994 32.4753 43.3361 29.0383 48.7064 29.0383C52.5299 29.0383 55.2794 30.3703 57.2554 33.8501L52.5724 36.8576C51.5411 35.0103 50.4246 34.2801 48.7061 34.2801C46.9446 34.2801 45.8276 35.3971 45.8276 36.8576C45.8276 38.6618 46.9446 39.3926 49.5221 40.5096L51.0256 41.1538C56.1381 43.3451 59.0164 45.5788 59.0164 50.6048C59.0164 56.0183 54.7634 58.9823 49.0496 58.9823C43.4649 58.9823 39.8561 56.3188 38.0949 52.8388"
      fill="black"/>
  </g>
  <defs>
    <clipPath id="clip0_2313_702">
      <rect fill="white" height="64" width="64"/>
    </clipPath>
  </defs>
</svg>
