<svg fill="none" height="64" viewBox="0 0 64 64" width="64" xmlns="http://www.w3.org/2000/svg">
  <path
    d="M2 5.00854H7.58468V42.0744H29.6728V46.6466H2V5.00854ZM47.0895 15.0628C41.377 14.9859 35.6658 18.6168 33.8858 24.1246C31.348 30.4729 32.5143 38.4454 37.491 43.2941C42.3158 47.3044 49.5758 47.6099 55.0085 44.7684C58.7423 42.7869 61.1023 38.8524 61.6115 34.7124C62.2705 30.3984 61.9428 25.6743 59.8353 21.7649C57.3453 17.601 52.4728 14.9113 47.6478 15.0871L47.0895 15.0121V15.0628ZM47.5968 19.4793C51.7865 19.4793 55.5435 22.6781 56.2283 26.7928C57.499 31.4361 56.7373 37.1236 52.9288 40.3991C49.3748 43.2941 43.6603 42.8896 40.7413 39.3099C37.1873 35.4994 37.1873 29.6601 39.0163 25.0917C40.2853 21.7903 43.6598 19.4301 47.2158 19.5051H47.6718L47.5968 19.4793Z"
    fill="currentColor"/>
  <path d="M2 52.561H61.9138V58.9073H2V52.561Z" fill="#3492FF"/>
</svg>
