<svg fill="none" height="37" viewBox="0 0 64 37" width="64" xmlns="http://www.w3.org/2000/svg">
  <g clip-path="url(#clip0_2382_781)">
    <mask height="37" id="mask0_2382_781" maskUnits="userSpaceOnUse" style="mask-type:luminance" width="64" x="0" y="0">
      <path d="M64 0H0V37H64V0Z" fill="white"/>
    </mask>
    <g mask="url(#mask0_2382_781)">
      <path
        d="M31.6971 10.7734C32.2165 11.2037 32.6888 11.6763 33.152 12.1648C32.9325 12.6673 32.5955 13.0764 32.256 13.5032C31.9461 13.8954 31.6395 14.2843 31.36 14.699C30.9701 14.5263 30.7051 14.3277 30.4 14.0338C29.18 12.9604 27.7304 12.4802 26.1121 12.5608C24.4399 12.7471 23.0742 13.4969 21.9896 14.7614C21.1546 15.9175 20.8727 17.101 20.9921 18.5004C21.3864 20.2515 22.251 21.7422 23.7841 22.7136C25.0348 23.4109 26.3498 23.6834 27.7707 23.3546C29.204 22.8803 30.4136 22.0214 31.104 20.6545C29.5411 20.6545 27.9784 20.6545 26.3681 20.6545C26.6558 19.9424 26.6558 19.9424 26.9669 19.5977C27.0333 19.5232 27.0995 19.4486 27.1675 19.3718C27.2707 19.258 27.2707 19.258 27.376 19.1419C27.5123 18.9906 27.6477 18.839 27.7829 18.687C27.8432 18.6207 27.9032 18.5544 27.9651 18.4861C28.1853 18.2358 28.1853 18.2358 28.3491 17.844C28.7205 17.4332 28.7875 17.4306 29.3176 17.4004C29.5859 17.4005 29.8541 17.4048 30.1221 17.4124C30.3341 17.4141 30.3341 17.4141 30.5504 17.4157C31.0016 17.42 31.4528 17.4295 31.904 17.4392C32.2101 17.443 32.516 17.4465 32.8221 17.4496C33.5723 17.458 34.3221 17.4707 35.072 17.4867C35.0736 17.7088 35.0747 17.9309 35.0757 18.153C35.0763 18.2767 35.0771 18.4004 35.0776 18.5278C35.0421 20.7753 33.9949 22.7791 32.4725 24.3881C30.7069 26.067 28.6043 26.828 26.1768 26.7873C24.0178 26.7022 22.1048 25.8489 20.4801 24.4559C20.4065 24.4039 20.3329 24.352 20.2571 24.2985C19.327 23.6153 18.3641 22.2706 18.0481 21.1614C18.1115 20.7611 18.2542 20.5113 18.5021 20.1927C18.5681 20.1069 18.6341 20.021 18.7021 19.9326C18.806 19.7999 18.806 19.7999 18.9121 19.6646C19.0475 19.4896 19.1828 19.3145 19.3181 19.1394C19.3782 19.0623 19.4384 18.9853 19.5004 18.9059C19.7915 18.5225 20.0705 18.1304 20.3521 17.7401C19.465 17.6983 18.578 17.6565 17.6641 17.6134C17.6641 15.2664 18.6383 13.4085 20.2321 11.7213C23.1893 8.88194 28.3344 8.30128 31.6971 10.7734Z"
        fill="currentColor"/>
      <path
        d="M62.0914 10.7945C63.1989 11.8391 63.3485 12.9388 63.4869 14.4454C62.3885 14.4454 61.2903 14.4454 60.1589 14.4454C60.0322 13.9436 60.0322 13.9436 59.9029 13.4317C59.5207 12.7661 58.9594 12.5007 58.2389 12.2913C56.9893 12.0779 55.7309 12.0658 54.6549 12.7982C54.5703 12.7982 54.4858 12.7982 54.3989 12.7982C54.3591 12.8975 54.3197 12.9968 54.2789 13.0991C54.1429 13.4317 54.1429 13.4317 54.0149 13.6851C53.9333 14.2719 53.9175 14.6901 54.2709 15.182C55.2573 15.8941 56.2247 16.1116 57.4069 16.3382C62.0623 17.2851 62.0623 17.2851 63.4309 19.0699C63.9103 19.897 64.0674 20.6393 64.0549 21.5888C64.0535 21.695 64.0522 21.8011 64.0511 21.9105C64.0122 23.2539 63.5965 24.0861 62.6514 25.0566C60.7794 26.7487 58.1997 26.833 55.7967 26.7593C54.0381 26.6525 52.4093 25.9224 51.2002 24.6547C50.3663 23.5999 50.0469 22.6095 50.0469 21.2879C51.1029 21.2879 52.1589 21.2879 53.2469 21.2879C53.4157 21.7061 53.5847 22.1242 53.7589 22.555C54.3053 23.2461 55.0757 23.6381 55.9349 23.8221C57.3447 23.9324 58.7797 23.9535 60.0229 23.2203C60.4517 22.7571 60.6589 22.3533 60.6834 21.7314C60.6527 21.2333 60.585 20.8613 60.3509 20.4167C59.1495 19.4059 57.2685 19.1998 55.7738 18.8482C52.2866 18.0229 52.2866 18.0229 51.3269 16.853C50.797 15.9877 50.6749 15.3523 50.5589 14.3187C51.4882 14.2769 52.4173 14.2351 53.3749 14.192C52.8925 13.6366 52.8925 13.6366 52.4101 13.0814C52.0405 12.6554 51.6778 12.2257 51.3269 11.7845C51.5866 10.8786 52.4669 10.4575 53.2469 10.0105C55.8911 8.69239 59.797 8.88878 62.0914 10.7945Z"
        fill="currentColor"/>
      <path
        d="M0 9.37646C1.2672 9.37646 2.5344 9.37646 3.84 9.37646C4.49413 10.1859 5.10984 10.9744 5.688 11.8315C6.23696 12.636 6.80019 13.4201 7.39501 14.192C7.72603 14.633 8.03968 15.0838 8.352 15.5379C9.12989 16.6679 9.93963 17.774 10.752 18.8799C11.6122 20.0509 12.4657 21.2244 13.2897 22.4207C13.7486 23.0849 14.2198 23.7397 14.696 24.3919C14.7635 24.4843 14.831 24.5768 14.9005 24.672C15.2969 25.2131 15.7007 25.7469 16.1158 26.274C16.256 26.4828 16.256 26.4828 16.256 26.7359C15.7121 26.774 15.1689 26.8015 14.624 26.8195C14.4393 26.8271 14.2546 26.8374 14.0702 26.8506C12.5479 26.9574 12.5479 26.9574 11.9328 26.4336C11.6337 26.0411 11.3828 25.6419 11.136 25.2155C10.9896 25.0064 10.8411 24.7987 10.69 24.5928C10.5505 24.394 10.4111 24.195 10.272 23.9959C9.68947 23.1673 9.10208 22.3427 8.504 21.525C8.43637 21.4325 8.36872 21.34 8.29904 21.2447C8.02048 20.8643 7.74152 20.4841 7.46224 20.1042C6.05331 18.187 6.05331 18.187 5.504 17.3593C4.80792 16.3258 4.06272 15.3253 3.328 14.3182C3.28576 18.4161 3.24352 22.514 3.2 26.7359C2.144 26.7359 1.088 26.7359 0 26.7359C0 21.0074 0 15.2787 0 9.37646Z"
        fill="currentColor"/>
      <path
        d="M48.6396 14.3181C48.5622 14.7052 48.4406 14.964 48.2081 15.2833C48.1457 15.3699 48.0833 15.4565 48.019 15.5457C47.9518 15.6371 47.8849 15.7286 47.8156 15.8228C47.7473 15.9172 47.679 16.0116 47.6086 16.1089C47.4676 16.3036 47.326 16.4981 47.1844 16.6924C46.9865 16.9644 46.7897 17.2373 46.5937 17.5107C45.718 18.7309 45.718 18.7309 45.5676 18.8797C45.3681 18.8996 45.1676 18.9115 44.967 18.9198C44.786 18.9278 44.786 18.9278 44.6009 18.9359C44.4737 18.9409 44.3468 18.9459 44.2156 18.951C44.0881 18.9565 43.9604 18.962 43.8289 18.9676C43.5126 18.9811 43.1961 18.994 42.8796 19.0065C43.4993 19.8296 44.1246 20.6483 44.7545 21.4638C45.7417 22.7423 46.7137 24.0307 47.6732 25.3295C47.9452 25.6939 48.2222 26.0541 48.5004 26.4138C48.6396 26.6093 48.6396 26.6093 48.6396 26.7359C46.2334 27.0961 46.2334 27.0961 45.4009 26.5387C44.8697 26.0119 44.4777 25.3924 44.0916 24.757C43.8137 24.3105 43.4937 23.9016 43.1676 23.4889C43.0681 23.3566 42.9684 23.2243 42.8657 23.088C42.7857 22.9955 42.706 22.9031 42.6236 22.8079C42.5393 22.8079 42.4548 22.8079 42.3676 22.8079C42.122 23.0826 41.8916 23.3587 41.6636 23.6473C41.5958 23.7322 41.5278 23.8171 41.458 23.9045C40.935 24.5639 40.4361 25.2384 39.9513 25.9257C39.746 26.2168 39.55 26.4843 39.2956 26.7359C38.9964 26.7647 38.9964 26.7647 38.6268 26.7607C38.4948 26.7599 38.3628 26.7591 38.2268 26.7581C38.0193 26.7549 38.0193 26.7549 37.8076 26.7517C37.6684 26.7507 37.5292 26.7494 37.3857 26.7483C37.0409 26.7454 36.6964 26.7412 36.3516 26.7359C36.6297 26.2553 36.9425 25.8251 37.2876 25.3896C37.9281 24.5762 38.5452 23.7467 39.159 22.9134C39.6428 22.2596 40.1406 21.63 40.683 21.0225C40.8585 20.7936 40.8585 20.7936 40.8012 20.546C40.6854 20.2224 40.5265 20.0008 40.3161 19.7277C40.2364 19.6233 40.1569 19.519 40.0748 19.4116C39.9892 19.3014 39.9038 19.1912 39.8156 19.0778C39.7286 18.9642 39.6414 18.8507 39.5518 18.7338C39.0665 18.1019 38.5774 17.4729 38.0876 16.8444C37.691 16.3355 37.298 15.8246 36.9116 15.3081C36.8281 15.1965 36.7446 15.0849 36.6588 14.97C36.4796 14.6982 36.4796 14.6982 36.4796 14.4448C38.9564 14.2392 38.9564 14.2392 39.6657 14.669C39.9244 15.0022 40.1185 15.342 40.3196 15.7119C40.526 15.9968 40.7473 16.2693 40.9676 16.5435C41.0758 16.6829 41.1836 16.8224 41.291 16.9622C41.6369 17.407 41.9892 17.8462 42.3446 18.2833C42.4956 18.4996 42.4956 18.4996 42.4956 18.753C42.5801 18.753 42.6646 18.753 42.7516 18.753C42.7868 18.6802 42.8217 18.6073 42.858 18.5323C43.0073 18.2469 43.1732 17.9889 43.3561 17.7235C43.4244 17.6242 43.4926 17.5248 43.5628 17.4225C43.7124 17.2082 43.8628 16.9947 44.0142 16.7819C44.5113 16.0832 44.5113 16.0832 44.9388 15.3422C45.7665 13.8951 47.1476 14.1682 48.6396 14.3181Z"
        fill="currentColor"/>
      <path
        d="M9.59912 29.5237C13.3162 29.5237 17.0334 29.5237 20.8631 29.5237C20.6741 29.8982 20.5139 30.1736 20.2631 30.4978C20.1954 30.5856 20.1277 30.6733 20.058 30.764C19.9857 30.8565 19.9135 30.949 19.8391 31.0444C19.7647 31.1403 19.6902 31.2363 19.6135 31.3351C19.0762 32.0241 18.5192 32.6927 17.9516 33.3574C17.5878 33.7961 17.2568 34.2539 16.9241 34.7161C16.3431 35.4971 15.7196 36.2461 15.1031 36.9998C14.7841 36.9525 14.6279 36.9128 14.4066 36.6739C14.322 36.5455 14.322 36.5455 14.2356 36.4144C14.1707 36.3177 14.1059 36.2212 14.039 36.1218C13.9704 36.0169 13.9018 35.912 13.8311 35.8039C13.6827 35.583 13.5341 35.3623 13.3851 35.1416C13.3093 35.029 13.2335 34.9162 13.1554 34.8001C12.8053 34.2869 12.4394 33.7858 12.0711 33.2855C12.0025 33.1922 11.9339 33.0987 11.8632 33.0025C11.7284 32.8188 11.5935 32.6351 11.4586 32.4517C11.0984 31.9599 10.7428 31.4649 10.3873 30.9699C10.1826 30.6855 9.97795 30.4045 9.75611 30.1326C9.59912 29.904 9.59912 29.904 9.59912 29.5237Z"
        fill="#1D00FF"/>
      <path
        d="M33.7913 0C33.918 0 34.0446 0 34.1753 0C34.43 0.295429 34.6593 0.588126 34.8873 0.902826C34.9894 1.0406 34.9895 1.0406 35.0935 1.18115C35.5761 1.83478 36.0503 2.4946 36.5228 3.15552C36.894 3.67302 37.2785 4.17873 37.6713 4.68045C38.9113 6.26545 38.9113 6.26545 38.9113 6.58904C35.5742 6.58904 32.2374 6.58904 28.7993 6.58904C29.0209 6.04088 29.1638 5.79087 29.5353 5.36151C30.0697 4.7304 30.5857 4.08789 31.0953 3.43706C31.2102 3.29033 31.2103 3.29033 31.3276 3.14064C31.8913 2.42055 32.4526 1.69877 33.0124 0.975587C33.1004 0.862718 33.1887 0.74985 33.2793 0.633562C33.3673 0.51416 33.4556 0.394758 33.5462 0.271739C33.627 0.182065 33.7081 0.0923911 33.7913 0Z"
        fill="#1D00FF"/>
      <path
        d="M13.0571 9.37646C14.1131 9.37646 15.1691 9.37646 16.2571 9.37646C16.2571 12.0945 16.2571 14.8124 16.2571 17.6128C15.2011 17.6128 14.1451 17.6128 13.0571 17.6128C13.0571 14.8948 13.0571 12.1768 13.0571 9.37646Z"
        fill="currentColor"/>
      <path
        d="M49.7908 0.380127C50.4286 0.849673 50.887 1.39965 51.3817 2.01303C51.7982 2.52118 52.2502 2.99643 52.7028 3.47296C53.8868 4.72258 53.8868 4.72258 53.8868 5.06848C51.2257 5.06848 48.5646 5.06848 45.8228 5.06848C46.0182 4.6817 46.1516 4.45219 46.4273 4.14092C46.4956 4.06324 46.5641 3.98559 46.6345 3.90557C46.707 3.82414 46.7798 3.74272 46.8548 3.65881C46.9668 3.53213 46.9668 3.53213 47.0812 3.40287C47.595 2.82305 48.114 2.24801 48.6372 1.67645C49.0268 1.24879 49.4092 0.81489 49.7908 0.380127Z"
        fill="#1D00FF"/>
      <path
        d="M42.3672 31.0447C43.4232 31.0447 44.4792 31.0447 45.5672 31.0447C45.2419 31.6084 44.9733 32.0646 44.5752 32.5572C44.4965 32.655 44.4181 32.753 44.3371 32.8537C44.2784 32.9259 44.2197 32.9977 44.1592 33.072C43.5987 32.8762 43.3155 32.442 42.9752 31.9871C42.8872 31.8724 42.8872 31.8724 42.7971 31.7556C42.3672 31.1914 42.3672 31.1914 42.3672 31.0447Z"
        fill="#1D00FF"/>
    </g>
  </g>
  <defs>
    <clipPath id="clip0_2382_781">
      <rect fill="white" height="37" width="64"/>
    </clipPath>
  </defs>
</svg>
