<svg fill="none" height="64" viewBox="0 0 64 64" width="64" xmlns="http://www.w3.org/2000/svg">
  <path
    d="M0 32C0 41.2965 14.327 48.8335 32 48.8335C49.673 48.8335 64 41.2965 64 32C64 22.7035 49.6725 15.1665 32 15.1665C14.3275 15.1665 0 22.7035 0 32Z"
    fill="url(#paint0_radial_2313_764)"/>
  <path
    d="M32 47.5835C48.9825 47.5835 62.75 40.606 62.75 32C62.75 23.393 48.9825 16.4165 32 16.4165C15.0175 16.4165 1.25 23.393 1.25 32C1.25 40.606 15.0175 47.5835 32 47.5835Z"
    fill="#777BB3"/>
  <path
    d="M17.3863 33.932C18.7828 33.932 19.8248 33.6745 20.4843 33.167C21.1373 32.664 21.5878 31.7935 21.8243 30.5795C22.0443 29.4445 21.9603 28.6525 21.5743 28.2245C21.1803 27.7875 20.3278 27.566 19.0408 27.566H16.8088L15.5723 33.932H17.3863ZM10.0868 41.7735C10.0356 41.7734 9.985 41.762 9.93871 41.7401C9.89243 41.7182 9.85158 41.6863 9.81908 41.6467C9.78658 41.6071 9.76324 41.5608 9.75073 41.5112C9.73823 41.4615 9.73688 41.4097 9.74676 41.3595L13.0253 24.4905C13.0408 24.4116 13.0831 24.3406 13.1451 24.2894C13.2071 24.2383 13.2849 24.2102 13.3653 24.21H20.4323C22.6533 24.21 24.3063 24.813 25.3458 26.0025C26.3898 27.1975 26.7128 28.8695 26.3043 30.97C26.1378 31.8255 25.8518 32.62 25.4543 33.332C25.0406 34.0644 24.5126 34.7261 23.8903 35.292C23.1248 36.008 22.2583 36.528 21.3168 36.8335C20.3908 37.1355 19.2008 37.2885 17.7818 37.2885H14.9198L14.1028 41.4925C14.0873 41.5716 14.0449 41.6429 13.9827 41.6941C13.9205 41.7454 13.8424 41.7734 13.7618 41.7735H10.0868Z"
    fill="black"/>
  <path
    d="M17.0951 27.913H19.0406C20.5941 27.913 21.1336 28.2541 21.3171 28.4576C21.6206 28.7946 21.6786 29.506 21.4826 30.5135C21.2631 31.642 20.8561 32.4425 20.2726 32.8915C19.6756 33.3515 18.7036 33.5845 17.3861 33.5845H15.9931L17.0951 27.913ZM20.4321 23.8631H13.3656C13.2045 23.8631 13.0484 23.9191 12.9239 24.0215C12.7995 24.1239 12.7146 24.2664 12.6836 24.4245L9.40513 41.294C9.38577 41.3945 9.38884 41.4981 9.41411 41.5972C9.43939 41.6964 9.48626 41.7887 9.55136 41.8677C9.61646 41.9466 9.6982 42.0103 9.79073 42.054C9.88326 42.0977 9.9843 42.1204 10.0866 42.1205H13.7616C13.9228 42.1204 14.0788 42.0643 14.2032 41.9617C14.3275 41.8592 14.4123 41.7167 14.4431 41.5585L15.2056 37.6356H17.7811C19.2371 37.6356 20.4631 37.4766 21.4246 37.1636C22.4131 36.8426 23.3226 36.298 24.1276 35.545C24.7759 34.9548 25.326 34.265 25.7571 33.5015C26.1726 32.758 26.4716 31.928 26.6446 31.036C27.0746 28.8245 26.7251 27.054 25.6066 25.774C24.4986 24.5055 22.7576 23.8625 20.4321 23.8625V23.8631ZM15.1506 34.2785H17.3861C18.8678 34.2789 19.9711 33.9997 20.6961 33.4411C21.4211 32.8831 21.9108 31.9512 22.1651 30.6455C22.4078 29.3915 22.297 28.5069 21.8326 27.9916C21.3676 27.4762 20.437 27.2185 19.0406 27.2185H16.5226L15.1506 34.2785ZM20.4326 24.556C22.5586 24.556 24.1091 25.114 25.0841 26.23C26.0591 27.346 26.3525 28.9037 25.9641 30.903C25.8035 31.727 25.5326 32.48 25.1516 33.162C24.77 33.8447 24.2715 34.4692 23.6561 35.0355C22.9228 35.7222 22.1075 36.2114 21.2101 36.503C20.3131 36.795 19.1703 36.9409 17.7816 36.9405H14.6336L13.7621 41.4255H10.0871L13.3661 24.556H20.4326Z"
    fill="white"/>
  <path
    d="M34.729 37.2886C34.6778 37.2887 34.6272 37.2774 34.5808 37.2555C34.5345 37.2337 34.4935 37.2019 34.4609 37.1624C34.4283 37.1228 34.4049 37.0766 34.3923 37.0269C34.3797 36.9772 34.3782 36.9254 34.388 36.8751L35.838 29.4111C35.9765 28.7011 35.9425 28.1921 35.743 27.9761C35.6205 27.8446 35.2535 27.6241 34.168 27.6241H31.54L29.717 37.0081C29.7014 37.0871 29.6588 37.1582 29.5965 37.2093C29.5342 37.2604 29.4561 37.2882 29.3755 37.2881H25.7305C25.6793 37.2881 25.6288 37.2768 25.5824 37.2551C25.5361 37.2333 25.4951 37.2015 25.4625 37.162C25.4299 37.1226 25.4064 37.0764 25.3937 37.0268C25.381 36.9772 25.3794 36.9254 25.389 36.8751L28.668 20.0056C28.6836 19.9266 28.7261 19.8554 28.7883 19.8042C28.8505 19.7531 28.9285 19.7251 29.009 19.7251H32.654C32.7052 19.7251 32.7558 19.7363 32.8022 19.7581C32.8485 19.7799 32.8894 19.8117 32.9221 19.8512C32.9547 19.8906 32.9782 19.9368 32.9909 19.9864C33.0036 20.036 33.0052 20.0878 32.9955 20.1381L32.2045 24.2101H35.031C37.1845 24.2101 38.6445 24.5891 39.495 25.3706C40.3615 26.1671 40.6325 27.4406 40.299 29.1571L38.7735 37.0081C38.7579 37.087 38.7154 37.1581 38.6532 37.2092C38.591 37.2602 38.513 37.2881 38.4325 37.2881L34.729 37.2886Z"
    fill="black"/>
  <path
    d="M32.6548 19.3774H29.0093C28.8481 19.3775 28.6919 19.4336 28.5675 19.5361C28.443 19.6386 28.3581 19.7812 28.3273 19.9394L25.0488 36.8084C25.0293 36.909 25.0323 37.0125 25.0576 37.1118C25.0828 37.211 25.1297 37.3034 25.1948 37.3824C25.2599 37.4614 25.3417 37.5251 25.4342 37.5688C25.5268 37.6126 25.6279 37.6353 25.7303 37.6354H29.3758C29.537 37.6354 29.6932 37.5793 29.8176 37.4768C29.942 37.3743 30.0269 37.2317 30.0578 37.0734L31.8263 27.9709H34.1673C35.2513 27.9709 35.4793 28.2024 35.4878 28.2129C35.5538 28.2829 35.6403 28.6104 35.4973 29.3449L34.0473 36.8084C34.0278 36.909 34.0308 37.0126 34.0561 37.1119C34.0814 37.2111 34.1283 37.3036 34.1934 37.3826C34.2586 37.4616 34.3404 37.5253 34.4331 37.569C34.5257 37.6127 34.6269 37.6354 34.7293 37.6354H38.4333C38.5944 37.6353 38.7505 37.5792 38.8748 37.4766C38.9991 37.3741 39.0839 37.2316 39.1148 37.0734L40.6403 29.2234C40.9978 27.3804 40.6918 25.9984 39.7303 25.1149C38.8123 24.2719 37.2753 23.8624 35.0313 23.8624H32.6263L33.3368 20.2049C33.3563 20.1043 33.3534 20.0007 33.3281 19.9013C33.3029 19.802 33.256 19.7095 33.1909 19.6304C33.1257 19.5513 33.0438 19.4876 32.9511 19.4439C32.8585 19.4002 32.7573 19.3775 32.6548 19.3774ZM32.6548 20.0724L31.7833 24.5564H35.0313C37.075 24.5564 38.4844 24.9131 39.2598 25.6264C40.0358 26.3391 40.2688 27.4941 39.9588 29.0914L38.4328 36.9409H34.7293L36.1798 29.4769C36.3448 28.6279 36.284 28.0489 35.9973 27.7399C35.7106 27.4313 35.1009 27.2769 34.1683 27.2769H31.2538L29.3758 36.9404H25.7298L29.0088 20.0709H32.6548V20.0724Z"
    fill="white"/>
  <path
    d="M46.0684 33.932C47.4649 33.932 48.5074 33.6745 49.1674 33.167C49.8194 32.664 50.2704 31.7935 50.5069 30.5795C50.7269 29.4445 50.6434 28.6525 50.2569 28.2245C49.8629 27.7875 49.0104 27.566 47.7234 27.566H45.4919L44.2544 33.932H46.0684ZM38.7704 41.7735C38.7191 41.7735 38.6684 41.7622 38.622 41.7404C38.5756 41.7185 38.5346 41.6867 38.502 41.6471C38.4694 41.6075 38.446 41.5612 38.4334 41.5114C38.4209 41.4617 38.4195 41.4098 38.4294 41.3595L41.7079 24.4905C41.7234 24.4114 41.7659 24.3403 41.8281 24.2891C41.8903 24.2379 41.9683 24.21 42.0489 24.21H49.1154C51.3364 24.21 52.9894 24.813 54.0284 26.0025C55.0729 27.1975 55.3954 28.8695 54.9869 30.97C54.8306 31.7973 54.5438 32.5946 54.1374 33.332C53.7237 34.0644 53.1957 34.7261 52.5734 35.292C51.8084 36.008 50.9409 36.528 49.9999 36.8335C49.0739 37.1355 47.8839 37.2885 46.4644 37.2885H43.6029L42.7864 41.4925C42.7709 41.5717 42.7284 41.643 42.6661 41.6943C42.6038 41.7456 42.5256 41.7736 42.4449 41.7735H38.7704Z"
    fill="black"/>
  <path
    d="M45.7777 27.913H47.7232C49.2767 27.913 49.8162 28.2541 49.9992 28.4576C50.3042 28.7946 50.3612 29.506 50.1657 30.5135C49.9457 31.642 49.5388 32.4425 48.9553 32.8915C48.3578 33.3515 47.3857 33.5845 46.0687 33.5845H44.6757L45.7777 27.913ZM49.1147 23.8631H42.0482C41.8872 23.8632 41.7312 23.9192 41.6069 24.0217C41.4826 24.1241 41.3977 24.2665 41.3667 24.4245L38.0878 41.294C38.0684 41.3946 38.0715 41.4981 38.0968 41.5973C38.1221 41.6965 38.169 41.7889 38.2341 41.8679C38.2993 41.9469 38.3811 42.0104 38.4737 42.0541C38.5663 42.0978 38.6674 42.1205 38.7697 42.1205H42.4447C42.6059 42.1204 42.762 42.0643 42.8863 41.9617C43.0106 41.8592 43.0954 41.7167 43.1262 41.5585L43.8887 37.6356H46.4637C47.9192 37.6356 49.1457 37.4766 50.1067 37.1636C51.0957 36.8426 52.0053 36.298 52.8108 35.5445C53.4588 34.9544 54.0087 34.2648 54.4397 33.5015C54.8557 32.758 55.1537 31.928 55.3272 31.036C55.7572 28.8245 55.4082 27.054 54.2892 25.774C53.1812 24.5055 51.4407 23.8625 49.1142 23.8625L49.1147 23.8631ZM43.8332 34.2785H46.0682C47.5499 34.2789 48.6536 33.9997 49.3793 33.4411C50.1043 32.8831 50.5936 31.9512 50.8472 30.6455C51.0909 29.3915 50.9801 28.5069 50.5147 27.9916C50.0494 27.4762 49.1189 27.2185 47.7232 27.2185H45.2057L43.8332 34.2785ZM49.1147 24.556C51.2407 24.556 52.7912 25.114 53.7662 26.23C54.7412 27.346 55.0344 28.9037 54.6457 30.903C54.4857 31.727 54.2151 32.48 53.8337 33.162C53.4524 33.8447 52.9538 34.4692 52.3378 35.0355C51.6044 35.7222 50.7891 36.2114 49.8917 36.503C48.9951 36.795 47.8524 36.9409 46.4637 36.9405H43.3163L42.4437 41.4255H38.7687L42.0477 24.556H49.1147Z"
    fill="white"/>
  <defs>
    <radialGradient cx="0" cy="0" gradientTransform="translate(19.213 21.0845) scale(42.0207)"
                    gradientUnits="userSpaceOnUse" id="paint0_radial_2313_764"
                    r="1">
      <stop stop-color="#AEB2D5"/>
      <stop offset="0.3" stop-color="#AEB2D5"/>
      <stop offset="0.75" stop-color="#484C89"/>
      <stop offset="1" stop-color="#484C89"/>
    </radialGradient>
  </defs>
</svg>
