<svg fill="none" height="64" viewBox="0 0 64 64" width="64" xmlns="http://www.w3.org/2000/svg">
  <g clip-path="url(#clip0_2383_800)">
    <path
      d="M36.0758 0.26066C29.7982 -0.545494 23.4226 0.528038 17.755 3.3455C12.0876 6.16296 7.38288 10.5978 4.23592 16.0891C1.08897 21.5806 -0.358884 27.8818 0.0754555 34.196C0.509794 40.5102 2.80682 46.554 6.67604 51.5626C10.5453 56.5714 15.8129 60.3202 21.8128 62.3352C27.8126 64.35 34.2752 64.5404 40.3834 62.8824C46.4914 61.2242 51.9708 57.792 56.1282 53.0198C60.2856 48.2474 62.9344 42.3496 63.7398 36.0718C64.8196 27.6546 62.5118 19.1531 57.3238 12.4374C52.136 5.7216 44.493 1.34156 36.0758 0.26066Z"
      fill="#FF6C37"/>
    <path
      d="M23.1348 34.0224C23.1472 34.0478 23.1682 34.0681 23.1938 34.0797C23.2194 34.0915 23.2484 34.0938 23.2756 34.0864L28.3956 32.9824L26.242 30.8L23.1732 33.8689C23.149 33.8853 23.1318 33.9099 23.1246 33.9383C23.1176 33.9667 23.1212 33.9966 23.1348 34.0224Z"
      fill="white"/>
    <path
      d="M47.1095 12.0384C46.3961 12.0391 45.6917 12.1998 45.0485 12.5088C44.4055 12.8177 43.8397 13.267 43.3931 13.8235C42.9467 14.38 42.6305 15.0296 42.4683 15.7244C42.3061 16.4192 42.3016 17.1416 42.4554 17.8383C42.6092 18.5351 42.9175 19.1884 43.3573 19.7503C43.7971 20.3121 44.3573 20.7683 44.9967 21.0849C45.6361 21.4017 46.3383 21.5709 47.0517 21.5803C47.7651 21.5897 48.4716 21.4389 49.119 21.1391L45.8742 17.8944C45.837 17.8572 45.8075 17.8131 45.7873 17.7645C45.7673 17.7159 45.7569 17.6638 45.7569 17.6112C45.7569 17.5585 45.7673 17.5064 45.7873 17.4578C45.8075 17.4092 45.837 17.3651 45.8742 17.328L50.1143 13.0912C49.2629 12.4065 48.2021 12.0349 47.1095 12.0384Z"
      fill="white"/>
    <path
      d="M50.6966 13.6416L46.7222 17.6L49.839 20.7168C50.0686 20.5556 50.2828 20.3734 50.479 20.1728C51.3332 19.3128 51.8304 18.1614 51.8708 16.95C51.9112 15.7385 51.4916 14.5566 50.6966 13.6416Z"
      fill="white"/>
    <path
      d="M42.7445 20.9471H42.6741C42.5915 20.9465 42.5089 20.9539 42.4277 20.9695H42.3989C42.3097 20.9887 42.2221 21.0143 42.1365 21.0463L42.0693 21.0783C42.0049 21.1051 41.9429 21.1373 41.8837 21.1743L41.8133 21.2191C41.7359 21.2725 41.6631 21.3325 41.5957 21.3983L29.8101 33.1871L31.2693 34.6463L43.7493 23.6927C43.8199 23.6309 43.8841 23.5623 43.9413 23.4879L43.9957 23.4175C44.0383 23.3551 44.0769 23.2899 44.1109 23.2223C44.1301 23.1839 44.1461 23.1455 44.1621 23.1071C44.1837 23.0561 44.2017 23.0037 44.2165 22.9503C44.2165 22.9119 44.2389 22.8735 44.2485 22.8351C44.2643 22.7559 44.2749 22.6757 44.2805 22.5951V22.4895C44.2805 22.4319 44.2805 22.3743 44.2805 22.3167C44.2805 22.2591 44.2805 22.2399 44.2645 22.2015C44.2053 21.8995 44.0579 21.6219 43.8409 21.4037C43.6239 21.1855 43.3469 21.0367 43.0453 20.9759H42.9845C42.9053 20.9607 42.8251 20.9511 42.7445 20.9471Z"
      fill="white"/>
    <path
      d="M26.7925 30.2336L29.2117 32.64L41.0293 20.8224C41.4139 20.4464 41.9149 20.2128 42.4501 20.16C40.3605 18.56 38.0821 18.9792 26.7925 30.2336Z"
      fill="white"/>
    <path
      d="M44.415 24.1536L44.271 24.2944L31.791 35.2448L33.9126 37.3632C39.1734 32.3872 43.8422 27.648 44.415 24.1536Z"
      fill="white"/>
    <path
      d="M13.2855 49.8078C13.292 49.8304 13.3053 49.8506 13.3236 49.8654C13.342 49.8804 13.3644 49.8892 13.3879 49.891L18.8279 50.2654L15.7783 47.2158L13.3111 49.6798C13.2951 49.6964 13.2842 49.7174 13.2797 49.74C13.2752 49.7628 13.2772 49.7862 13.2855 49.8078Z"
      fill="white"/>
    <path
      d="M16.3477 46.6496L19.5636 49.8656C19.6018 49.9064 19.6529 49.9328 19.7083 49.9404C19.7636 49.948 19.8199 49.9362 19.8676 49.9072C19.9175 49.8824 19.9572 49.8412 19.98 49.7904C20.0028 49.7396 20.0072 49.6824 19.9924 49.6288L19.4516 47.3184C19.4166 47.1686 19.4325 47.0114 19.4969 46.8718C19.5612 46.7322 19.6703 46.618 19.8068 46.5472C25.4452 43.7216 29.9924 40.8128 33.33 37.9072L31.09 35.6672L26.29 36.7008L16.3477 46.6496Z"
      fill="white"/>
    <path
      d="M30.4024 34.9888L29.1992 33.7856L27.5352 35.4464C27.5232 35.4608 27.5166 35.479 27.5166 35.4976C27.5166 35.5164 27.5232 35.5344 27.5352 35.5488C27.543 35.5658 27.5566 35.5796 27.5738 35.5872C27.5908 35.5948 27.61 35.596 27.628 35.5904L30.4024 34.9888Z"
      fill="white"/>
    <path
      d="M50.8086 16.2208C50.7922 16.1704 50.7652 16.1242 50.7294 16.0851C50.6938 16.046 50.65 16.0151 50.6012 15.9943C50.5526 15.9735 50.5 15.9634 50.447 15.9647C50.394 15.9659 50.342 15.9785 50.2942 16.0016C50.2466 16.0246 50.2044 16.0576 50.1704 16.0983C50.1366 16.139 50.1118 16.1865 50.0978 16.2375C50.0838 16.2886 50.0808 16.3421 50.0892 16.3944C50.0976 16.4467 50.117 16.4966 50.1462 16.5408C50.2418 16.7332 50.2798 16.9492 50.2554 17.1627C50.231 17.3762 50.1452 17.5781 50.0086 17.744C49.9638 17.7982 49.9352 17.864 49.9264 17.9338C49.9174 18.0036 49.9286 18.0745 49.9584 18.1382C49.9882 18.202 50.0356 18.2559 50.095 18.2937C50.1542 18.3316 50.2232 18.3518 50.2934 18.352C50.3478 18.3514 50.4014 18.3391 50.4506 18.3159C50.4998 18.2927 50.5432 18.2592 50.5782 18.2176C50.8048 17.9422 50.947 17.6073 50.9878 17.2531C51.0286 16.899 50.9664 16.5405 50.8086 16.2208Z"
      fill="#FF6C37"/>
  </g>
  <defs>
    <clipPath id="clip0_2383_800">
      <rect fill="white" height="64" width="64"/>
    </clipPath>
  </defs>
</svg>
