<svg fill="none" height="64" viewBox="0 0 64 64" width="64" xmlns="http://www.w3.org/2000/svg">
  <g clip-path="url(#clip0_2382_748)">
    <mask height="64" id="mask0_2382_748" maskUnits="userSpaceOnUse" style="mask-type:luminance" width="64" x="0" y="0">
      <path d="M64 0H0V64H64V0Z" fill="white"/>
    </mask>
    <g mask="url(#mask0_2382_748)">
      <path
        d="M3.6883 40.4669C2.37579 36.3789 1.99879 32.0624 2.7548 27.6213C3.0828 25.7794 3.5888 24.0119 4.14328 22.2209C4.14328 22.2209 7.62579 10.7894 19.4108 5.56493C19.4108 5.56493 23.4733 3.41995 29.5807 3.26995C29.5807 3.26995 28.7487 2.46144 28.2178 2.10794C25.3408 0.18994 21.0518 -0.44106 18.4523 2.26044C17.6688 3.06693 17.0123 3.95144 16.2823 4.75845C15.4483 5.66645 14.4383 6.42445 13.2783 6.85195C12.2683 7.23093 11.2583 7.15493 10.2253 7.33245C9.16528 7.50845 8.0788 7.88744 7.22179 8.56893C6.28779 9.32693 5.90928 10.3345 5.80928 11.4964C5.70779 12.4049 5.73328 13.3384 5.6823 14.2464C5.55579 16.9224 4.6983 17.6785 2.7803 19.1684C1.9733 19.7739 1.29179 20.5804 0.785795 21.4399C-0.727704 24.1139 1.69579 26.8891 1.82079 29.5904C1.84679 30.1453 1.79579 30.7 1.59479 31.2309C1.3913 31.8109 0.989296 32.1899 0.660795 32.6685C0.205795 33.3 -0.0967051 34.0573 0.0307949 34.8384C0.155795 35.6219 0.559795 36.3539 0.938795 37.036C1.6713 38.2469 2.5793 39.3309 3.5388 40.3659C3.5888 40.3659 3.63779 40.416 3.6883 40.4669Z"
        fill="#E32186"/>
      <path
        d="M51.8407 50.155C57.6452 47.6315 60.1183 43.2665 60.1183 43.2665C65.5442 35.8721 63.7023 28.075 63.7023 28.075C60.2452 35.5945 57.0887 37.6649 57.0887 37.6649C65.5948 24.7175 57.1399 16.8955 57.1399 16.8955C60.5967 24.2645 56.0047 33.247 56.0047 33.247C52.1434 41.3739 46.6668 44.2766 46.6668 44.2766C52.7743 45.4115 57.2668 41.2979 57.2668 41.2979C48.5082 50.7609 39.0202 50.3081 39.0202 50.3081C43.0087 54.775 48.9892 54.3961 48.9892 54.3961C41.1668 56.2374 33.8234 53.6379 27.7919 48.6161C26.6495 47.6793 25.5705 46.6681 24.5618 45.5889C24.5618 45.5889 23.6533 44.63 23.4753 44.378L23.4503 44.3529C23.3253 49.0206 28.1943 53.3606 28.1943 53.3606C22.0868 50.8374 19.2863 45.3606 19.2863 45.3606C19.2863 45.3606 15.1728 38.3454 18.1513 30.347C21.1278 22.347 30.1378 20.63 30.1378 20.63C37.5834 24.24 43.8919 25.3745 43.8919 25.3745C57.1908 27.595 56.4348 21.0855 56.4348 21.0855C56.5599 15.482 48.1068 9.52702 48.1068 9.52702C33.0402 -1.65299 19.4133 5.564 19.4133 5.564C7.6283 10.7885 4.14579 22.22 4.14579 22.22C3.59078 24.011 3.08579 25.7785 2.75728 27.6201C1.47029 35.1166 3.41328 42.2065 7.6283 48.5169C14.1888 58.3081 24.8393 61.6889 24.8393 61.6889C40.6108 67.0385 51.3863 59.1654 51.3863 59.1654C61.3042 52.3505 63.2983 44.4779 63.2983 44.4779C55.2983 50.7379 51.8407 50.155 51.8407 50.155ZM39.5263 13.3365C39.7055 13.3358 39.8828 13.3707 40.0484 13.439C40.2143 13.5073 40.3647 13.6077 40.4911 13.7345C40.6178 13.8613 40.718 14.0119 40.786 14.1776C40.854 14.3433 40.8887 14.5209 40.8879 14.7C40.8887 14.879 40.854 15.0564 40.7858 15.2219C40.7175 15.3874 40.6172 15.5378 40.4908 15.6643C40.3642 15.7909 40.2138 15.8911 40.0482 15.9592C39.8826 16.0273 39.7052 16.0619 39.5263 16.061C39.3471 16.0619 39.1698 16.0274 39.0039 15.9593C38.8383 15.8913 38.6876 15.7911 38.561 15.6646C38.4343 15.5381 38.3338 15.3877 38.2655 15.2221C38.197 15.0566 38.1623 14.8791 38.1628 14.7C38.162 14.5207 38.1967 14.343 38.2647 14.1772C38.333 14.0114 38.4335 13.8607 38.5602 13.7339C38.6871 13.6072 38.8378 13.5068 39.0034 13.4385C39.1692 13.3703 39.3471 13.3357 39.5263 13.3365Z"
        fill="url(#paint0_linear_2382_748)"/>
      <path
        d="M56.4053 21.0607C56.5304 15.4572 48.0773 9.50217 48.0773 9.50217C33.0107 -1.65232 19.3838 5.56467 19.3838 5.56467C7.59877 10.7892 4.11627 22.2207 4.11627 22.2207C3.43477 24.1642 2.82928 27.1428 2.82928 27.1428C2.09678 30.8772 2.42478 34.3342 2.42478 34.3342C2.72779 37.6406 3.45979 39.8617 3.45979 39.8617C4.21779 42.2326 4.56979 42.9652 4.56979 42.9652C4.54579 42.8886 4.41928 42.3342 4.41928 42.3342C4.41928 42.3342 3.35827 37.2366 4.34277 32.3401C4.34277 32.3401 5.20027 27.2428 8.68477 23.3072C8.68477 23.3072 14.3373 15.2562 24.8608 18.4107C24.8608 18.4107 27.1323 19.2192 27.9133 19.6217C28.6968 20.0007 30.0584 20.5807 30.0584 20.5807C37.5032 24.1902 43.8117 25.3247 43.8117 25.3247C57.1619 27.5708 56.4053 21.0607 56.4053 21.0607ZM39.5224 16.0882C39.3432 16.0891 39.1656 16.0545 38.9997 15.9865C38.8341 15.9184 38.6835 15.8182 38.5568 15.6916C38.4301 15.565 38.3296 15.4146 38.2613 15.2489C38.1931 15.0833 38.1581 14.9058 38.1587 14.7267C38.1579 14.5474 38.1925 14.3697 38.2608 14.2039C38.3291 14.0381 38.4293 13.8874 38.5563 13.7606C38.6829 13.6338 38.8336 13.5334 38.9995 13.4652C39.1653 13.397 39.3429 13.3623 39.5224 13.3632C39.7013 13.3625 39.8789 13.3973 40.0445 13.4657C40.2101 13.534 40.3605 13.6344 40.4872 13.7612C40.6139 13.888 40.7139 14.0385 40.7821 14.2042C40.8501 14.37 40.8848 14.5475 40.8837 14.7267C40.8845 14.9057 40.8501 15.0832 40.7819 15.2487C40.7139 15.4143 40.6136 15.5647 40.4869 15.6913C40.3603 15.8179 40.2099 15.9182 40.0443 15.9863C39.8787 16.0544 39.7013 16.089 39.5224 16.0882Z"
        fill="url(#paint1_radial_2382_748)"/>
      <path
        d="M30.8931 10.916L22.2876 8.24003C22.2366 8.24003 21.9851 8.11305 21.5296 8.24003C21.5296 8.24003 16.4571 9.52755 17.3406 12.3025C17.3406 12.3025 17.8716 14.045 19.3091 15.7345L28.7721 15.281L30.8931 10.916Z"
        fill="url(#paint2_linear_2382_748)"/>
    </g>
  </g>
  <defs>
    <linearGradient gradientUnits="userSpaceOnUse" id="paint0_linear_2382_748" x1="9.71904" x2="41.1212" y1="58.7377"
                    y2="25.3302">
      <stop stop-color="#DF1C84"/>
      <stop offset="0.401" stop-color="#DE1C85"/>
      <stop offset="0.77" stop-color="#932C86"/>
      <stop offset="1" stop-color="#5C2F87"/>
    </linearGradient>
    <radialGradient cx="0" cy="0" gradientTransform="matrix(30.6819 0.072948 -0.0607899 25.6558 44.2832 16.4678)"
                    gradientUnits="userSpaceOnUse"
                    id="paint1_radial_2382_748"
                    r="1">
      <stop stop-color="#DF1C84"/>
      <stop offset="0.139" stop-color="#DE1E85"/>
      <stop offset="0.285" stop-color="#D62085"/>
      <stop offset="0.434" stop-color="#C82286"/>
      <stop offset="0.586" stop-color="#B72786"/>
      <stop offset="0.739" stop-color="#9C2A86"/>
      <stop offset="0.891" stop-color="#7C2E87"/>
      <stop offset="1" stop-color="#5C2F87"/>
    </radialGradient>
    <linearGradient gradientUnits="userSpaceOnUse" id="paint2_linear_2382_748" x1="17.218" x2="30.8854" y1="11.9592"
                    y2="11.9592">
      <stop stop-color="#DF1C84"/>
      <stop offset="0.238" stop-color="#D91E85"/>
      <stop offset="0.658" stop-color="#C72085"/>
      <stop offset="0.999" stop-color="#B42184"/>
    </linearGradient>
    <clipPath id="clip0_2382_748">
      <rect fill="white" height="64" width="64"/>
    </clipPath>
  </defs>
</svg>
