<svg fill="none" height="64" viewBox="0 0 64 64" width="64" xmlns="http://www.w3.org/2000/svg">
  <path clip-rule="evenodd"
        d="M0.609375 28.078C0.609375 28.4295 0.712875 28.6615 0.770875 28.887C1.14888 30.3535 1.96137 31.612 2.92537 32.76C4.29838 34.396 5.97987 35.713 7.70237 36.9515C9.19637 38.0255 10.7209 39.0755 12.2209 40.1415C12.4784 40.3245 12.7219 40.535 13.0014 40.7595C12.7609 40.8895 12.5609 41.004 12.3529 41.1095C10.3734 42.1135 8.46888 43.239 6.71338 44.6025C5.65538 45.4245 4.63238 46.298 3.90988 47.4395C2.74738 49.2755 2.33588 51.2315 3.20238 53.32C3.45538 53.93 3.84138 54.457 4.38588 54.8465C4.56238 54.9725 4.76038 55.0975 4.96688 55.1465C5.49588 55.271 6.03487 55.3525 6.57037 55.451L8.08687 55.45C9.76388 55.3005 11.2904 54.726 12.6699 53.774C14.8259 52.286 16.2784 50.291 16.9029 47.7305C17.3569 45.8695 17.3754 44.0065 16.8404 42.154C16.789 41.9824 16.7299 41.8133 16.6634 41.647C16.5984 41.4805 16.5219 41.3185 16.4319 41.111L19.8699 39.134L19.9214 39.178C19.8589 39.3825 19.7924 39.5865 19.7359 39.793C19.3274 41.285 19.0559 42.803 19.1534 44.3515C19.2574 46.0015 19.7179 47.546 20.6839 48.9245C21.4649 50.0395 23.3259 50.081 24.1559 48.962C24.4504 48.5645 24.7359 48.149 24.9504 47.7055C25.5109 46.548 26.0299 45.37 26.5654 44.2L26.6589 43.986C26.6204 44.54 26.5754 45.0265 26.5549 45.5135C26.5229 46.274 26.5674 47.03 26.8274 47.7535C27.0499 48.3725 27.4284 48.835 28.1374 48.9165C28.6224 48.972 29.0089 48.75 29.3654 48.4685C29.9175 48.0319 30.3753 47.4877 30.7109 46.869C31.6614 45.1235 32.6374 43.3885 33.4989 41.599C34.4309 39.6635 35.2459 37.6715 36.1114 35.703L36.2544 35.354C36.4589 36.1575 36.6014 36.9445 36.8639 37.6895C37.1689 38.554 37.5464 39.398 37.9574 40.2185C38.1519 40.606 38.1294 40.8575 37.8599 41.1825C36.7319 42.5425 35.6234 43.919 34.5139 45.294C34.2684 45.5975 34.0239 45.9065 33.8194 46.238C33.6953 46.4473 33.6137 46.6791 33.5794 46.92C33.545 47.1418 33.5977 47.3683 33.7267 47.552C33.8556 47.7357 34.0506 47.8624 34.2709 47.9055C34.7155 48.001 35.1712 48.0335 35.6249 48.002C37.1734 47.888 38.5794 47.3445 39.8224 46.4235C41.4329 45.2305 41.9499 43.6025 41.5599 41.673C41.4544 41.1495 41.2679 40.6405 41.0864 40.136C41.0049 39.9085 40.9994 39.749 41.1479 39.537C42.4354 37.6985 43.5354 35.748 44.5584 33.7525C44.5989 33.674 44.6404 33.5955 44.7114 33.5115C45.0429 35.2365 45.5419 36.899 46.4359 38.4075C45.9799 38.847 45.5284 39.2455 45.1199 39.6845C44.2204 40.6515 43.4404 41.7015 43.0334 42.982C42.8584 43.534 42.7239 44.095 42.8019 44.6845C42.9229 45.6 43.6729 46.195 44.5734 45.9865C46.5004 45.5405 48.1639 44.6325 49.3794 43.024C50.1974 41.941 50.2719 40.733 49.9294 39.4675C49.8354 39.1235 49.7239 38.785 49.6039 38.3905C50.0794 38.243 50.5429 38.066 51.0224 37.9565C53.5119 37.3885 55.9744 37.4875 58.3734 38.3865C59.7739 38.9115 60.9054 39.79 61.5764 41.172C62.3959 42.8615 61.9429 44.4645 60.3504 45.5325C60.2019 45.632 60.0319 45.7105 59.9089 45.835C59.8695 45.8807 59.8401 45.9341 59.8224 45.9917C59.8048 46.0494 59.7993 46.1101 59.8064 46.17C59.8169 46.2315 59.9794 46.3085 60.0729 46.3075C60.5964 46.3035 61.0209 46.029 61.4284 45.747C62.4494 45.0405 63.1944 44.09 63.3549 42.8385L63.3864 42.7445L63.3479 41.9295C63.3324 41.8825 63.3594 41.836 63.3559 41.8005C63.1389 39.978 62.1654 38.5645 60.7494 37.4565C59.1094 36.174 57.1729 35.646 55.1249 35.5625C53.4639 35.491 51.805 35.7463 50.2424 36.314C49.7939 36.4765 49.3494 36.669 48.8984 36.8505C48.8379 36.741 48.7729 36.636 48.7194 36.5275C48.2564 35.5795 47.6954 34.6735 47.5714 33.5865C47.4834 32.8145 47.3754 32.0435 47.5589 31.28C47.7354 30.5455 47.9654 29.8235 48.1819 29.099C48.2934 28.726 48.2149 28.517 47.8589 28.349C47.7345 28.2881 47.6022 28.2446 47.4659 28.22C46.5909 28.093 45.7279 28.1655 44.8804 28.412C44.5804 28.4995 44.3624 28.6675 44.2959 28.9995C44.2579 29.19 44.1804 29.3725 44.1264 29.5605C43.9049 30.342 43.7479 31.1385 43.3899 31.883C42.4929 33.7505 41.4689 35.5475 40.4209 37.3315C40.3074 37.524 40.1879 37.713 40.0449 37.9465C39.6769 37.1765 39.2844 36.4855 39.1654 35.6755C39.0309 34.7595 38.9249 33.845 39.1529 32.936C39.3224 32.258 39.5439 31.5925 39.7479 30.9235C39.8444 30.6055 39.7999 30.4385 39.5119 30.271C39.3664 30.1865 39.2019 30.1115 39.0379 30.087C38.1407 29.9503 37.2239 30.0253 36.3609 30.306C36.0894 30.394 35.9469 30.5695 35.8639 30.8495C35.6199 31.6755 35.4119 32.5215 35.0694 33.307C33.6824 36.487 32.2554 39.6505 30.8299 42.8135C30.5324 43.474 30.1839 44.1115 29.8484 44.7545C29.7634 44.9175 29.6394 45.061 29.5334 45.214C29.4484 45.1135 29.4154 45.0445 29.4159 44.9755C29.4184 44.569 29.3699 44.1505 29.4474 43.7575C29.6853 42.5689 29.9484 41.3855 30.2364 40.208C30.4714 39.235 30.7449 38.271 31.0054 37.3045C31.0929 36.981 31.0944 36.6785 30.8619 36.4065C30.4714 35.951 29.6554 35.851 29.1714 36.202L28.9574 36.323L28.9989 35.978C29.1009 35.2385 29.1214 34.5015 28.9184 33.773C28.6654 32.865 28.0174 32.3425 27.0754 32.3715C26.6364 32.385 26.1754 32.46 25.7689 32.62C24.0594 33.29 22.7449 34.4765 21.6259 35.904C21.5221 36.0365 21.3935 36.1475 21.2474 36.231C19.8009 37.033 18.3499 37.825 16.8994 38.62L15.2849 39.5045C14.8519 39.0915 14.4584 38.663 14.0119 38.2995C12.6484 37.1875 11.2629 36.103 9.88988 35.0035C8.67288 34.029 7.49388 33.014 6.59188 31.7235C5.92088 30.7635 5.48838 29.713 5.44688 28.526C5.39438 27.0135 5.82338 25.6315 6.59338 24.345C7.57838 22.699 8.92188 21.378 10.3989 20.1815C11.9614 18.9165 13.6514 17.8425 15.4029 16.862C17.8534 15.4905 20.3739 14.2765 23.0764 13.475C25.8474 12.653 28.6589 12.1825 31.5589 12.5105C32.6989 12.6395 33.8059 12.9005 34.8224 13.458C35.6009 13.8845 36.2394 14.443 36.5364 15.316C36.8294 16.175 36.8204 17.0455 36.6174 17.918C36.2049 19.685 35.2374 21.1415 34.0199 22.443C32.0229 24.5765 29.5869 26.029 26.8444 26.9885C25.2675 27.5408 23.6269 27.8908 21.9619 28.03C20.5974 28.1445 19.2614 28.0235 17.9694 27.549C17.1139 27.2345 16.3689 26.7535 15.7699 26.0555C15.6629 25.9305 15.5259 25.795 15.3264 25.912C15.1309 26.027 15.0964 26.213 15.1619 26.4015C15.2714 26.7145 15.3724 27.0405 15.5429 27.3205C15.9714 28.023 16.5964 28.5325 17.2844 28.9695C18.6059 29.81 20.0829 30.0925 21.6144 30.158C23.9384 30.2585 26.2059 29.9115 28.4414 29.288C31.6329 28.398 34.4079 26.826 36.6334 24.346C38.4864 22.281 39.8099 19.9505 40.0934 17.1365C40.2319 15.763 40.0844 14.4175 39.4414 13.1645C38.7439 11.807 37.6349 10.7975 36.3089 10.102C34.3779 9.0895 32.2939 8.5 30.1429 8.5H27.9879C25.3829 8.5 22.8644 9.2465 20.4164 10.137C18.5634 10.8115 16.7464 11.6075 14.9824 12.4885C11.1409 14.408 7.56337 16.7225 4.62488 19.905C3.16088 21.4905 1.92138 23.24 1.20838 25.3C0.993547 25.9151 0.80817 26.5402 0.652875 27.173M14.5724 45.1795C14.4059 47.409 13.3954 49.2165 11.7439 50.6805C10.8149 51.5035 9.74938 52.0895 8.50838 52.2955C8.05838 52.37 7.59788 52.388 7.16138 52.2015C6.53888 51.9355 6.39937 51.383 6.38737 50.7945C6.36887 49.8565 6.69737 49.0085 7.14787 48.2015C7.73587 47.1495 8.59788 46.3475 9.51838 45.5985C10.9684 44.418 12.5414 43.419 14.1524 42.476L14.2739 42.426C14.5229 43.346 14.6414 44.2545 14.5724 45.1795ZM27.1514 35.49C27.0339 36.202 26.8869 36.9145 26.6789 37.6045C25.9599 39.993 25.0364 42.3075 24.0379 44.591C23.8534 45.0135 23.5849 45.399 23.3514 45.7995C23.3116 45.861 23.264 45.9172 23.2099 45.9665C22.9209 46.252 22.6469 46.237 22.5009 45.8635C22.3309 45.4295 22.2264 44.965 22.1364 44.5055C22.0759 44.197 22.0904 43.873 22.0714 43.557C22.0909 41.31 22.7764 39.268 23.9394 37.367C24.4189 36.583 24.9409 35.836 25.7384 35.34C25.9866 35.1859 26.255 35.0671 26.5359 34.987C26.9609 34.8675 27.2219 35.064 27.1514 35.49ZM35.7334 46.424L38.8179 42.8225C38.9464 44.16 36.6729 46.83 35.7334 46.424ZM45.5849 44.0005C45.3669 44.1255 45.1294 44.2155 44.9059 44.331C44.7014 44.437 44.6339 44.33 44.6279 44.154C44.625 44.0322 44.6407 43.9106 44.6744 43.7935C45.0909 42.3245 45.8574 41.0705 46.9979 40.0505L47.0779 40.0095C47.6204 41.527 46.9934 43.1935 45.5849 44.0005Z"
        fill="#CB6699"
        fill-rule="evenodd"/>
</svg>
