<svg fill="none" height="64" viewBox="0 0 64 64" width="64" xmlns="http://www.w3.org/2000/svg">
  <path
    d="M16.5579 30.964C16.6886 30.374 16.844 29.7906 17.0243 29.2137C17.2045 28.6376 17.4088 28.0696 17.6365 27.5104C17.8644 26.9517 18.1159 26.403 18.3904 25.8658C18.6648 25.3279 18.9618 24.8032 19.2807 24.2909C19.5879 23.7992 19.9127 23.3185 20.2542 22.8503C20.5964 22.3826 20.9557 21.9278 21.3313 21.4868C21.7064 21.0457 22.0983 20.6186 22.5055 20.2062C22.9121 19.7941 23.334 19.3975 23.7702 19.0173C23.436 19.3087 23.1105 19.6095 22.7938 19.92C22.4778 20.2304 22.1698 20.5504 21.8713 20.8784C21.5729 21.2064 21.2846 21.5433 21.0051 21.889C20.7264 22.2339 20.4571 22.5869 20.1987 22.9472C20.3819 22.6903 20.5709 22.4379 20.7672 22.1906C20.9635 21.9433 21.1657 21.7011 21.3744 21.464C21.5824 21.227 21.7969 20.9958 22.0173 20.7705C22.2377 20.5445 22.4639 20.3251 22.696 20.1108C22.9302 19.8958 23.1696 19.6859 23.4148 19.4833C23.6593 19.28 23.9096 19.0834 24.1643 18.8933C24.419 18.7032 24.6787 18.5197 24.9429 18.3429C25.2071 18.166 25.4756 17.9958 25.7486 17.8328C25.6523 17.929 25.5545 18.0236 25.4552 18.1168C25.356 18.21 25.2553 18.3018 25.1538 18.392C25.0524 18.4823 24.9495 18.5711 24.8451 18.6592C24.7415 18.7465 24.6357 18.8324 24.5291 18.9175C24.0847 19.3013 23.7052 19.6851 23.6461 19.9229C23.0588 20.4567 22.4972 21.0185 21.9633 21.6064C21.4291 22.1935 20.9227 22.8063 20.4461 23.4426C19.9704 24.0788 19.5245 24.7371 19.1099 25.4152C18.6962 26.094 18.3145 26.792 17.9664 27.5075C17.6168 28.2252 17.3045 28.9613 17.0294 29.7113C16.755 30.4613 16.5185 31.2253 16.3215 31.9995C15.9277 33.5497 15.6925 35.1362 15.6195 36.7345C15.5516 36.4703 15.502 36.2017 15.4713 35.9301C15.4407 35.6586 15.429 35.3856 15.437 35.1126C15.4516 34.5661 15.5425 34.0243 15.707 33.5032C15.9763 32.5932 16.3543 31.8219 16.5579 30.964ZM32.2179 15.0786C31.626 15.2665 31.0407 15.4745 30.4628 15.7024C30.6037 15.6371 30.7467 15.5747 30.8905 15.516C31.0343 15.4573 31.1795 15.4023 31.3262 15.3501C31.4728 15.298 31.6203 15.2496 31.7691 15.2041C31.918 15.1586 32.0676 15.1168 32.2179 15.0786ZM39.6112 56.8169C40.2599 56.7457 40.905 56.6459 41.5188 56.5461C41.3626 56.5835 41.205 56.6165 41.0473 56.6466C40.889 56.676 40.7306 56.7024 40.5708 56.7252C40.4117 56.7472 40.2519 56.7662 40.0921 56.7817C39.9323 56.7971 39.7717 56.8088 39.6112 56.8169ZM17.5599 39.2047L17.8445 40.2703C17.9467 40.966 18.0824 41.6565 18.2517 42.3398C18.4203 43.0223 18.621 43.6967 18.8545 44.3601C19.3208 45.6879 19.9134 46.9674 20.6242 48.1807C20.4143 47.8411 20.2123 47.4965 20.0185 47.1474C19.8251 46.7981 19.639 46.4443 19.4617 46.0862C19.2851 45.7281 19.1158 45.3663 18.9559 45.0001C18.7954 44.6346 18.6436 44.2647 18.5006 43.8912C18.3575 43.5176 18.2306 43.1382 18.1189 42.7537C18.008 42.3691 17.9131 41.9802 17.8343 41.5883C17.7555 41.1957 17.6927 40.8001 17.6475 40.4024C17.6015 40.0046 17.5723 39.6046 17.5599 39.2047ZM18.0043 36.2208C18.008 35.5441 18.0554 34.8682 18.1452 34.1982C18.2349 33.5274 18.367 32.8633 18.5414 32.2101C18.7151 31.5563 18.9311 30.9149 19.1866 30.2889C19.442 29.6636 19.7375 29.0545 20.071 28.4667C19.7536 29.0618 19.4704 29.6746 19.223 30.3021C18.9764 30.9303 18.7655 31.5717 18.5918 32.2233C18.4174 32.8758 18.2816 33.537 18.1831 34.2048C18.0853 34.8726 18.0255 35.5456 18.0043 36.2208ZM53.0884 45.152C53.0351 45.1329 53.0198 45.0735 53.022 45.0023C53.0271 44.9876 53.0322 44.9714 53.0359 44.956C53.0395 44.9399 53.0432 44.9245 53.0454 44.9083C53.0476 44.8922 53.049 44.876 53.049 44.8592C53.0497 44.843 53.0497 44.8269 53.0483 44.8107C53.1738 44.6243 53.2964 44.4357 53.4154 44.2442C53.5336 44.0534 53.6489 43.8596 53.7605 43.6644C53.8715 43.4692 53.9795 43.2711 54.0831 43.0722C54.1874 42.8726 54.2874 42.6708 54.3837 42.4675C54.3786 42.524 54.3721 42.5798 54.364 42.6355C54.3567 42.692 54.348 42.7478 54.3385 42.8036C54.329 42.8594 54.3188 42.9144 54.3071 42.9702C54.2954 43.0252 54.283 43.0803 54.2692 43.1353C54.2239 43.2182 54.1772 43.3004 54.1283 43.3811C54.031 43.5433 53.9268 43.7013 53.816 43.8545C53.7605 43.9315 53.7036 44.0071 53.6452 44.0813C53.5876 44.1635 53.5321 44.2471 53.4796 44.3322C53.427 44.4181 53.3781 44.5054 53.3314 44.5942C53.2855 44.6838 53.2424 44.774 53.2023 44.8665C53.1621 44.9582 53.1256 45.0522 53.0921 45.1468M38.896 56.8609L38.8274 56.8903C38.6041 56.9057 38.3822 56.9204 38.1633 56.9284L38.083 56.9094C38.3538 56.8903 38.6231 56.8727 38.896 56.8609ZM52.4513 46.106C52.428 46.0928 52.4046 46.0818 52.3798 46.0715C52.3557 46.062 52.3302 46.0539 52.3047 46.048C52.2791 46.0422 52.2528 46.0378 52.2266 46.0356C52.2003 46.0334 52.174 46.0334 52.1478 46.0348C52.4623 45.651 52.7622 45.2408 53.0424 44.8239L53.0359 44.8687C53.0337 44.8834 53.0315 44.8981 53.03 44.9127C53.0279 44.9282 53.0264 44.9428 53.0249 44.9575C53.0235 44.9729 53.0227 44.9876 53.022 45.0023C52.9206 45.3325 52.5506 45.7207 52.4491 46.106M43.1082 51.977C42.8148 52.0709 42.6025 52.3432 42.4711 52.4335C41.6508 52.4892 40.8415 52.4929 39.9067 52.4856C39.7659 52.5546 39.4623 52.5795 39.1762 52.6984C39.0003 52.6177 38.8157 52.5524 38.6209 52.4856C39.1478 52.4914 39.6754 52.4724 40.2001 52.4283C40.7255 52.3843 41.2487 52.3153 41.7676 52.2221C42.2865 52.1289 42.801 52.0115 43.3089 51.8699C43.8168 51.7282 44.3174 51.5631 44.81 51.3745C44.6735 51.4369 44.5356 51.497 44.3969 51.5536C44.2576 51.6108 44.1174 51.6636 43.9759 51.7143C43.8343 51.7642 43.6913 51.8119 43.5475 51.8552C43.4045 51.8992 43.2592 51.9396 43.114 51.977"
    fill="#415870"/>
  <path
    d="M33.6795 18.2856C35.2383 17.7792 37.0204 17.6236 38.7543 17.6912C40.4889 17.7579 42.1886 18.0133 43.8064 18.1799C42.0477 17.4776 39.7905 17.0828 37.8917 16.9808C35.9936 16.8788 34.4808 16.9536 34.086 16.5698C33.6912 16.186 35.0551 15.8022 36.9474 15.7295C37.1999 15.7222 37.4524 15.72 37.7042 15.7229C37.9567 15.7258 38.2084 15.7339 38.4609 15.7464C38.7127 15.7589 38.9645 15.7765 39.2155 15.7992C39.4665 15.8212 39.7176 15.8491 39.9679 15.8807C40.9808 16.004 41.9441 16.1955 42.7249 16.3452C42.3301 16.1669 42.3301 16.1669 41.9295 16.0003C42.3316 16.1669 42.7249 16.3394 43.1139 16.3188C42.7353 16.149 42.3496 15.9955 41.9579 15.8587C41.8273 15.8132 41.6967 15.7691 41.5646 15.7273C41.0041 15.5358 40.4773 15.3648 40.2466 15.1997C40.5116 15.1439 40.7765 15.0998 41.0457 15.0558C39.9701 14.5795 38.3157 14.2882 36.6307 14.2405C34.9464 14.192 33.2424 14.344 31.9945 14.363C32.7695 14.2742 33.5467 14.2141 34.3261 14.1832C35.1047 14.1517 35.8849 14.1502 36.6642 14.1774C37.4429 14.2045 38.2208 14.261 38.9958 14.3462C39.7708 14.432 40.5422 14.5465 41.3092 14.6889C42.1309 14.8459 42.9453 15.0441 43.7481 15.2818C44.5508 15.5189 45.3411 15.797 46.1169 16.1126C46.8919 16.4289 47.6516 16.7841 48.3923 17.1752C49.133 17.5668 49.8539 17.9952 50.5524 18.4588C51.2799 18.9417 51.9798 19.4664 52.6475 20.03C53.3152 20.5936 53.9501 21.1947 54.55 21.8317C55.1491 22.4679 55.7118 23.1387 56.235 23.8403C56.7575 24.5419 57.2406 25.2728 57.6807 26.0294C58.1178 26.7838 58.5097 27.5639 58.8542 28.3653C59.1986 29.1667 59.4941 29.9879 59.7401 30.8253C59.9867 31.6626 60.1823 32.5139 60.3268 33.3747C60.4713 34.2356 60.5647 35.1045 60.6056 35.9763C60.7348 37.8323 60.661 39.6956 60.3859 41.5347C60.11 43.3738 59.6343 45.177 58.9673 46.9118C58.3003 48.6459 57.445 50.3015 56.4182 51.8478C55.3914 53.3941 54.1983 54.8229 52.8613 56.1072C52.6606 56.2752 52.4549 56.4382 52.2454 56.5952C52.036 56.753 51.8229 56.9049 51.6054 57.0502C51.1705 57.3426 50.7203 57.6114 50.2568 57.8553C49.9729 58.0087 49.6861 58.1554 49.3957 58.2963C49.1052 58.4365 48.8119 58.5701 48.5156 58.697C48.2186 58.824 47.9194 58.9436 47.6173 59.0566C47.3159 59.1696 47.0116 59.276 46.7043 59.3751C42.8585 60.9258 38.5828 61.4711 34.3779 61.0887C29.9059 60.5134 25.7142 58.4849 22.358 55.4643C19.0025 52.443 16.4111 48.4133 14.975 43.828C14.6787 42.9166 14.6466 41.7512 14.8414 41.4077C14.9363 41.2353 15.0793 41.2624 15.272 41.6C15.4646 41.9376 15.7127 42.5981 16.1097 43.657C16.4527 44.5259 16.8395 45.3765 17.2671 46.2065C17.6941 47.0358 18.1626 47.8438 18.6705 48.6268C19.1783 49.4092 19.7244 50.1657 20.3066 50.8938C20.8897 51.6218 21.5078 52.3204 22.1595 52.986C21.9077 52.931 21.4976 52.5545 21.0875 52.109C20.9955 52.0026 20.9028 51.897 20.808 51.7928C20.6186 51.5845 20.4239 51.3811 20.2241 51.1829C20.1242 51.0846 20.0227 50.987 19.9198 50.8908C20.1008 51.1653 20.2891 51.4361 20.4839 51.701C20.6788 51.9667 20.8809 52.2265 21.0889 52.4819C21.2969 52.7372 21.5107 52.9868 21.7318 53.2311C21.9522 53.4748 22.1792 53.7133 22.4112 53.9459C22.6426 54.1764 22.879 54.4009 23.1213 54.6189C23.3636 54.8376 23.6117 55.0497 23.8649 55.2552C24.1174 55.4606 24.3758 55.6595 24.6392 55.8518C24.9027 56.0441 25.1705 56.2297 25.4434 56.4081C24.6758 55.9058 23.9379 55.3588 23.2337 54.7701C22.8812 54.4758 22.5375 54.172 22.2033 53.8579C21.8683 53.5438 21.5428 53.2194 21.2268 52.8862C21.6377 53.3214 22.0653 53.7412 22.5076 54.1441C22.9491 54.547 23.4059 54.9337 23.8766 55.3029C24.3473 55.672 24.8311 56.0235 25.3274 56.3567C25.8233 56.6905 26.3315 57.0053 26.8511 57.3005C27.9349 57.9169 29.0689 58.4394 30.2409 58.8621C30.8261 59.0735 31.4202 59.2606 32.0215 59.4214C32.6228 59.5821 33.2307 59.7171 33.8437 59.8265C34.7384 59.9989 35.5514 60.346 36.4993 60.5787C36.7708 60.6506 37.0466 60.7042 37.3247 60.7379C37.6034 60.7717 37.8837 60.7864 38.1639 60.7812C38.4449 60.7768 38.7244 60.7526 39.0017 60.7086C39.2783 60.6653 39.5526 60.6022 39.8212 60.5207C38.9988 60.5222 38.1763 60.4811 37.3582 60.3981C36.54 60.3145 35.7265 60.1891 34.9208 60.0224C34.1153 59.8549 33.3189 59.6462 32.5345 59.3971C31.75 59.1476 30.9794 58.8577 30.2241 58.529C29.4724 58.2009 28.7368 57.8377 28.0195 57.4392C27.3021 57.0414 26.6037 56.6084 25.928 56.1431C25.2516 55.6779 24.5978 55.1805 23.9686 54.6527C23.3395 54.1243 22.736 53.5665 22.1595 52.9809C22.1631 52.9809 22.166 52.9816 22.169 52.9816H22.1887C22.1916 52.9816 22.1945 52.9809 22.1982 52.9809C21.7019 52.4855 21.2298 51.9674 20.7824 51.428C20.3351 50.8884 19.9131 50.3281 19.5177 49.7489C19.1223 49.1695 18.7539 48.572 18.4136 47.9583C18.0743 47.344 17.7627 46.7143 17.4817 46.0715C17.8634 46.8604 18.3289 47.6302 18.6756 48.323C16.8366 44.6382 15.8405 40.665 15.8755 36.6486C15.9361 37.3604 16.0251 38.0693 16.1418 38.7746C16.2593 39.4791 16.4046 40.1792 16.5768 40.872C16.7497 41.5655 16.9504 42.2517 17.1774 42.9283C17.4051 43.6057 17.659 44.2728 17.9393 44.9296C18.5081 46.2658 19.1969 47.5471 19.9972 48.7574C20.3971 49.3622 20.824 49.9485 21.2765 50.5143C21.7289 51.0806 22.2069 51.6257 22.709 52.1479C24.2219 53.7233 25.9562 55.0671 27.8567 56.1365C28.4894 56.4925 29.1389 56.8168 29.803 57.1089C31.0992 57.6769 32.4504 58.1082 33.835 58.3961C34.5268 58.5407 35.2259 58.6486 35.9286 58.7198C36.6321 58.7917 37.3378 58.8262 38.045 58.8247C36.503 58.5539 34.7304 58.3697 33.0308 57.9529C31.3311 57.5368 29.7322 56.8998 28.6865 56.0228C29.8059 56.6039 30.9717 57.0898 32.1718 57.4751C33.3718 57.8609 34.6019 58.1445 35.8491 58.3227C37.0963 58.5018 38.3566 58.5745 39.6161 58.5414C40.875 58.5077 42.1294 58.3682 43.3657 58.1239L42.2805 58.4519C42.6906 58.4196 43.0993 58.3697 43.5058 58.3022C43.9121 58.2355 44.3156 58.1518 44.715 58.0512C45.1142 57.9499 45.5097 57.8325 45.8994 57.699C46.2884 57.5647 46.6729 57.4149 47.0495 57.2491C47.4282 57.0825 47.8026 56.9071 48.1726 56.7236C48.5426 56.5394 48.9082 56.3464 49.2687 56.1446C49.6299 55.9428 49.9853 55.7329 50.3364 55.5135C50.6874 55.2948 51.0333 55.068 51.3733 54.8324C51.6134 54.6732 51.8521 54.5117 52.0885 54.3415L51.3733 54.8324C50.7662 55.2324 50.14 55.6023 49.4979 55.9413C48.8549 56.2804 48.1967 56.5879 47.5246 56.8631C46.8525 57.1383 46.1679 57.3805 45.4725 57.5889C44.777 57.798 44.0721 57.9727 43.3598 58.1121C44.6077 57.7283 45.9206 57.3159 47.456 56.7038C46.5649 56.8954 45.344 57.2601 44.0961 57.5001C43.6955 57.6036 43.2905 57.6953 42.884 57.7745C42.4775 57.8538 42.0681 57.9206 41.6573 57.9756C41.2472 58.0299 40.8348 58.0725 40.4211 58.1026C40.008 58.1319 39.5942 58.1496 39.1797 58.1547C39.7891 58.1319 40.3963 58.0769 40.999 57.9888C42.2063 57.8128 43.3913 57.5075 44.534 57.0781C45.1047 56.8631 45.6637 56.618 46.2088 56.3428C42.9957 57.3893 39.4811 57.8281 36.1556 57.3027C36.6124 57.3489 37.07 57.3797 37.529 57.3951C37.9873 57.4105 38.4463 57.4098 38.9046 57.3937C39.3636 57.3775 39.8212 57.346 40.278 57.299C40.7341 57.252 41.1888 57.1889 41.6412 57.1104C42.4148 57.0194 43.1832 56.8836 43.9422 56.7031C45.4604 56.3424 46.9323 55.8071 48.3288 55.1077C49.0264 54.7576 49.7029 54.3679 50.3561 53.9401L50.0642 54.1573C50.2663 54.0245 50.4611 53.8806 50.656 53.7404C50.9129 53.5643 51.1661 53.3816 51.4149 53.193C51.6638 53.0051 51.9083 52.8106 52.1484 52.611C52.3877 52.4107 52.6234 52.2052 52.8533 51.9946C53.0832 51.7832 53.3087 51.5667 53.5291 51.3451C54.0977 50.7344 54.6013 50.0657 55.0317 49.3497C55.1754 49.1112 55.3104 48.8683 55.4367 48.6202L55.7439 48.1637C55.622 48.5013 55.5994 48.6987 56.0168 48.1637C56.2445 47.8621 56.4598 47.551 56.6619 47.2317C56.8641 46.9125 57.0531 46.5852 57.229 46.2498C57.4048 45.9152 57.5668 45.5732 57.715 45.2253C57.8624 44.8775 57.9967 44.523 58.1156 44.1641C58.6462 42.6825 59.0351 41.1178 59.4511 39.4828C59.6664 38.6212 59.7182 37.4176 59.6116 36.14C59.6255 36.0827 59.635 36.024 59.6386 35.9653C59.643 35.9066 59.6423 35.8472 59.6365 35.7885C59.6306 35.7297 59.6197 35.6718 59.6043 35.6145C59.5883 35.558 59.5679 35.5022 59.5423 35.4487C59.5124 35.1742 59.4737 34.8983 59.4321 34.6238C59.4161 34.4557 59.3964 34.2884 59.373 34.1211C59.3497 33.9538 59.3234 33.7872 59.2927 33.6213C59.2621 33.4555 59.2278 33.2903 59.1898 33.126C59.1519 32.9616 59.111 32.7979 59.0658 32.6357C59.1971 33.2801 59.3292 33.9479 59.4321 34.6238L59.508 35.3797C59.4766 35.3254 59.4482 35.2696 59.4226 35.2116C59.3971 35.1544 59.3745 35.0957 59.3555 35.0355C59.3365 34.9753 59.3205 34.9144 59.3081 34.8528C59.2957 34.7911 59.2869 34.7287 59.2811 34.6656C59.327 35.252 59.3482 35.8391 59.3445 36.4269C59.3409 37.014 59.3124 37.6019 59.2599 38.1867C59.2074 38.7716 59.1293 39.3543 59.0278 39.9334C58.9257 40.5117 58.8001 41.0855 58.6498 41.6536C58.4966 42.2311 58.3207 42.8021 58.1215 43.365C57.923 43.9286 57.7011 44.4834 57.4581 45.0286C57.2151 45.5739 56.9502 46.1089 56.6641 46.6329C56.3781 47.1561 56.0708 47.6684 55.7439 48.1674C55.8395 47.8871 55.9957 47.5055 56.0395 47.3359C55.8585 47.7741 55.6585 48.1997 55.4367 48.6239C55.2163 48.9439 54.9879 49.258 54.7514 49.5662C54.515 49.8744 54.2705 50.1768 54.0195 50.4725C53.7677 50.7683 53.5086 51.0581 53.243 51.3407C52.9774 51.624 52.7037 51.8999 52.4242 52.1685C52.4972 52.0892 52.5672 52.0078 52.6351 51.9248C52.7709 51.758 52.8969 51.5833 53.0124 51.4016C53.07 51.3113 53.1255 51.2189 53.1781 51.1249C52.7889 51.5125 52.3856 51.8853 51.9688 52.2426C51.5519 52.5995 51.122 52.9407 50.6801 53.2656C50.2378 53.59 49.7832 53.8975 49.3183 54.1881C48.8529 54.4785 48.3767 54.7512 47.8909 55.0056C47.402 55.261 46.9028 55.4973 46.3949 55.7138C45.8877 55.9303 45.3718 56.127 44.8493 56.3039C44.3268 56.4807 43.7969 56.637 43.2628 56.7721C42.7278 56.9078 42.1886 57.0223 41.6449 57.1163C40.6298 57.2351 39.6081 57.2777 38.5872 57.244C37.5662 57.2102 36.5489 57.1009 35.5441 56.9152C34.5392 56.7302 33.5493 56.4704 32.5827 56.138C31.616 55.8054 30.6752 55.4012 29.768 54.9286C30.2518 55.2368 30.751 55.5186 31.2633 55.774C31.7763 56.0294 32.3025 56.2569 32.8388 56.4565C33.3759 56.6554 33.9225 56.8264 34.4771 56.968C35.0318 57.1089 35.5937 57.2205 36.16 57.3027C35.3748 57.2237 34.595 57.0977 33.8247 56.9255C33.0543 56.754 32.2947 56.5364 31.5501 56.2738C30.8052 56.012 30.0766 55.7056 29.3681 55.3564C28.6594 55.0077 27.9719 54.6168 27.3094 54.1859C26.648 53.7581 26.0136 53.2895 25.4098 52.7827C24.8063 52.2756 24.2349 51.7318 23.6985 51.1535C23.1622 50.5753 22.6623 49.9639 22.2011 49.3233C21.7399 48.6826 21.3188 48.014 20.9408 47.3213C21.788 48.1329 22.8885 49.2132 23.6533 49.4436C23.7606 49.2858 22.6674 47.7374 23.4344 48.5395C24.8822 49.9346 26.1513 51.0442 27.3145 51.8155C28.4785 52.5868 29.5352 52.9824 30.4744 52.8136C30.6649 52.7387 29.9628 51.9828 29.4746 51.2556C28.9864 50.5276 28.6712 49.8693 29.2338 50.1386C29.5812 50.3404 29.9344 50.5327 30.2934 50.714C30.6517 50.8945 31.0159 51.0647 31.3844 51.224C32.1223 51.5419 32.8785 51.8152 33.6489 52.0423C33.7853 52.0951 33.9225 52.1457 34.0612 52.1934C34.1991 52.2411 34.3385 52.2859 34.4786 52.3285C34.6187 52.3703 34.7596 52.4099 34.9011 52.4466C35.0427 52.4833 35.185 52.5178 35.328 52.5486C35.3981 52.5868 35.536 52.5486 35.7097 52.5046C37.7888 52.8576 39.7905 52.7218 40.8954 52.622C41.307 52.5927 41.7157 52.5369 42.1221 52.4738C42.1718 52.476 42.2221 52.4797 42.2725 52.4855C42.3221 52.4914 42.3717 52.4995 42.4213 52.509C42.4702 52.5185 42.5191 52.5303 42.568 52.5442C42.6162 52.5582 42.6644 52.5736 42.7111 52.5912C42.946 52.4474 43.1825 52.3167 43.4189 52.2074C43.6853 52.1391 43.9495 52.0635 44.2115 51.9814C44.4734 51.8984 44.7332 51.8089 44.9908 51.712C45.2477 51.6144 45.5024 51.5109 45.7534 51.3994C46.0052 51.2886 46.2533 51.1704 46.4985 51.0464C46.6445 50.9958 46.7897 50.9437 46.9335 50.8886C47.078 50.8336 47.221 50.7763 47.3633 50.7162C47.5056 50.6567 47.6472 50.5943 47.7873 50.5298C47.9274 50.4652 48.0661 50.3977 48.204 50.3279C48.1507 50.2744 48.0135 50.2516 48.069 50.1247C48.3529 49.9346 48.6309 49.7342 48.9016 49.5251C49.1724 49.3159 49.4366 49.0987 49.6934 48.8719C49.9503 48.6452 50.1992 48.4103 50.4407 48.1674C50.6823 47.9245 50.9158 47.6735 51.1406 47.4152C51.2413 47.3279 51.3434 47.2427 51.4471 47.1591C51.5507 47.0754 51.6558 46.9932 51.7623 46.9132C51.8689 46.8332 51.9769 46.7554 52.0856 46.6791C52.1951 46.6028 52.3053 46.5279 52.4169 46.4553C52.5921 45.6458 53.197 44.5788 53.7524 43.3407C54.3077 42.1027 54.7923 40.7149 54.9463 39.5195H54.9215C54.9769 39.2193 55.0236 38.9177 55.0623 38.6146C55.101 38.3115 55.1316 38.0077 55.1543 37.7039C55.1769 37.3993 55.1907 37.094 55.1973 36.7887C55.2031 36.4834 55.201 36.1781 55.1907 35.8728C55.244 35.6674 55.3053 35.4677 55.3812 35.2784C55.2498 34.9805 55.2083 34.6605 55.1338 34.5108C55.0915 33.5201 55.0441 32.668 54.9426 31.8065C54.8456 31.6722 54.561 31.4549 54.4508 31.1496C54.4041 30.9985 54.3544 30.8488 54.3019 30.6998C54.2486 30.5508 54.1932 30.4026 54.134 30.2558C54.0749 30.109 54.0122 29.9637 53.9472 29.8199C53.8823 29.676 53.8137 29.5329 53.7429 29.392C53.6699 29.2247 53.594 29.0581 53.5167 28.893C53.4386 28.728 53.3583 28.5641 53.2758 28.4013C53.1934 28.2391 53.1087 28.0769 53.0212 27.9169C52.9343 27.7569 52.8445 27.5977 52.7526 27.4399C52.4396 26.9016 52.0996 26.3796 51.7339 25.876C51.3682 25.3723 50.977 24.8878 50.5619 24.4244C50.1466 23.9606 49.708 23.5188 49.2483 23.1005C48.7885 22.6822 48.3076 22.2874 47.807 21.919C47.8009 21.8662 47.8021 21.8129 47.8106 21.7605C47.815 21.7341 47.8216 21.7084 47.8296 21.6834C47.8376 21.6585 47.8471 21.6335 47.8588 21.61C47.4582 21.5154 47.0349 21.1514 46.6875 21.0567C46.762 21.0567 46.8189 21.0398 46.8342 20.9862C46.735 20.9539 46.6365 20.918 46.5387 20.8798C46.4416 20.8417 46.3453 20.7998 46.2511 20.7551C46.1563 20.7103 46.0629 20.6633 45.9709 20.6127C45.8797 20.5621 45.7892 20.5085 45.7009 20.4527C45.6206 20.3947 45.5396 20.339 45.4572 20.2847C45.3747 20.2304 45.2908 20.1775 45.2061 20.1269C45.1215 20.0762 45.0354 20.0271 44.9492 19.9801C44.8624 19.9331 44.7748 19.8876 44.6858 19.8443C44.6289 19.8326 44.5712 19.8216 44.5136 19.812C44.4552 19.8025 44.3975 19.7937 44.3392 19.7856C44.2815 19.7783 44.2231 19.7717 44.1647 19.7658C44.1064 19.7599 44.048 19.7555 43.9896 19.7519C43.8831 19.7056 43.7758 19.6675 43.6692 19.6234C42.6578 18.8367 41.4157 18.7406 40.0956 18.6195C39.7621 18.5623 39.4264 18.5146 39.09 18.4764C38.7536 18.4382 38.4157 18.4096 38.0778 18.3905C37.7399 18.3707 37.4013 18.3612 37.0627 18.3612C36.7241 18.3612 36.3855 18.3707 36.0469 18.3891C34.969 18.4698 34.4976 18.276 33.7007 18.2841"
    fill="#415870"/>
  <path
    d="M54.517 42.1718C54.6389 41.9005 54.754 41.6262 54.8621 41.3491C54.9694 41.0717 55.0701 40.7914 55.1643 40.5096C55.3508 39.9444 55.5087 39.37 55.6372 38.7886C55.4657 40.0509 55.3263 41.2427 54.517 42.1718ZM28.7337 49.3953C28.6717 49.2845 28.6082 49.1737 28.5418 49.0643C28.4761 48.955 28.4082 48.8471 28.3382 48.7407C28.2681 48.6335 28.1966 48.5286 28.1229 48.4244C28.0492 48.3202 27.974 48.2167 27.8967 48.1154C28.4024 48.6012 28.9402 49.0526 29.5058 49.4665C30.0721 49.8796 30.6647 50.2547 31.2806 50.5878C31.8965 50.9217 32.5343 51.2131 33.1889 51.4611C33.8435 51.7085 34.5142 51.9117 35.1958 52.0688V52.0923C34.0719 51.9 32.7693 51.3687 31.6338 50.783C30.499 50.1981 29.5029 49.5854 28.7337 49.3953ZM53.0137 45.0023C53.0144 44.9876 53.0158 44.973 53.0173 44.9576L53.0217 44.9128C53.0239 44.8981 53.0253 44.8834 53.0275 44.8688C53.0297 44.8541 53.0319 44.8387 53.0348 44.824C53.037 44.8728 53.0326 44.9217 53.0217 44.9693C53.018 44.9854 53.0129 45.0009 53.0078 45.0163M21.7338 47.5012L21.5565 47.2076C21.8049 47.5675 22.0636 47.9202 22.3322 48.2651C22.4658 48.4376 22.6022 48.6078 22.7416 48.7766C22.8803 48.9454 23.0211 49.112 23.1649 49.2764C23.0306 49.1414 22.9 49.0034 22.773 48.8618C22.646 48.7201 22.5227 48.5748 22.4037 48.4266C22.2843 48.2785 22.1687 48.1272 22.0571 47.973C21.9454 47.8185 21.8377 47.6611 21.7338 47.5012ZM18.9177 38.6463C18.8629 38.2059 18.8228 37.7641 18.798 37.3216C18.7724 36.8784 18.7622 36.4351 18.7666 35.9911C18.7717 35.5478 18.7907 35.1046 18.8257 34.6621C18.86 34.2195 18.9089 33.7785 18.9731 33.3396C19.0775 32.7966 19.2096 32.2594 19.3701 31.7302C19.5299 31.2011 19.7182 30.6808 19.9335 30.1715C20.148 29.6622 20.3903 29.1654 20.6574 28.6817C20.9245 28.1981 21.2172 27.7292 21.5339 27.2771C21.0428 28.132 20.6157 29.0224 20.2561 29.9411C19.8956 30.8595 19.6036 31.8037 19.3825 32.7657C19.1614 33.7271 19.0111 34.7046 18.9337 35.6887C18.8558 36.6728 18.8504 37.6614 18.9177 38.6463ZM25.2659 45.1887C25.2068 45.053 25.1506 44.9165 25.0966 44.7792C25.0426 44.642 24.9908 44.5033 24.9411 44.3646C24.8915 44.2252 24.8448 44.085 24.8003 43.9441C24.7558 43.8032 24.7134 43.6615 24.674 43.5192C24.7331 43.6505 24.7937 43.7819 24.8572 43.9118C24.92 44.0417 24.9849 44.1708 25.0513 44.2985C25.1177 44.427 25.1863 44.5539 25.2571 44.6794C25.3272 44.8056 25.3994 44.9304 25.4731 45.0544C25.3549 45.0009 25.3206 45.1315 25.2659 45.1814M26.8436 52.6544L26.4196 52.3374C26.8166 52.5642 27.2195 52.777 27.6296 52.9692C27.4676 52.9193 27.1063 52.7579 26.8436 52.6544ZM23.5159 39.27C23.5619 39.6898 23.6254 40.1074 23.7071 40.5235C23.602 40.2894 23.4911 40.0604 23.3597 39.8307C23.3794 39.786 23.397 39.7412 23.413 39.695C23.4291 39.6495 23.4437 39.6032 23.4561 39.5563C23.4685 39.5093 23.4787 39.4616 23.4874 39.4139C23.4962 39.3662 23.5035 39.3185 23.5086 39.27M23.7356 32.7855C23.7713 32.6498 23.8093 32.5155 23.8501 32.3819C23.891 32.2484 23.9348 32.1155 23.9808 31.9834C24.0267 31.8521 24.0749 31.7207 24.126 31.5908C24.1771 31.4609 24.2311 31.3317 24.2865 31.2041C24.234 31.3633 24.1836 31.5233 24.1355 31.6847C24.0873 31.8455 24.0413 32.0069 23.9983 32.1691C23.9545 32.3313 23.9136 32.4942 23.8749 32.6579C23.8363 32.8215 23.7998 32.9852 23.7662 33.1495C23.7297 32.9852 23.6969 32.8501 23.7356 32.7855Z"
    fill="#415870"/>
  <path
    d="M28.7937 6.25103C29.2207 6.43816 29.6403 6.64365 30.0504 6.86675C30.4605 7.08911 30.8612 7.32982 31.2509 7.58667C31.6405 7.84426 32.0193 8.118 32.3864 8.40714C32.7534 8.69702 33.1074 9.00158 33.4489 9.32155C33.7758 9.62978 34.0911 9.94975 34.3947 10.2807C34.6983 10.6124 34.9894 10.9552 35.2675 11.3081C35.5455 11.6611 35.8104 12.0251 36.0622 12.3979C36.3132 12.7708 36.5511 13.1531 36.7737 13.5435C36.6015 13.2456 36.4212 12.9528 36.2322 12.6651C36.0432 12.3774 35.8454 12.0956 35.6404 11.8197C35.4353 11.5437 35.2222 11.2737 35.0011 11.0102C34.7807 10.7467 34.5523 10.4891 34.3166 10.2389C34.4844 10.4172 34.6472 10.6 34.8055 10.7864C34.9639 10.9735 35.1171 11.1643 35.2653 11.3588C35.4142 11.5533 35.5572 11.7521 35.6958 11.954C35.8338 12.1558 35.9673 12.362 36.095 12.5704C36.2227 12.7818 36.3461 12.9961 36.4628 13.2133C36.5803 13.4312 36.6927 13.6514 36.7985 13.8745C36.9051 14.0969 37.0058 14.3229 37.1014 14.5511C37.1962 14.7794 37.286 15.0098 37.3692 15.2424C37.3108 15.1544 37.2539 15.0648 37.1977 14.9753C37.1415 14.8858 37.0868 14.7948 37.0335 14.7038C36.9802 14.612 36.9284 14.5203 36.8781 14.4271C36.827 14.3346 36.7781 14.2407 36.7299 14.146C36.5066 13.7622 36.2738 13.4034 36.0965 13.3226C35.7798 12.7942 35.4382 12.2805 35.0734 11.7844C34.7076 11.2884 34.319 10.8099 33.9087 10.3504C33.0863 9.43226 32.179 8.59481 31.199 7.8494C30.7076 7.47534 30.1973 7.12702 29.6702 6.80583C29.1433 6.48366 28.6004 6.19011 28.0428 5.92445C27.486 5.65879 26.9161 5.42175 26.3352 5.2148C25.7535 5.00785 25.1624 4.83098 24.5633 4.68494C24.7735 4.67173 24.9844 4.6732 25.1946 4.68935C25.404 4.70622 25.6127 4.73778 25.8185 4.78401C26.0236 4.82951 26.2257 4.89043 26.4227 4.96528C26.6199 5.03965 26.8116 5.12794 26.9963 5.22948C27.6466 5.57146 28.1734 5.97656 28.7937 6.25837M38.5142 20.61C38.4587 20.1168 38.3879 19.6508 38.3026 19.1723C38.331 19.2905 38.3573 19.4086 38.3806 19.5275C38.404 19.6471 38.4244 19.766 38.4419 19.8864C38.4595 20.006 38.4748 20.1264 38.4865 20.2474C38.4989 20.3678 38.5076 20.4889 38.5142 20.61ZM5.80913 20.0882C5.76753 20.5946 5.74637 21.1031 5.73104 21.5948C5.72593 21.4686 5.72301 21.3431 5.72374 21.2169C5.72596 20.8391 5.75449 20.462 5.80913 20.0882ZM22.4061 5.80557L21.5589 5.86501C21.0167 5.84079 20.4737 5.84299 19.9315 5.87088C19.3893 5.8995 18.8493 5.95381 18.3122 6.03453C17.775 6.11453 17.2431 6.22094 16.7162 6.35303C16.1893 6.48513 15.6697 6.64218 15.1581 6.82491C15.4464 6.7141 15.7368 6.61062 16.0302 6.51375C16.3236 6.41688 16.6191 6.32735 16.9161 6.24442C17.2139 6.16223 17.5131 6.08664 17.8145 6.01765C18.1151 5.9494 18.418 5.88849 18.7216 5.83419C19.0251 5.77988 19.3316 5.73878 19.6389 5.71016C19.9461 5.68154 20.2541 5.66613 20.5627 5.66393C20.8714 5.66173 21.1794 5.67273 21.4874 5.69695C21.7946 5.72044 22.1011 5.75786 22.4061 5.80777M24.5976 6.58861C25.6225 6.79442 26.6169 7.13209 27.5561 7.59328C28.0253 7.82372 28.4792 8.08424 28.9149 8.37339C29.3505 8.6618 29.768 8.97883 30.1635 9.32155C29.7599 8.98984 29.3381 8.68235 28.8996 8.39981C28.4607 8.11766 28.006 7.86112 27.5378 7.63144C27.07 7.40174 26.5891 7.19919 26.098 7.02526C25.6069 6.85133 25.1055 6.70603 24.5976 6.59081M12.6434 32.1369C12.666 32.1002 12.712 32.098 12.7652 32.1098C12.7762 32.1156 12.7864 32.1215 12.7981 32.1266C12.809 32.1318 12.82 32.1362 12.8316 32.1399C12.8545 32.1485 12.8782 32.1544 12.9024 32.1575C13.025 32.2815 13.1498 32.4026 13.2768 32.5215C13.403 32.6404 13.5322 32.757 13.6636 32.8715C13.7949 32.9853 13.9277 33.0968 14.0627 33.2062C14.1985 33.3155 14.3357 33.4219 14.4751 33.5261C14.3911 33.4998 14.3081 33.4705 14.2262 33.4381C14.1853 33.4219 14.1452 33.4058 14.1043 33.3882C14.0642 33.3706 14.0241 33.3529 13.9847 33.3339C13.9285 33.2876 13.873 33.2392 13.819 33.19C13.765 33.1409 13.7125 33.0902 13.6606 33.0388C13.6085 32.9873 13.5577 32.9344 13.5081 32.8803C13.4583 32.8266 13.4097 32.7718 13.3622 32.7159C13.3089 32.6602 13.2534 32.6059 13.1965 32.5538C13.1396 32.5017 13.0805 32.451 13.0199 32.4033C12.9593 32.3549 12.8966 32.3094 12.8331 32.2653C12.7696 32.2213 12.7039 32.1795 12.6375 32.1406M5.8894 19.5261L5.87626 19.4703C5.89889 19.2971 5.91786 19.1246 5.94632 18.9558L5.97113 18.8964C5.94632 19.107 5.92005 19.3169 5.8894 19.5261ZM12.0136 31.5073C12.0274 31.4918 12.0398 31.4757 12.0515 31.4588C12.0737 31.4245 12.0909 31.3872 12.1026 31.348C12.1077 31.3289 12.1121 31.3084 12.115 31.2886C12.3624 31.5858 12.6222 31.8639 12.8966 32.1523C12.8864 32.1479 12.8754 32.1435 12.8645 32.1399C12.8535 32.1355 12.8426 32.1318 12.8316 32.1281C12.8207 32.1252 12.8097 32.1215 12.7988 32.1186L12.7652 32.1098C12.531 31.9828 12.2923 31.6416 12.0136 31.5073ZM8.95368 23.4831C8.94054 23.4339 8.92594 23.3848 8.90843 23.3363C8.89164 23.2879 8.87267 23.2409 8.85224 23.1939C8.83107 23.1477 8.80845 23.1015 8.78364 23.0574C8.75883 23.0127 8.73183 22.9686 8.70337 22.9268C8.78145 22.2913 8.89456 21.6697 9.04271 20.9556C9.01279 20.8367 9.04271 20.6004 8.98943 20.3641C9.01133 20.3333 9.03322 20.3025 9.05438 20.2709C9.07555 20.2394 9.09598 20.2078 9.11641 20.1755C9.13685 20.144 9.15728 20.1117 9.17625 20.0787C9.19596 20.0464 9.21493 20.0133 9.2339 19.9803C9.15217 20.3817 9.08868 20.7868 9.0449 21.1941C9.00038 21.6014 8.97557 22.0102 8.969 22.4204C8.96316 22.8299 8.97557 23.2394 9.00768 23.6482C9.03906 24.0562 9.09014 24.4628 9.15947 24.8672C9.13247 24.7527 9.10765 24.6382 9.08503 24.523C9.06314 24.4078 9.04344 24.2926 9.02592 24.1766C9.00914 24.0606 8.99454 23.9447 8.98214 23.828C8.96973 23.7113 8.96024 23.5946 8.95368 23.4772"
    fill="#189AB6"/>
  <path
    d="M35.8542 21.2514C35.8863 21.5838 35.9038 21.917 35.9067 22.2517C35.9096 22.5856 35.8987 22.9195 35.8739 23.2527C35.8483 23.5851 35.8089 23.9176 35.7556 24.2471C35.7016 24.5766 35.6345 24.9039 35.5528 25.2275C35.2477 26.5536 34.8011 27.813 34.4348 29.0253C35.2266 27.7799 35.86 26.1082 36.2169 24.6786C36.5737 23.249 36.7437 22.0689 37.0904 21.8231C37.4377 21.5772 37.5355 22.681 37.3027 24.1414C37.2706 24.3359 37.2356 24.5296 37.1962 24.7219C37.1568 24.9149 37.1137 25.1072 37.067 25.298C37.0203 25.4895 36.9692 25.6796 36.9152 25.8689C36.8612 26.0583 36.8029 26.2461 36.7416 26.4325C36.4971 27.2009 36.211 27.901 35.9782 28.4771C36.1694 28.2026 36.1694 28.2026 36.3599 27.9186C36.311 27.9817 36.265 28.0471 36.2227 28.1153C36.1796 28.1836 36.141 28.2533 36.1067 28.3259C36.0716 28.3979 36.0403 28.472 36.0132 28.5476C35.9862 28.6231 35.9629 28.7002 35.9439 28.778C36.006 28.6899 36.0658 28.6004 36.1249 28.5109C36.184 28.4206 36.2417 28.3296 36.2986 28.2379C36.3548 28.1461 36.4102 28.0537 36.4642 27.9605C36.5175 27.8673 36.5701 27.7733 36.6211 27.6787C36.662 27.5957 36.7058 27.5143 36.751 27.4343C36.7963 27.3543 36.8437 27.275 36.8933 27.1972C36.943 27.1202 36.9948 27.0439 37.0488 26.969C37.1028 26.8941 37.159 26.8215 37.2166 26.7496C37.2166 26.9587 37.2166 27.1701 37.205 27.3829C37.726 26.6285 38.1879 25.4022 38.4777 24.1201C38.7674 22.838 38.9009 21.5105 39.071 20.5528C39.0235 21.1589 38.9542 21.7636 38.8622 22.3647C38.7703 22.9657 38.6557 23.5638 38.52 24.1561C38.3835 24.749 38.2259 25.3361 38.0464 25.9174C37.8668 26.4986 37.6654 27.0725 37.4436 27.6383C37.2035 28.2452 36.9342 28.8396 36.6357 29.4201C36.3365 29.9999 36.0096 30.565 35.6557 31.1124C34.9463 32.2077 34.1308 33.2295 33.2212 34.1632C32.2734 35.1338 31.2181 35.9919 30.0759 36.7207C28.9335 37.4492 27.712 38.0438 26.4351 38.493C25.8002 38.7161 25.1529 38.9003 24.4954 39.0449C23.1805 39.3353 21.8356 39.4652 20.4897 39.4316C19.8176 39.4155 19.147 39.3582 18.4814 39.2606C17.0577 39.0845 15.6572 38.7513 14.3057 38.267C12.9543 37.783 11.66 37.151 10.446 36.3824C8.01041 34.8401 5.94323 32.7763 4.39189 30.3382C4.19565 29.9808 4.01903 29.6128 3.86281 29.2359C3.784 29.0473 3.71102 28.8573 3.64242 28.665C3.57456 28.4727 3.51107 28.279 3.45269 28.083C3.37898 27.843 3.31038 27.6016 3.24689 27.358C3.18413 27.1143 3.12648 26.8699 3.07394 26.6241C3.02212 26.3775 2.97542 26.1309 2.93455 25.8821C2.89369 25.6341 2.85866 25.3853 2.82874 25.1358C2.68395 24.332 2.58599 23.5205 2.53537 22.7052C2.48429 21.8906 2.48137 21.0731 2.52589 20.257C2.57047 19.4416 2.66234 18.6296 2.80101 17.8249C2.94039 17.0206 3.12575 16.2244 3.35782 15.4421C3.63665 14.6128 3.97745 13.8059 4.37729 13.0284C4.77666 12.251 5.2333 11.5048 5.74341 10.7959C6.25425 10.087 6.81689 9.4177 7.42697 8.79318C8.03706 8.16938 8.69238 7.59183 9.38858 7.06637C10.1067 6.52404 10.8598 6.03088 11.6435 5.59056C12.4272 5.14947 13.2396 4.76208 14.0751 4.43104C14.91 4.10006 15.7667 3.82486 16.6388 3.6091C17.5101 3.39334 18.3953 3.23629 19.2885 3.14016C20.0249 3.04989 20.9101 3.1952 21.1407 3.39701C21.2589 3.49462 21.2173 3.60029 20.9269 3.69863C20.7889 3.73533 20.6503 3.76982 20.5109 3.80284C20.3715 3.83513 20.2314 3.86522 20.0913 3.89311C19.9512 3.921 19.8103 3.94741 19.6687 3.9709C19.5279 3.99438 19.3863 4.01493 19.2448 4.03401C17.827 4.3042 16.4396 4.71624 15.1034 5.26398C14.4363 5.53772 13.7825 5.84448 13.1454 6.18426C12.5083 6.52331 11.8887 6.89465 11.2889 7.29681C11.367 7.10454 11.7121 6.85355 12.1091 6.60403C12.2033 6.54973 12.2974 6.49395 12.3901 6.43671C12.4828 6.3802 12.5747 6.32149 12.6667 6.26205C12.7579 6.20261 12.8484 6.14169 12.9381 6.08005C13.0272 6.01767 13.1162 5.95456 13.2038 5.88998C12.9688 5.98831 12.7367 6.09252 12.5069 6.20261C12.277 6.31269 12.05 6.42864 11.8267 6.55046C11.6027 6.67228 11.3816 6.79924 11.1641 6.93208C10.9466 7.06491 10.7321 7.20287 10.5219 7.34671C10.3132 7.48982 10.1081 7.63806 9.90744 7.79144C9.70602 7.94482 9.50899 8.10334 9.31633 8.26626C9.12294 8.42991 8.93393 8.59797 8.7493 8.77116C8.56467 8.94435 8.38515 9.12195 8.20928 9.30395C8.45667 9.0471 8.71063 8.79685 8.97261 8.55393C9.23387 8.31176 9.50242 8.07692 9.77754 7.84942C10.0527 7.62265 10.3344 7.40396 10.6219 7.19333C10.9094 6.98271 11.2028 6.78016 11.502 6.58642C10.721 7.08642 9.97803 7.64398 9.27911 8.25451C8.57928 8.86406 7.92577 9.52541 7.32408 10.233C7.01028 10.6029 6.71254 10.986 6.43158 11.3815C6.14989 11.7771 5.88571 12.1837 5.63905 12.602C5.39239 13.0195 5.16325 13.4481 4.95235 13.8855C4.74145 14.3229 4.54952 14.7691 4.37656 15.2226C4.11312 15.8809 3.72927 16.4511 3.41255 17.1424C3.31841 17.3391 3.2374 17.5431 3.17027 17.7516C3.10313 17.96 3.05059 18.1728 3.01264 18.3878C2.97469 18.6036 2.95207 18.8215 2.94404 19.041C2.93601 19.2597 2.94258 19.4784 2.96447 19.6963C3.20557 18.4359 3.57457 17.2036 4.06569 16.0189C4.31162 15.4267 4.58674 14.8476 4.89178 14.284C5.19609 13.7204 5.52886 13.1729 5.88936 12.6438C6.60905 11.5876 7.42769 10.6031 8.33407 9.70391C8.78652 9.25478 9.26087 8.82767 9.75492 8.42477C10.2482 8.02114 10.7605 7.64173 11.2903 7.28727C11.2889 7.28947 11.2874 7.29167 11.2867 7.29387C11.2852 7.29608 11.2838 7.29828 11.283 7.30048C11.2816 7.30268 11.2809 7.30488 11.2801 7.30708C11.2787 7.30933 11.2777 7.31182 11.2772 7.31442C11.7253 7.00766 12.1879 6.72292 12.6623 6.4602C13.1366 6.19747 13.6234 5.95749 14.1204 5.74027C14.6173 5.52377 15.1245 5.33003 15.639 5.16051C16.1542 4.99098 16.6767 4.84568 17.2051 4.72532C16.5483 4.91686 15.9003 5.14363 15.3237 5.30068C16.0725 5.08272 16.8329 4.90952 17.6013 4.78183C18.3705 4.65413 19.1462 4.57267 19.9249 4.53745C20.7028 4.50296 21.4829 4.51396 22.2601 4.57194C23.0373 4.62992 23.8102 4.73413 24.5749 4.88457C24.0269 4.82586 23.4767 4.78917 22.9264 4.77449C22.3754 4.75981 21.8237 4.76715 21.2735 4.79724C20.7233 4.82659 20.1745 4.8787 19.6286 4.95209C19.082 5.02621 18.5391 5.12235 18.0005 5.23976C17.4532 5.35939 16.911 5.50396 16.3761 5.67275C15.8419 5.84227 15.315 6.03528 14.7976 6.25251C14.2809 6.47047 13.7737 6.71118 13.2782 6.97464C12.7834 7.2381 12.2996 7.52431 11.8304 7.83254C11.3611 8.14076 10.9065 8.47247 10.4686 8.82547C10.0313 9.1786 9.61115 9.55282 9.20979 9.94682C8.80769 10.3409 8.42602 10.7541 8.06406 11.1856C7.70282 11.6171 7.36203 12.0655 7.04385 12.5301C6.73297 12.9851 6.44544 13.4547 6.18346 13.9391C5.92074 14.4234 5.68284 14.921 5.47194 15.4296C5.0483 16.4478 4.73038 17.5072 4.52325 18.5911C4.95819 17.4397 5.35883 16.1194 5.92731 14.8792C6.4958 13.6397 7.21169 12.5095 8.02611 11.8373C7.42038 12.6095 6.8797 13.4311 6.40968 14.2936C4.99474 16.8944 4.256 19.8125 4.26199 22.7771L4.1642 21.8943C4.12845 22.2135 4.10582 22.5349 4.09561 22.8564C4.08612 23.1785 4.0905 23.5007 4.10728 23.8214C4.12407 24.1429 4.15472 24.4636 4.1985 24.7828C4.24229 25.1013 4.29848 25.4183 4.36854 25.7324C4.43859 26.0465 4.51522 26.3592 4.59987 26.6703C4.68452 26.9807 4.77647 27.2897 4.87572 27.5957C4.97497 27.9018 5.08152 28.2056 5.19463 28.5072C5.30847 28.8081 5.42961 29.1068 5.55732 29.4018C5.64343 29.6109 5.72882 29.8186 5.82441 30.0234L5.55732 29.4018C5.34496 28.8778 5.15741 28.3428 4.99613 27.8005C4.83413 27.2581 4.69912 26.7077 4.59039 26.1522C4.48165 25.5967 4.39992 25.036 4.34519 24.4724C4.29045 23.9088 4.26272 23.3429 4.26199 22.7771C4.37656 23.7899 4.48676 24.8554 4.72174 26.1221C4.72174 25.4117 4.61301 24.4217 4.61666 23.4354C4.59768 23.1125 4.5882 22.7896 4.5882 22.466C4.5882 22.1431 4.59841 21.8201 4.61812 21.4972C4.63782 21.1743 4.66701 20.8529 4.70569 20.5322C4.74437 20.2115 4.79326 19.8915 4.85164 19.5738C4.77793 20.0434 4.72977 20.5175 4.70642 20.9923C4.68307 21.4672 4.68525 21.9434 4.71299 22.4183C4.74072 22.8931 4.79326 23.3664 4.87134 23.8354C4.94943 24.305 5.05233 24.7696 5.1793 25.2275C4.86259 22.6098 5.05378 19.8541 5.94264 17.3817C5.84047 17.7244 5.74925 18.0701 5.6697 18.4179C5.59089 18.7665 5.52302 19.1173 5.46683 19.4703C5.41064 19.8233 5.36685 20.1785 5.33474 20.5344C5.3019 20.8903 5.28147 21.247 5.27271 21.6044C5.22747 22.2106 5.21652 22.819 5.2406 23.4266C5.26469 24.0342 5.32307 24.6397 5.41648 25.24C5.50989 25.841 5.6376 26.4362 5.79814 27.0218C5.95942 27.6075 6.15427 28.1843 6.38122 28.7472L6.27103 28.4903C6.34109 28.6628 6.42136 28.8338 6.49945 29.0062C6.59577 29.2293 6.69648 29.451 6.8023 29.6689C6.90811 29.8876 7.01904 30.1034 7.13434 30.3169C7.36597 30.7437 7.61704 31.1595 7.88673 31.563C8.01297 31.7377 8.14506 31.908 8.28226 32.0731C8.42018 32.2389 8.56394 32.3997 8.71209 32.5552C8.86096 32.7108 9.01567 32.8605 9.17476 33.0058C9.33385 33.1504 9.49804 33.2891 9.66662 33.4227L9.96655 33.7236C9.73157 33.5797 9.58488 33.532 9.93006 33.9349C10.1249 34.1543 10.3278 34.3657 10.5394 34.5683C10.751 34.7715 10.9707 34.9653 11.1984 35.1502C11.4261 35.3344 11.6611 35.5098 11.9026 35.6749C12.1442 35.8401 12.3923 35.9956 12.647 36.1402C13.6883 36.7655 14.8144 37.2917 15.9915 37.8516C16.1892 37.9353 16.3907 38.0108 16.5943 38.0784C16.7979 38.1459 17.0044 38.2053 17.2131 38.2574C17.4211 38.3088 17.6312 38.3528 17.8429 38.3881C18.0545 38.4233 18.2676 38.4512 18.4814 38.4703C18.5223 38.4893 18.5653 38.5055 18.6099 38.5172C18.6536 38.529 18.6989 38.537 18.7441 38.5414C18.7894 38.5458 18.8354 38.5458 18.8806 38.5414C18.9266 38.5378 18.9711 38.5297 19.0156 38.518C19.2272 38.5348 19.4425 38.5466 19.6563 38.5561C19.7862 38.5693 19.9154 38.5789 20.0453 38.5862C20.1752 38.5928 20.3058 38.5972 20.4357 38.5979C20.5656 38.5994 20.6955 38.5972 20.8254 38.5928C20.956 38.5877 21.0859 38.5803 21.2151 38.5701C20.7079 38.5701 20.181 38.5701 19.6563 38.5561L19.0725 38.5047C19.1185 38.4879 19.1645 38.4739 19.2119 38.4622C19.2594 38.4512 19.3068 38.4424 19.3549 38.4365C19.4031 38.4306 19.4513 38.427 19.5002 38.427C19.5483 38.4262 19.5965 38.4284 19.6454 38.4336C19.1951 38.3822 18.7471 38.3117 18.3026 38.2215C17.8589 38.1319 17.4182 38.0233 16.9832 37.8964C16.5483 37.7694 16.1185 37.6241 15.6959 37.4597C15.2734 37.2961 14.8574 37.1148 14.4502 36.9152C14.035 36.7126 13.6292 36.4932 13.2322 36.2576C12.8352 36.0221 12.4477 35.7703 12.0712 35.5032C11.6939 35.2361 11.3283 34.9535 10.9744 34.6571C10.6204 34.3598 10.2782 34.0487 9.94904 33.7236C10.1402 33.841 10.4132 34.0171 10.535 34.0751C10.2315 33.8718 9.93955 33.6509 9.64983 33.4227C9.44039 33.2062 9.23679 32.9846 9.03829 32.7578C8.84053 32.531 8.64787 32.2991 8.46178 32.0628C8.08846 31.5899 7.73919 31.0983 7.4153 30.5899C7.46492 30.6567 7.51601 30.7228 7.56928 30.7873C7.62255 30.8512 7.67728 30.9143 7.73347 30.9759C7.7904 31.0369 7.84878 31.0963 7.90862 31.1543C7.96846 31.2123 8.02976 31.2688 8.09252 31.3231C7.8568 30.9679 7.63496 30.6031 7.42624 30.2311C7.21753 29.859 7.02269 29.4788 6.84243 29.0921C6.66218 28.7053 6.49653 28.3113 6.3462 27.912C6.19509 27.5125 6.05926 27.1074 5.93899 26.6975C5.81858 26.285 5.71422 25.8682 5.62592 25.4477C5.53762 25.0272 5.4661 24.603 5.40991 24.1766C5.35445 23.751 5.31504 23.3224 5.29242 22.8931C5.26907 22.4638 5.26323 22.0337 5.27271 21.6044C5.33328 20.8089 5.45224 20.0192 5.62957 19.2421C5.80617 18.4649 6.03969 17.7017 6.32868 16.959C6.6184 16.2163 6.96139 15.4964 7.35692 14.8051C7.75172 14.1138 8.1976 13.4525 8.69019 12.828C8.38515 13.1524 8.09763 13.4922 7.82834 13.8474C7.55906 14.2026 7.30802 14.571 7.07742 14.9526C6.84754 15.3342 6.63664 15.7275 6.44763 16.1312C6.25862 16.5355 6.09078 16.9487 5.94483 17.3707C6.1207 16.7806 6.3316 16.2016 6.57534 15.6365C6.81981 15.0715 7.09712 14.5218 7.40581 13.9897C7.7145 13.4577 8.05457 12.9447 8.42383 12.453C8.79309 11.962 9.19081 11.4931 9.61553 11.0491C10.0381 10.6058 10.4883 10.1897 10.9619 9.80225C11.4363 9.4155 11.934 9.05884 12.4521 8.73373C12.9703 8.40936 13.5081 8.11728 14.0627 7.85969C14.6166 7.6021 15.1865 7.37974 15.7682 7.19333C15.0282 7.72319 14.051 8.40643 13.7591 8.95903C13.862 9.06251 15.196 8.45633 14.4765 8.92454C13.2038 9.82647 12.1777 10.6323 11.4239 11.419C10.6708 12.2057 10.2103 12.9542 10.2008 13.6918C10.2278 13.8525 10.905 13.4224 11.5363 13.156C12.1682 12.8889 12.7039 12.7451 12.4178 13.137C12.2135 13.3733 12.0157 13.6155 11.8253 13.8635C11.6348 14.1116 11.4516 14.3655 11.2765 14.6245C11.1013 14.8836 10.9335 15.1478 10.7737 15.4171C10.6146 15.6857 10.4628 15.9602 10.319 16.2383C10.2592 16.3352 10.2015 16.4328 10.1446 16.5311C10.0884 16.6302 10.0337 16.73 9.98114 16.8313C9.87575 17.0328 9.77789 17.2382 9.68778 17.447C9.67975 17.4705 9.67246 17.4947 9.66735 17.5197C9.66224 17.5439 9.65859 17.5688 9.65713 17.5938C9.65494 17.6187 9.65494 17.6437 9.65713 17.6686C9.65859 17.6936 9.66151 17.7185 9.66662 17.7428C9.55436 18.0616 9.45214 18.3839 9.36012 18.7093C9.26744 19.0344 9.1857 19.3631 9.11419 19.6934C8.96991 20.3545 8.86778 21.0241 8.80842 21.6983C8.77047 22.019 8.75076 22.3375 8.74128 22.6575C8.73179 22.6957 8.72157 22.7338 8.70917 22.7712C8.69676 22.8079 8.68363 22.8446 8.6683 22.8813C8.65371 22.9173 8.63765 22.9532 8.62014 22.9885C8.60262 23.0237 8.58438 23.0582 8.56395 23.092C8.63838 23.293 8.70114 23.4926 8.75514 23.6901C8.76682 23.9036 8.7836 24.1157 8.80696 24.3278C8.83031 24.5399 8.8595 24.7512 8.8938 24.9619C8.92883 25.1725 8.96896 25.3816 9.01567 25.5901C9.06164 25.7977 9.11346 26.0047 9.17111 26.2102C9.18716 26.3298 9.20468 26.4487 9.22511 26.5676C9.24554 26.6865 9.26744 26.8046 9.29152 26.9228C9.3156 27.0402 9.34187 27.1583 9.37033 27.275C9.39879 27.3924 9.42871 27.5084 9.46082 27.6244C9.50826 27.5921 9.54694 27.49 9.63232 27.5495C9.73521 27.7961 9.84541 28.039 9.96363 28.2775C10.0826 28.5167 10.2081 28.7516 10.3424 28.9827C10.4759 29.2132 10.6168 29.4392 10.7649 29.6608C10.9138 29.8817 11.0692 30.0982 11.2312 30.3096C11.2823 30.3999 11.3319 30.4909 11.3801 30.5826C11.4283 30.6743 11.4742 30.7668 11.5188 30.8607C11.564 30.9539 11.6071 31.0486 11.6479 31.1433C11.6895 31.2379 11.7297 31.3341 11.7676 31.4302C12.3551 31.6834 13.0746 32.3072 13.9292 32.9082C14.1364 33.0631 14.3495 33.2099 14.5677 33.35C14.7852 33.4895 15.0085 33.6208 15.2354 33.7448C15.4624 33.8689 15.6937 33.9841 15.9294 34.0912C16.1644 34.1984 16.4038 34.2975 16.6461 34.3877V34.3723C16.8643 34.4582 17.0854 34.5389 17.3087 34.613C17.5313 34.6871 17.756 34.7554 17.983 34.817C18.4358 34.9421 18.895 35.0423 19.3586 35.1172C19.3951 35.1341 19.4316 35.1517 19.4673 35.1693C19.5031 35.1876 19.5389 35.206 19.5739 35.2251C19.6096 35.2441 19.6447 35.264 19.679 35.2838C19.714 35.3036 19.7483 35.3241 19.7826 35.3454C20.0285 35.2882 20.2745 35.3036 20.3971 35.2669C21.1597 35.3821 21.8026 35.4724 22.4703 35.5201C22.5141 35.4885 22.5586 35.4592 22.6039 35.4313C22.6955 35.3763 22.7917 35.3294 22.8914 35.2911C22.941 35.272 22.9921 35.2544 23.0432 35.2397C23.2859 35.2131 23.5275 35.1761 23.7671 35.1289C23.8868 35.1054 24.0065 35.0798 24.1254 35.0511C24.2436 35.0225 24.3619 34.9917 24.4793 34.9579C24.6173 34.9264 24.7537 34.8934 24.8902 34.8589C25.0267 34.8236 25.1631 34.7862 25.2981 34.7473C25.4339 34.7084 25.5682 34.6673 25.7024 34.624C25.8367 34.5815 25.9703 34.5367 26.1031 34.4897C26.557 34.3297 27.0029 34.1463 27.4378 33.9408C28.309 33.5286 29.1362 33.0282 29.9066 32.4474C30.2912 32.1567 30.6612 31.8471 31.0144 31.519C31.0348 31.5205 31.0552 31.5227 31.0749 31.5271C31.0954 31.5315 31.1151 31.5374 31.1348 31.5447C31.1538 31.552 31.1727 31.5601 31.191 31.5696C31.2092 31.5799 31.2267 31.5909 31.2428 31.6034C31.3727 31.3091 31.7128 31.0405 31.8346 30.7873C31.823 30.8453 31.8346 30.8908 31.8667 30.9106C31.9061 30.8387 31.947 30.7683 31.9908 30.6993C32.0346 30.631 32.0798 30.5635 32.128 30.4975C32.1754 30.4314 32.2258 30.3668 32.2776 30.3045C32.3294 30.2413 32.3834 30.1804 32.4396 30.1217C32.4943 30.0681 32.5483 30.0146 32.6016 29.9588C32.6549 29.9038 32.7067 29.8472 32.757 29.79C32.8074 29.732 32.857 29.6741 32.9052 29.6139C32.9534 29.5544 33.0001 29.4943 33.046 29.4326C33.0643 29.3908 33.0811 29.3482 33.0971 29.3057C33.1139 29.2631 33.1292 29.2205 33.1438 29.1772C33.1577 29.1339 33.1716 29.0906 33.184 29.0466C33.1971 29.0026 33.2088 28.9585 33.2197 28.9145C33.2708 28.8396 33.319 28.7626 33.3664 28.6877C34.1108 28.0294 34.3684 27.093 34.6544 26.0986C34.7471 25.8513 34.8332 25.6011 34.9128 25.3493C34.9916 25.0969 35.0638 24.8422 35.128 24.5854C35.193 24.3293 35.2506 24.0709 35.3003 23.8111C35.3506 23.5514 35.3937 23.2901 35.4287 23.0281C35.5265 22.1915 35.744 21.8598 35.8564 21.247"
    fill="#189AB6"/>
  <path
    d="M14.6864 33.6737C14.874 33.808 15.0645 33.9372 15.2586 34.0612C15.4527 34.1852 15.6497 34.3041 15.8497 34.4186C16.0496 34.5324 16.2525 34.641 16.4583 34.7444C16.6641 34.8479 16.8721 34.9455 17.0822 35.0387C16.1518 34.7202 15.2702 34.4377 14.6864 33.6796M13.0379 12.8545C13.1313 12.8244 13.2247 12.7921 13.3167 12.7576C13.4093 12.7239 13.5013 12.6879 13.5918 12.6497C13.683 12.6123 13.7735 12.5734 13.8633 12.5323C13.9523 12.4912 14.0413 12.4479 14.1289 12.4039C13.6867 12.7195 13.2656 13.0644 12.8686 13.4364C12.4716 13.8085 12.1002 14.207 11.7564 14.6297C11.4127 15.0517 11.0975 15.4972 10.8136 15.9617C10.529 16.427 10.2757 16.9099 10.0561 17.4089H10.0386C10.1356 17.1814 10.24 16.9568 10.3524 16.7367C10.4648 16.5158 10.5844 16.2993 10.7121 16.0879C10.8399 15.8758 10.9749 15.6689 11.1172 15.4663C11.2595 15.2645 11.4091 15.0671 11.5652 14.8756C12.1695 14.0808 12.7876 13.4188 13.0452 12.8589M12.7577 32.1098L12.7905 32.1186C12.8015 32.1216 12.8131 32.1245 12.8241 32.1282C12.835 32.1319 12.846 32.1348 12.8569 32.1385C12.8671 32.1421 12.8781 32.1465 12.889 32.1502C12.8774 32.148 12.8649 32.1458 12.8533 32.1429C12.8416 32.1399 12.8299 32.1363 12.8182 32.1326C12.7953 32.1244 12.7731 32.1144 12.7518 32.1025M15.5067 7.77462L15.7563 7.68289C15.4473 7.81954 15.1424 7.96515 14.8419 8.11954C14.6915 8.1966 14.5427 8.27586 14.3945 8.35732C14.2464 8.43878 14.0997 8.5217 13.9538 8.60757C14.0756 8.52464 14.199 8.44538 14.3252 8.36906C14.4507 8.29274 14.5792 8.22008 14.7083 8.15036C14.8382 8.08065 14.9696 8.0146 15.1024 7.95222C15.2359 7.88911 15.3702 7.8304 15.5067 7.77462ZM22.627 6.92847C22.9678 6.95195 23.3086 6.98644 23.6472 7.03268C23.9858 7.07891 24.323 7.13689 24.6579 7.2066C24.9929 7.27559 25.3256 7.35631 25.6548 7.44805C25.9846 7.54052 26.3108 7.64326 26.6334 7.75774C27.0293 7.91755 27.4164 8.09858 27.793 8.30007C28.1695 8.50116 28.5351 8.72205 28.8891 8.96276C29.2423 9.20274 29.5831 9.46106 29.9093 9.73773C30.2355 10.0144 30.5471 10.3072 30.8419 10.6169C30.2676 10.1142 29.6568 9.65554 29.0146 9.24384C28.3731 8.83213 27.701 8.46813 27.0063 8.15624C26.3108 7.84434 25.5935 7.58455 24.8601 7.37906C24.1259 7.17358 23.3786 7.02314 22.6233 6.92847M16.7356 10.8202C16.8465 10.796 16.9582 10.7732 17.0706 10.7519C17.1822 10.7314 17.2946 10.7123 17.407 10.6954C17.6326 10.662 17.8592 10.6359 18.0864 10.6169C17.9769 10.6426 17.8689 10.6697 17.7609 10.6984C17.6522 10.7277 17.5449 10.7578 17.4376 10.7901C17.3304 10.8217 17.2238 10.8554 17.1173 10.8906C17.0115 10.9259 16.9056 10.9626 16.8006 11.0007C16.8597 10.9185 16.7641 10.8723 16.7356 10.8224M10.8493 10.9244L11.1507 10.6455C10.9223 10.9185 10.7005 11.193 10.4925 11.4785C10.556 11.3618 10.7311 11.1101 10.8493 10.9244ZM21.4747 10.3579C21.1499 10.3307 20.8237 10.3197 20.4997 10.3256C20.6902 10.2793 20.8814 10.2272 21.0719 10.1604C21.1025 10.1817 21.1339 10.2015 21.166 10.2199C21.1981 10.239 21.2309 10.2566 21.2645 10.272C21.2981 10.2881 21.3324 10.3028 21.3667 10.316C21.4017 10.33 21.4367 10.3417 21.4725 10.352M26.351 11.4866C26.448 11.5335 26.5444 11.5827 26.64 11.6341C26.7348 11.6854 26.829 11.7383 26.9224 11.7933C27.0151 11.8484 27.107 11.9049 27.1982 11.9636C27.2887 12.0223 27.3785 12.0825 27.4675 12.1448C27.3544 12.0803 27.2405 12.0179 27.126 11.957C27.0114 11.8961 26.8954 11.8373 26.7793 11.7801C26.6626 11.7229 26.5451 11.6671 26.4276 11.6135C26.3094 11.5599 26.1904 11.5078 26.0707 11.4579C26.2006 11.4579 26.3094 11.4579 26.351 11.4866Z"
    fill="#189AB6"/>
</svg>
