<svg fill="none" height="36" viewBox="0 0 64 36" width="64" xmlns="http://www.w3.org/2000/svg">
  <path
    d="M44.3519 5.15827C44.3805 5.15825 44.4091 5.15823 44.4386 5.1582C46.5098 5.16077 48.6811 5.80491 50.2998 7.13327C50.2545 7.25572 50.199 7.36225 50.1299 7.47298C50.109 7.50674 50.0881 7.54049 50.0665 7.57526C50.0438 7.61159 50.0211 7.64792 49.9978 7.68535C49.949 7.76383 49.9004 7.84237 49.8518 7.9209C49.833 7.95124 49.833 7.95124 49.8138 7.98219C49.6799 8.19833 49.5482 8.41576 49.4165 8.63327C49.1465 9.07907 48.8736 9.52309 48.5998 9.9666C48.4622 9.87636 48.3299 9.7815 48.1978 9.68327C46.7766 8.66022 45.0177 8.26076 43.2907 8.53645C41.5791 8.84034 40.0303 9.8064 39.0332 11.2333C38.0637 12.6503 37.6334 14.4083 37.9484 16.1086C38.1484 17.117 38.528 18.0852 39.1665 18.8999C39.1886 18.929 39.2108 18.9581 39.2336 18.9881C39.8328 19.7599 40.5646 20.3542 41.4332 20.7999C41.4536 20.8107 41.4741 20.8214 41.4951 20.8324C42.9843 21.6065 44.7654 21.6904 46.3558 21.2061C47.952 20.6976 49.3474 19.5617 50.1276 18.0747C50.1517 18.0276 50.1758 17.9804 50.1998 17.9333C50.2105 17.9129 50.2212 17.8925 50.2322 17.8715C50.5339 17.2912 50.7292 16.6444 50.8332 15.9999C50.837 15.9762 50.8409 15.9525 50.8449 15.928C50.935 15.3421 50.93 14.7415 50.8582 14.1541C50.8522 14.1041 50.8522 14.1041 50.8461 14.053C50.8254 13.898 50.7993 13.7546 50.7459 13.6074C50.6563 13.349 50.6345 13.177 50.753 12.9221C50.8576 12.7237 50.9746 12.5339 51.0955 12.3452C51.2014 12.1782 51.2992 12.0067 51.3978 11.8354C51.4362 11.7697 51.4747 11.7042 51.5133 11.6386C51.6439 11.4156 51.7719 11.1912 51.8998 10.9666C52.1414 10.5427 52.3864 10.1208 52.6332 9.69994C52.7739 9.83321 52.8592 9.97826 52.954 10.1458C52.9715 10.1766 52.989 10.2075 53.007 10.2392C54.2605 12.4871 54.5319 15.22 53.8394 17.6895C53.6435 18.3562 53.3822 18.9811 53.0665 19.5999C53.0523 19.6278 53.0381 19.6556 53.0235 19.6843C52.7495 20.2155 52.4028 20.6982 52.0332 21.1666C52.1939 21.359 52.3657 21.5349 52.5447 21.7102C52.5656 21.7308 52.5865 21.7515 52.608 21.7727C52.6265 21.7908 52.645 21.8089 52.664 21.8275C52.725 21.8914 52.7826 21.9567 52.8403 22.0236C52.9689 22.1714 53.1055 22.3099 53.2445 22.4479C53.2701 22.4734 53.2956 22.4989 53.322 22.5252C53.4027 22.6057 53.4836 22.6862 53.5644 22.7666C53.6196 22.8216 53.6747 22.8766 53.7299 22.9316C53.8642 23.0656 53.9987 23.1995 54.1332 23.3333C54.2368 23.2838 54.3101 23.2311 54.3936 23.152C54.6274 22.9468 54.8003 22.9219 55.1067 22.9135C55.4364 22.9651 55.657 23.1666 55.8825 23.3985C55.9111 23.4272 55.9397 23.456 55.9691 23.4856C56.0596 23.5768 56.1495 23.6686 56.2394 23.7604C56.3001 23.8216 56.3609 23.8828 56.4217 23.944C56.8718 24.3987 56.8718 24.3987 57.0054 24.5559C57.1749 24.7522 57.3619 24.9323 57.5458 25.1151C57.6157 25.1845 57.6855 25.2541 57.7552 25.3237C57.9033 25.4714 58.0516 25.619 58.1998 25.7666C58.3718 25.9378 58.5437 26.109 58.7155 26.2804C58.7838 26.3485 58.8523 26.4166 58.9208 26.4846C59.0981 26.6613 59.273 26.837 59.4351 27.0277C59.5869 27.197 59.7513 27.3549 59.9125 27.5151C59.9824 27.5845 60.0521 27.6541 60.1219 27.7237C60.27 27.8714 60.4183 28.019 60.5665 28.1666C60.7385 28.3378 60.9104 28.509 61.0821 28.6804C61.1505 28.7485 61.219 28.8166 61.2875 28.8846C61.4713 29.0677 61.6535 29.2499 61.8215 29.4478C61.8856 29.522 61.9554 29.5891 62.0267 29.6563C62.0543 29.683 62.082 29.7096 62.1105 29.7371C62.1678 29.792 62.2253 29.8465 62.2832 29.9007C62.4889 30.1004 62.4889 30.1004 62.5418 30.2592C62.5254 30.4635 62.3907 30.5855 62.2505 30.7236C62.2328 30.7413 62.215 30.7591 62.1968 30.7773C62.1594 30.8146 62.1218 30.8519 62.0842 30.8891C62.0275 30.9452 61.971 31.0016 61.9146 31.058C61.878 31.0945 61.8413 31.1309 61.8047 31.1674C61.7881 31.1839 61.7716 31.2004 61.7545 31.2174C61.6643 31.3065 61.5719 31.3914 61.4756 31.4739C61.3201 31.6088 61.1758 31.754 61.0313 31.9004C60.9826 31.9496 60.9338 31.9988 60.8849 32.0479C60.7462 32.1874 60.6078 32.3271 60.4695 32.4669C60.3844 32.5529 60.2991 32.6387 60.2137 32.7244C60.1814 32.757 60.1491 32.7896 60.1169 32.8222C60.072 32.8678 60.0269 32.9131 59.9818 32.9584C59.9562 32.9842 59.9307 33.01 59.9044 33.0365C59.7999 33.1296 59.7337 33.165 59.5935 33.1715C59.405 33.1148 59.3022 32.9944 59.1676 32.855C59.1396 32.8268 59.1116 32.7987 59.0828 32.7696C58.9936 32.6795 58.905 32.5887 58.8165 32.4979C58.757 32.4376 58.6974 32.3774 58.6377 32.3172C58.1984 31.8722 58.1984 31.8722 58.0612 31.7108C57.8915 31.5145 57.7045 31.3343 57.5206 31.1515C57.4507 31.082 57.3809 31.0124 57.3111 30.9428C57.163 30.7951 57.0148 30.6475 56.8665 30.4999C56.6945 30.3288 56.5226 30.1575 56.3509 29.9862C56.2825 29.918 56.214 29.85 56.1456 29.7819C55.9682 29.6053 55.7934 29.4296 55.6312 29.2388C55.4795 29.0695 55.3151 28.9117 55.1539 28.7515C55.084 28.682 55.0142 28.6124 54.9444 28.5428C54.7963 28.3951 54.6481 28.2475 54.4998 28.0999C54.3279 27.9288 54.156 27.7575 53.9842 27.5862C53.9158 27.518 53.8474 27.45 53.7789 27.3819C53.5953 27.199 53.4133 27.0171 53.2455 26.8195C53.1777 26.7409 53.1037 26.6696 53.0286 26.598C52.9984 26.5686 52.9682 26.5392 52.937 26.509C52.8746 26.4487 52.8119 26.3886 52.749 26.3288C52.5381 26.1227 52.3927 25.9484 52.35 25.6519C52.3567 25.2957 52.4181 25.0905 52.6665 24.8333C52.6185 24.6745 52.5243 24.5774 52.4087 24.4641C52.3794 24.4348 52.3794 24.4348 52.3495 24.4049C52.2852 24.3406 52.2205 24.2767 52.1558 24.2128C52.1111 24.1683 52.0663 24.1236 52.0216 24.079C51.904 23.9618 51.7861 23.8449 51.6681 23.728C51.5478 23.6087 51.4277 23.489 51.3075 23.3694C51.0719 23.1349 50.836 22.9006 50.5998 22.6666C50.4594 22.7194 50.3624 22.7839 50.2457 22.8791C48.8852 23.9504 47.0885 24.6215 45.3665 24.7666C45.3166 24.7708 45.3166 24.7708 45.2656 24.7752C42.6972 24.9778 40.1661 24.2347 38.1665 22.5999C38.1484 22.5853 38.1303 22.5707 38.1117 22.5557C37.6081 22.1471 37.1247 21.6845 36.7332 21.1666C36.7 21.1247 36.6667 21.0828 36.6334 21.041C35.2748 19.3196 34.5598 17.186 34.5582 14.9979C34.5582 14.97 34.5581 14.9422 34.5581 14.9136C34.5611 12.587 35.3939 10.316 36.9332 8.5666C36.9497 8.54726 36.9661 8.52791 36.9831 8.50797C37.14 8.32507 37.3069 8.15331 37.4773 7.98299C37.5245 7.93572 37.5714 7.88817 37.6183 7.84063C37.8239 7.63462 38.0373 7.44586 38.2665 7.2666C38.2921 7.2466 38.3176 7.2266 38.3439 7.20598C38.7333 6.90558 39.138 6.6409 39.5665 6.39994C39.6081 6.37642 39.6081 6.37642 39.6506 6.35243C41.0868 5.54905 42.7116 5.15944 44.3519 5.15827Z"
    fill="#FE4131"/>
  <path
    d="M19.7666 5.66675C24.1996 5.66675 28.6326 5.66675 33.1999 5.66675C33.1999 6.74475 33.1999 7.82275 33.1999 8.93341C29.8449 8.93341 26.4899 8.93341 23.0333 8.93341C23.0333 10.3414 23.0333 11.7494 23.0333 13.2001C26.2673 13.2001 29.5013 13.2001 32.8333 13.2001C32.8333 14.2781 32.8333 15.3561 32.8333 16.4667C29.5993 16.4667 26.3653 16.4667 23.0333 16.4667C23.0333 17.8307 23.0333 19.1947 23.0333 20.6001C26.3883 20.6001 29.7433 20.6001 33.1999 20.6001C33.1999 21.6781 33.1999 22.7561 33.1999 23.8667C28.7669 23.8667 24.3339 23.8667 19.7666 23.8667C19.7666 17.8607 19.7666 11.8547 19.7666 5.66675Z"
    fill="#FEBD00"/>
  <path
    d="M15.4449 7.08183C15.5312 7.16447 15.6157 7.2487 15.7001 7.33326C15.7229 7.35449 15.7457 7.37572 15.7691 7.39759C16.1776 7.78429 16.5378 8.30399 16.7335 8.83326C16.4968 8.95801 16.2512 9.05576 16.0025 9.15371C15.9572 9.17163 15.9119 9.18956 15.8667 9.20751C15.7478 9.2546 15.6289 9.30154 15.51 9.34845C15.4145 9.38614 15.3191 9.42394 15.2236 9.46174C15.1076 9.5077 14.9915 9.55363 14.8754 9.59954C14.8529 9.60845 14.8304 9.61735 14.8072 9.62653C14.5946 9.71058 14.382 9.79445 14.1685 9.87602C14.1259 9.89233 14.1259 9.89233 14.0824 9.90896C14.0322 9.92813 13.9818 9.94715 13.9315 9.96598C13.8373 10.0019 13.7723 10.0278 13.7001 10.0999C13.6776 10.0666 13.6776 10.0666 13.6547 10.0326C12.9823 9.0691 11.9304 8.65069 10.808 8.44614C10.4077 8.37702 10.0057 8.34796 9.60013 8.33326C9.54451 8.33114 9.54451 8.33114 9.48776 8.32897C8.34464 8.30798 7.02908 8.47432 6.16849 9.29524C5.77905 9.70411 5.71305 10.1845 5.72318 10.7228C5.73748 11.0633 5.86096 11.3242 6.10013 11.5666C7.15844 12.4716 8.92158 12.5766 10.2467 12.7968C12.0951 13.1052 14.0271 13.5019 15.4335 14.8333C15.4629 14.8606 15.4924 14.8879 15.5228 14.9161C16.5066 15.8581 16.9308 17.1902 16.9763 18.5262C17.0048 19.9628 16.567 21.2495 15.5668 22.2999C15.5497 22.3179 15.5327 22.3359 15.5151 22.3544C15.0716 22.8185 14.583 23.1705 14.0335 23.4999C14.0128 23.5124 13.9921 23.5248 13.9708 23.5377C12.7359 24.2693 11.2243 24.6085 9.79805 24.6062C9.77493 24.6062 9.75181 24.6061 9.728 24.6061C7.20371 24.6002 4.79428 23.9176 2.93346 22.1666C2.91151 22.1461 2.88955 22.1255 2.86693 22.1044C2.69527 21.9386 2.54699 21.7543 2.40013 21.5666C2.38585 21.5484 2.37158 21.5302 2.35687 21.5114C1.4668 20.3654 1.4668 20.3654 1.4668 19.9666C2.11462 19.6687 2.76351 19.3735 3.41605 19.086C3.46292 19.0653 3.50978 19.0446 3.55664 19.0239C3.57919 19.0139 3.60174 19.004 3.62498 18.9937C3.82551 18.9046 4.02386 18.8109 4.22142 18.7154C4.39297 18.6333 4.39297 18.6333 4.4668 18.6333C4.48459 18.6691 4.50237 18.705 4.5207 18.742C4.86743 19.4276 5.34249 19.9929 6.00013 20.3999C6.03519 20.4224 6.07025 20.4449 6.10638 20.468C7.04853 21.0424 8.24285 21.274 9.33346 21.2999C9.36337 21.3008 9.39328 21.3016 9.42409 21.3025C10.6518 21.3342 12.0489 21.0703 12.9855 20.2124C13.0471 20.1537 13.107 20.0938 13.1668 20.0333C13.197 20.0042 13.197 20.0042 13.2277 19.9745C13.5614 19.626 13.6785 19.1603 13.677 18.6932C13.6639 18.1248 13.54 17.6256 13.1422 17.2054C12.266 16.3761 10.7943 16.2398 9.65773 16.0486C4.58739 15.1955 4.58739 15.1955 3.21562 13.2831C2.91828 12.8585 2.70175 12.4018 2.5668 11.8999C2.56021 11.8756 2.55363 11.8514 2.54684 11.8263C2.43782 11.401 2.42036 10.9782 2.41888 10.5416C2.41867 10.5159 2.41847 10.4902 2.41826 10.4638C2.41576 9.97907 2.47257 9.50035 2.60638 9.03326C2.61329 9.00897 2.62019 8.98468 2.62731 8.95966C3.0276 7.6188 4.01518 6.58495 5.22435 5.92493C8.0219 4.44322 12.1757 4.7294 15.4449 7.08183Z"
    fill="#0085F7"/>
  <path
    d="M55.1 2.83325C55.1039 3.10101 55.0936 3.36393 55.0694 3.63055C55.0662 3.668 55.0629 3.70544 55.0596 3.74403C55.0489 3.86632 55.038 3.98859 55.0271 4.11086C55.0196 4.19623 55.0122 4.2816 55.0047 4.36697C54.9871 4.56778 54.9694 4.76857 54.9516 4.96936C54.9313 5.19821 54.9112 5.42708 54.8911 5.65595C54.8499 6.12618 54.8084 6.59639 54.7667 7.06659C54.6507 7.04059 54.5741 6.99994 54.4754 6.9326C54.4453 6.91225 54.4152 6.89191 54.3842 6.87095C54.353 6.84957 54.3218 6.82819 54.2896 6.80617C54.0965 6.67468 53.9051 6.54553 53.7 6.43325C53.6893 6.45229 53.6787 6.47132 53.6677 6.49093C53.4598 6.86092 53.2502 7.22973 53.0354 7.59575C52.8558 7.90214 52.6811 8.21103 52.5084 8.52139C52.3563 8.79391 52.1997 9.06351 52.0417 9.3326C51.9026 9.57009 51.7672 9.80943 51.6334 10.0499C51.4622 10.3576 51.2866 10.6623 51.1084 10.9659C50.9693 11.2034 50.8339 11.4428 50.7 11.6833C50.5288 11.9909 50.3533 12.2957 50.175 12.5993C50.036 12.8368 49.9005 13.0761 49.7667 13.3166C49.5955 13.6242 49.42 13.929 49.2417 14.2326C49.1026 14.4701 48.9672 14.7094 48.8334 14.9499C48.6235 15.3269 48.4074 15.7 48.1889 16.072C48.0922 16.2367 47.9962 16.4016 47.9 16.5666C47.7706 16.5462 47.6688 16.507 47.552 16.448C47.516 16.43 47.48 16.4119 47.443 16.3933C47.4038 16.3735 47.3647 16.3536 47.3244 16.3331C47.2825 16.312 47.2406 16.2909 47.1987 16.2699C47.1086 16.2246 47.0186 16.1791 46.9286 16.1336C46.7865 16.0617 46.6441 15.9901 46.5017 15.9186C46.1226 15.728 45.7436 15.537 45.3648 15.3458C45.1157 15.2201 44.8665 15.0945 44.6172 14.9694C44.4756 14.8982 44.3341 14.8268 44.1927 14.7552C44.1049 14.7107 44.0169 14.6666 43.9289 14.6225C43.8881 14.602 43.8473 14.5813 43.8065 14.5606C43.751 14.5323 43.6953 14.5045 43.6396 14.4767C43.6084 14.461 43.5773 14.4452 43.5452 14.429C43.4635 14.3894 43.4635 14.3894 43.3667 14.4333C43.3096 14.5001 43.3096 14.5001 43.2543 14.5843C43.2326 14.6159 43.211 14.6474 43.1886 14.68C43.1541 14.7311 43.1541 14.7311 43.1188 14.7833C43.0703 14.854 43.0218 14.9247 42.9733 14.9954C42.9375 15.0478 42.9375 15.0478 42.901 15.1013C42.8116 15.2316 42.7207 15.3607 42.6292 15.4895C42.4855 15.6925 42.3426 15.8961 42.2 16.0999C42.0561 16.3058 41.9117 16.5114 41.7667 16.7166C41.5434 17.0325 41.3217 17.3495 41.1 17.6666C40.7026 18.2351 40.304 18.8027 39.9 19.3666C39.6904 19.2016 39.531 19.0093 39.3667 18.7999C39.4549 18.5684 39.556 18.3475 39.6688 18.127C39.7931 17.8811 39.9152 17.6343 40.0334 17.3853C40.2012 17.0321 40.3723 16.6805 40.5438 16.3291C40.7313 15.9447 40.9185 15.5602 41.1042 15.1749C41.273 14.8246 41.4426 14.4747 41.6125 14.1249C41.6364 14.0758 41.6602 14.0267 41.6841 13.9777C41.7805 13.7792 41.8769 13.5808 41.9734 13.3823C42.0334 13.2589 42.0934 13.1355 42.1533 13.012C42.1756 12.9661 42.1979 12.9202 42.2203 12.8743C42.3722 12.5621 42.5207 12.2483 42.6667 11.9333C42.8452 11.9866 43.0064 12.0643 43.1728 12.1467C43.217 12.1683 43.217 12.1683 43.2621 12.1905C43.3249 12.2213 43.3877 12.2522 43.4505 12.2831C43.6138 12.3636 43.7773 12.4437 43.9408 12.5239C43.9726 12.5395 44.0045 12.5551 44.0373 12.5712C44.2618 12.6814 44.4867 12.7904 44.7125 12.8978C44.9699 13.0203 45.2268 13.1436 45.4835 13.2677C45.5452 13.2975 45.607 13.3274 45.6688 13.3572C45.8687 13.4537 46.0686 13.5503 46.2684 13.6472C46.3421 13.6828 46.4159 13.7185 46.4896 13.7541C46.5228 13.7702 46.556 13.7864 46.5903 13.803C46.7905 13.8996 46.9925 13.987 47.2 14.0666C47.2097 14.0486 47.2194 14.0305 47.2293 14.012C47.4419 13.6167 47.6607 13.226 47.8882 12.8392C48.0286 12.6 48.1652 12.3589 48.3 12.1166C48.4526 11.8425 48.6079 11.5704 48.7667 11.2999C48.9472 10.9924 49.1229 10.6826 49.2965 10.3712C49.4662 10.0669 49.6387 9.76422 49.812 9.46196C49.9052 9.29936 49.9982 9.13661 50.0911 8.97387C50.1481 8.87417 50.205 8.77448 50.262 8.67479C50.2851 8.63442 50.3081 8.59405 50.3312 8.55368C50.5542 8.16354 50.7771 7.77339 51 7.38325C51.011 7.36401 51.022 7.34476 51.0334 7.32493C51.0556 7.28601 51.0778 7.24708 51.1001 7.20816C51.1553 7.11146 51.2106 7.01476 51.2658 6.91805C51.3694 6.73677 51.473 6.55554 51.5769 6.37451C51.6257 6.28955 51.6745 6.20457 51.7232 6.11958C51.7463 6.07931 51.7694 6.03905 51.7926 5.99881C51.9123 5.79073 52.0289 5.58282 52.1334 5.36659C52.0723 5.31932 52.0112 5.2721 51.95 5.22492C51.931 5.21024 51.912 5.19557 51.8924 5.18045C51.7803 5.09409 51.6674 5.00872 51.5537 4.9244C51.5174 4.89747 51.5174 4.89747 51.4804 4.87C51.4328 4.83471 51.3851 4.79953 51.3373 4.76447C51.1704 4.64061 51.1704 4.64061 51.1334 4.56659C51.9009 4.22701 52.6687 3.888 53.4374 3.55099C53.715 3.42926 53.9925 3.30724 54.2697 3.18455C54.3098 3.16681 54.3098 3.16681 54.3507 3.14871C54.4773 3.09271 54.6039 3.03665 54.7304 2.98049C54.7748 2.96083 54.8192 2.94118 54.8636 2.92153C54.9022 2.9044 54.9408 2.88728 54.9806 2.86963C55.0667 2.83325 55.0667 2.83325 55.1 2.83325Z"
    fill="#00A94C"/>
  <path
    d="M54.9854 22.9207C55.0239 22.9191 55.0625 22.9175 55.1022 22.9158C55.4347 22.96 55.6566 23.166 55.8826 23.3985C55.9112 23.4272 55.9398 23.4559 55.9692 23.4855C56.0597 23.5767 56.1496 23.6685 56.2396 23.7603C56.3003 23.8216 56.361 23.8828 56.4218 23.944C56.872 24.3987 56.872 24.3987 57.0055 24.5558C57.175 24.7522 57.362 24.9322 57.5459 25.115C57.6158 25.1845 57.6856 25.2541 57.7554 25.3236C57.9035 25.4714 58.0517 25.619 58.2 25.7666C58.3719 25.9377 58.5438 26.1089 58.7156 26.2803C58.784 26.3485 58.8524 26.4165 58.9209 26.4846C59.0982 26.6612 59.2731 26.8369 59.4353 27.0277C59.587 27.197 59.7514 27.3548 59.9126 27.515C59.9825 27.5845 60.0523 27.654 60.122 27.7236C60.2701 27.8714 60.4184 28.019 60.5666 28.1666C60.7386 28.3377 60.9105 28.5089 61.0823 28.6803C61.1506 28.7485 61.2191 28.8165 61.2876 28.8846C61.4714 29.0677 61.6536 29.2498 61.8216 29.4478C61.8857 29.522 61.9555 29.5891 62.0268 29.6563C62.0545 29.6829 62.0821 29.7096 62.1106 29.7371C62.1679 29.7919 62.2254 29.8464 62.2833 29.9006C62.489 30.1004 62.489 30.1004 62.5419 30.2591C62.5255 30.4635 62.3908 30.5854 62.2506 30.7236C62.2329 30.7413 62.2152 30.759 62.1969 30.7772C62.1595 30.8146 62.122 30.8518 62.0844 30.889C62.0276 30.9451 61.9712 31.0015 61.9147 31.058C61.8781 31.0944 61.8415 31.1309 61.8048 31.1673C61.7882 31.1838 61.7717 31.2003 61.7547 31.2173C61.6644 31.3064 61.572 31.3913 61.4757 31.4739C61.3202 31.6088 61.176 31.7539 61.0314 31.9003C60.9827 31.9496 60.9339 31.9987 60.885 32.0479C60.7464 32.1873 60.6079 32.327 60.4696 32.4668C60.3845 32.5528 60.2992 32.6386 60.2138 32.7244C60.1815 32.7569 60.1492 32.7895 60.117 32.8222C60.0721 32.8677 60.027 32.913 59.9819 32.9583C59.9564 32.9841 59.9308 33.0099 59.9045 33.0365C59.8 33.1295 59.7339 33.165 59.5937 33.1714C59.4052 33.1147 59.3024 32.9944 59.1677 32.855C59.1397 32.8268 59.1117 32.7986 59.0829 32.7696C58.9937 32.6794 58.9052 32.5886 58.8166 32.4978C58.7571 32.4375 58.6975 32.3773 58.6379 32.3171C58.1985 31.8722 58.1985 31.8722 58.0614 31.7108C57.8917 31.5144 57.7047 31.3343 57.5207 31.1514C57.4508 31.082 57.381 31.0124 57.3112 30.9428C57.1631 30.7951 57.0149 30.6475 56.8666 30.4999C56.6947 30.3287 56.5228 30.1575 56.351 29.9861C56.2826 29.918 56.2142 29.8499 56.1457 29.7819C55.9684 29.6052 55.7935 29.4295 55.6313 29.2388C55.4796 29.0695 55.3152 28.9116 55.154 28.7514C55.0841 28.682 55.0143 28.6124 54.9446 28.5428C54.7965 28.3951 54.6482 28.2475 54.5 28.0999C54.328 27.9287 54.1561 27.7575 53.9843 27.5861C53.916 27.518 53.8475 27.4499 53.779 27.3819C53.5954 27.199 53.4135 27.0171 53.2456 26.8194C53.1778 26.7409 53.1038 26.6696 53.0287 26.5979C52.9985 26.5686 52.9683 26.5392 52.9371 26.5089C52.8747 26.4486 52.812 26.3885 52.7491 26.3287C52.5382 26.1226 52.3928 25.9484 52.3501 25.6518C52.3566 25.3042 52.413 25.1108 52.6427 24.8488C52.7 24.7999 52.7 24.7999 52.8 24.7999C52.8079 24.7748 52.8159 24.7498 52.8241 24.724C52.8733 24.619 52.9207 24.5809 53.0146 24.5145C53.0974 24.4553 53.1607 24.4078 53.222 24.3261C53.2441 24.2966 53.2441 24.2966 53.2666 24.2666C53.2886 24.2666 53.3106 24.2666 53.3333 24.2666C53.3409 24.248 53.3484 24.2294 53.3562 24.2103C53.4123 24.1115 53.4854 24.0462 53.5666 23.9666C53.5981 23.9345 53.6295 23.9023 53.6608 23.8701C53.6926 23.8376 53.7244 23.8052 53.7562 23.7728C53.7724 23.7561 53.7886 23.7393 53.8052 23.7221C53.8467 23.6801 53.8899 23.6398 53.9333 23.5999C53.9553 23.5999 53.9773 23.5999 54 23.5999C54 23.5779 54 23.5559 54 23.5332C54.033 23.5112 54.066 23.4892 54.1 23.4666C54.111 23.4336 54.122 23.4006 54.1333 23.3666C54.3704 23.117 54.6368 22.9307 54.9854 22.9207Z"
    fill="#414E59"/>
  <path
    d="M54.1333 23.3667C54.1663 23.3667 54.1993 23.3667 54.2333 23.3667C54.2333 23.4667 54.2333 23.4667 54.1562 23.55C54.1267 23.5775 54.0971 23.605 54.0666 23.6334C54.0398 23.6622 54.0398 23.6622 54.0125 23.6917C53.9666 23.7334 53.9666 23.7334 53.8666 23.7667C53.8556 23.7997 53.8446 23.8327 53.8333 23.8667C53.7312 23.9063 53.7312 23.9063 53.6333 23.9334C53.6645 23.8965 53.6958 23.8597 53.7271 23.8229C53.7445 23.8025 53.7619 23.782 53.7798 23.7608C53.8779 23.6494 53.8779 23.6494 53.9333 23.6C53.9553 23.6 53.9773 23.6 54 23.6C54 23.578 54 23.556 54 23.5334C54.033 23.5114 54.066 23.4894 54.1 23.4667C54.111 23.4337 54.122 23.4007 54.1333 23.3667Z"
    fill="#6E484D"/>
  <path
    d="M53.5332 24.0334C53.5442 24.0554 53.5552 24.0774 53.5665 24.1001C53.5301 24.1449 53.4932 24.1892 53.4561 24.2334C53.4356 24.2582 53.4151 24.2829 53.394 24.3084C53.3332 24.3668 53.3332 24.3668 53.2332 24.3668C53.2332 24.3888 53.2332 24.4108 53.2332 24.4334C53.2112 24.4224 53.1892 24.4114 53.1665 24.4001C53.2123 24.3334 53.2123 24.3334 53.2665 24.2668C53.2885 24.2668 53.3105 24.2668 53.3332 24.2668C53.3414 24.2468 53.3497 24.2269 53.3582 24.2064C53.4053 24.1239 53.4549 24.0857 53.5332 24.0334Z"
    fill="#52494D"/>
  <path
    d="M47.5336 20.7C47.5556 20.711 47.5776 20.722 47.6002 20.7333C47.4869 20.8762 47.3422 20.9321 47.1669 20.9666C47.1339 20.9556 47.1009 20.9446 47.0669 20.9333C47.1431 20.8934 47.2195 20.8539 47.2961 20.8145C47.3286 20.7974 47.3286 20.7974 47.3618 20.78C47.4181 20.7513 47.4758 20.7254 47.5336 20.7Z"
    fill="#F14535"/>
  <path
    d="M45.7333 21.4C45.5189 21.5154 45.3707 21.5409 45.1333 21.5C45.1333 21.489 45.1333 21.478 45.1333 21.4666C45.202 21.4553 45.2708 21.4443 45.3396 21.4333C45.3778 21.4271 45.4161 21.4209 45.4556 21.4145C45.5501 21.4021 45.6382 21.3971 45.7333 21.4Z"
    fill="#EC473E"/>
  <path
    d="M53.8336 23.7332C53.7566 23.8102 53.6796 23.8872 53.6002 23.9666C53.5892 23.9336 53.5782 23.9006 53.5669 23.8666C53.5889 23.8666 53.6109 23.8666 53.6336 23.8666C53.6226 23.8226 53.6116 23.7786 53.6002 23.7332C53.7006 23.7021 53.7291 23.6984 53.8336 23.7332Z"
    fill="#E6493D"/>
  <path
    d="M47.4331 5.6333C47.5431 5.6663 47.6531 5.6993 47.7664 5.7333C47.7664 5.7443 47.7664 5.7553 47.7664 5.76663C47.6179 5.78313 47.6179 5.78313 47.4664 5.79997C47.4554 5.74497 47.4444 5.68997 47.4331 5.6333Z"
    fill="#EE473B"/>
  <path
    d="M54.1333 23.3667C54.1663 23.3667 54.1993 23.3667 54.2333 23.3667C54.2333 23.4667 54.2333 23.4667 54.1542 23.5542C54.0667 23.6334 54.0667 23.6334 54 23.6667C54 23.6227 54 23.5787 54 23.5334C54.033 23.5114 54.066 23.4894 54.1 23.4667C54.111 23.4337 54.122 23.4007 54.1333 23.3667Z"
    fill="#554852"/>
  <path
    d="M46.6667 21.1001C46.6667 21.1331 46.6667 21.1661 46.6667 21.2001C46.581 21.2541 46.5441 21.2682 46.4417 21.2543C46.4169 21.2474 46.3922 21.2405 46.3667 21.2334C46.4662 21.1671 46.5533 21.1354 46.6667 21.1001Z"
    fill="#EE463B"/>
  <path
    d="M36.1336 9.6001C36.1666 9.6001 36.1996 9.6001 36.2336 9.6001C36.2226 9.6661 36.2116 9.7321 36.2002 9.8001C36.1562 9.7891 36.1122 9.7781 36.0669 9.76676C36.0889 9.71176 36.1109 9.65676 36.1336 9.6001Z"
    fill="#F73E3C"/>
  <path
    d="M7.33327 15.4666C7.37727 15.4886 7.42127 15.5106 7.4666 15.5332C7.4666 15.5662 7.4666 15.5992 7.4666 15.6332C7.3676 15.6167 7.3676 15.6167 7.2666 15.5999C7.2886 15.5559 7.3106 15.5119 7.33327 15.4666Z"
    fill="#0B84E7"/>
  <path
    d="M53.1664 24.3333C53.1664 24.4333 53.1664 24.4333 53.1227 24.4795C53.0706 24.5196 53.0185 24.5598 52.9664 24.5999C52.9554 24.5669 52.9444 24.5339 52.9331 24.4999C52.9661 24.4999 52.9991 24.4999 53.0331 24.4999C53.0331 24.4669 53.0331 24.4339 53.0331 24.3999C53.0771 24.3779 53.1211 24.3559 53.1664 24.3333Z"
    fill="#BD4D3F"/>
  <path
    d="M39.6667 18.1333C39.7075 18.2557 39.6872 18.2865 39.6333 18.4C39.6003 18.4495 39.6003 18.4495 39.5667 18.5C39.5447 18.489 39.5227 18.478 39.5 18.4666C39.555 18.3566 39.61 18.2466 39.6667 18.1333Z"
    fill="#0FA14D"/>
  <path
    d="M48.6002 9.66675C48.6662 9.68325 48.6662 9.68325 48.7336 9.70008C48.7116 9.75508 48.6896 9.81008 48.6669 9.86675C48.6339 9.85575 48.6009 9.84475 48.5669 9.83341C48.5779 9.77841 48.5889 9.72341 48.6002 9.66675Z"
    fill="#F5433B"/>
  <path
    d="M4.73346 6.2666C4.72246 6.3106 4.71146 6.3546 4.70013 6.39993C4.62313 6.41093 4.54613 6.42193 4.4668 6.43327C4.62809 6.2666 4.62809 6.2666 4.73346 6.2666Z"
    fill="#0883E7"/>
  <path
    d="M52.5001 21.7C52.5661 21.755 52.6321 21.81 52.7001 21.8666C52.6671 21.8831 52.6671 21.8831 52.6335 21.9C52.546 21.8687 52.546 21.8687 52.4668 21.8333C52.4778 21.7893 52.4888 21.7453 52.5001 21.7Z"
    fill="#F5413B"/>
  <path
    d="M42.4666 8.6001C42.5436 8.6111 42.6206 8.6221 42.6999 8.63343C42.5936 8.70427 42.5244 8.71683 42.3999 8.73343C42.4219 8.68943 42.4439 8.64543 42.4666 8.6001Z"
    fill="#F14539"/>
  <path
    d="M38.5999 22.7334C38.5889 22.7884 38.5779 22.8434 38.5666 22.9001C38.5116 22.8561 38.4566 22.8121 38.3999 22.7667C38.4999 22.7334 38.4999 22.7334 38.5999 22.7334Z"
    fill="#F3443B"/>
  <path
    d="M16 21.4666C16.022 21.4666 16.044 21.4666 16.0667 21.4666C16.0887 21.5106 16.1107 21.5546 16.1333 21.5999C16.1003 21.6329 16.0673 21.6659 16.0333 21.6999C16.0223 21.6229 16.0113 21.5459 16 21.4666Z"
    fill="#0984E9"/>
  <path
    d="M52.0669 20.8667C52.1219 20.8667 52.1769 20.8667 52.2336 20.8667C52.1841 20.9492 52.1841 20.9492 52.1336 21.0334C52.1116 21.0224 52.0896 21.0114 52.0669 21C52.0669 20.956 52.0669 20.912 52.0669 20.8667Z"
    fill="#F54339"/>
  <path
    d="M41.1333 9.1333C41.2323 9.1498 41.2323 9.1498 41.3333 9.16663C41.1708 9.29997 41.1708 9.29997 41.1333 9.29997C41.1333 9.24497 41.1333 9.18997 41.1333 9.1333Z"
    fill="#F6423D"/>
</svg>
