<svg fill="none" height="64" viewBox="0 0 64 64" width="64" xmlns="http://www.w3.org/2000/svg">
  <g clip-path="url(#clip0_2313_747)">
    <path
      d="M63.1814 28.5493L50.5681 6.72264C49.4748 4.82931 46.7894 3.27197 44.5948 3.27197H19.3948C17.2081 3.27197 14.5121 4.82931 13.4214 6.72264L0.816094 28.5493C-0.27724 30.4426 -0.27724 33.544 0.816094 35.44L13.4161 57.2773C14.5094 59.1706 17.1948 60.728 19.3894 60.728H44.6028C46.7894 60.728 49.4721 59.1706 50.5761 57.2773L63.1788 35.4373C64.2721 33.544 64.2721 30.4426 63.1788 28.5493H63.1814ZM29.2694 15.3466C29.2694 13.9146 30.4374 12.7466 31.8668 12.7466C33.2961 12.7466 34.4668 13.9146 34.4668 15.3466V30.8693C34.4244 31.5294 34.1324 32.1486 33.6499 32.6011C33.1675 33.0536 32.5309 33.3054 31.8694 33.3054C31.208 33.3054 30.5714 33.0536 30.0889 32.6011C29.6065 32.1486 29.3144 31.5294 29.2721 30.8693L29.2694 15.3466ZM31.8668 48.4933C27.195 48.487 22.7165 46.6279 19.4136 43.324C16.1107 40.0201 14.253 35.541 14.2481 30.8693C14.2548 28.1216 14.9009 25.4131 16.1353 22.9582C17.3697 20.5033 19.1585 18.3694 21.3601 16.7253C21.6039 16.5436 21.8813 16.4119 22.1762 16.3377C22.471 16.2635 22.7777 16.2482 23.0785 16.2928C23.3793 16.3374 23.6683 16.441 23.9289 16.5976C24.1896 16.7542 24.4168 16.9607 24.5974 17.2053C24.779 17.4487 24.9107 17.7256 24.9851 18.02C25.0595 18.3144 25.0751 18.6206 25.031 18.9211C24.9869 19.2215 24.884 19.5104 24.7282 19.771C24.5723 20.0316 24.3666 20.2589 24.1228 20.44C21.4513 22.53 19.7023 25.5811 19.2489 28.9425C18.7954 32.304 19.6734 35.7095 21.6955 38.4327C23.7176 41.1559 26.7238 42.9811 30.0727 43.519C33.4217 44.0569 36.8482 43.2649 39.6214 41.312C41.2493 40.1008 42.5714 38.5257 43.4822 36.7125C44.3929 34.8994 44.8671 32.8984 44.8668 30.8693C44.8608 28.8326 44.3788 26.8256 43.4593 25.0083C42.5398 23.191 41.2082 21.6138 39.5708 20.4026C39.0779 20.0372 38.7498 19.4915 38.6583 18.8847C38.5669 18.278 38.7195 17.6598 39.0828 17.1653C39.4482 16.6724 39.994 16.3443 40.6007 16.2529C41.2074 16.1614 41.8256 16.314 42.3201 16.6773C44.5396 18.3192 46.3437 20.458 47.588 22.9225C48.8322 25.3869 49.4821 28.1085 49.4854 30.8693C49.4819 35.5417 47.6242 40.0217 44.3204 43.3256C41.0165 46.6294 36.5365 48.4871 31.8641 48.4906"
      fill="#6AAC3D"/>
  </g>
  <defs>
    <clipPath id="clip0_2313_747">
      <rect fill="white" height="64" width="64"/>
    </clipPath>
  </defs>
</svg>
