<svg fill="none" height="64" viewBox="0 0 64 64" width="64" xmlns="http://www.w3.org/2000/svg">
  <path
    d="M17.1242 30.5119C21.9007 32.1889 26.9389 32.997 32.0002 32.8979C37.0617 32.9964 42.0999 32.1876 46.8762 30.5099C50.6042 29.0559 51.9262 27.4399 51.9262 26.5099V19.3999C50.6225 20.2721 49.2243 20.994 47.7582 21.5519C42.705 23.361 37.3668 24.2432 32.0002 24.1559C26.6342 24.2401 21.2968 23.3594 16.2422 21.5559C14.7753 20.9983 13.3769 20.275 12.0742 19.3999V26.4999C12.0742 27.4479 13.4002 29.0559 17.1242 30.5119ZM17.1242 43.9219C18.8114 44.5655 20.5513 45.0613 22.3242 45.4039C25.5125 46.0194 28.7531 46.3228 32.0002 46.3099C35.2473 46.3235 38.4879 46.0207 41.6762 45.4059C43.4492 45.0633 45.189 44.5675 46.8762 43.9239C50.6042 42.4699 51.9262 40.8539 51.9262 39.9239V33.1439C50.8489 33.7923 49.7165 34.3444 48.5422 34.7939C43.2337 36.673 37.6306 37.5828 32.0002 37.4799C26.3692 37.5796 20.7662 36.6664 15.4582 34.7839C14.2851 34.3316 13.153 33.7796 12.0742 33.1339V39.9199C12.0742 40.8519 13.4002 42.4619 17.1242 43.9219ZM32.0002 59.9999C43.0002 59.9999 51.9262 56.5119 51.9262 52.2119V46.5379C50.9461 47.1287 49.9194 47.6384 48.8562 48.0619L48.5422 48.1879C43.2347 50.0724 37.6316 50.9877 32.0002 50.8899C26.3685 50.992 20.7647 50.0767 15.4582 48.1879L15.1442 48.0619C14.0811 47.6384 13.0543 47.1287 12.0742 46.5379V52.2119C12.0742 56.5119 21.0002 59.9999 32.0002 59.9999Z"
    fill="#D47131"/>
  <path
    d="M32.0002 19.576C43.005 19.576 51.9262 16.0892 51.9262 11.788C51.9262 7.48681 43.005 4 32.0002 4C20.9954 4 12.0742 7.48681 12.0742 11.788C12.0742 16.0892 20.9954 19.576 32.0002 19.576Z"
    fill="#D47131"/>
</svg>
