<svg fill="none" height="24" viewBox="0 0 24 24" width="24" xmlns="http://www.w3.org/2000/svg">
  <path
    d="M6.12698 3.02918C6.13163 3.62195 5.90278 4.19274 5.48991 4.61812C5.07705 5.04349 4.51334 5.28928 3.92069 5.30232C3.32928 5.28084 2.76874 5.03294 2.35492 4.60987C1.94111 4.18681 1.70567 3.62092 1.69727 3.02918C1.72282 2.4525 1.96682 1.90714 2.37974 1.50377C2.79266 1.1004 3.34358 0.869236 3.92069 0.857178C4.49611 0.869467 5.04507 1.10121 5.45522 1.50499C5.86536 1.90876 6.10568 2.45403 6.12698 3.02918ZM1.93555 9.34118C1.93555 8.03489 2.76698 8.23889 3.92069 8.23889C5.07441 8.23889 5.88869 8.03489 5.88869 9.34118V22.068C5.88869 23.3915 5.05727 23.1206 3.92069 23.1206C2.78412 23.1206 1.93555 23.3915 1.93555 22.068V9.34118ZM9.31727 9.34289C9.31727 8.61261 9.58812 8.34003 10.0116 8.25603C10.435 8.17203 11.8973 8.25603 12.4047 8.25603C12.9138 8.25603 13.1178 9.08746 13.1007 9.71489C13.5356 9.12993 14.1135 8.66661 14.7791 8.36941C15.4446 8.0722 16.1754 7.95111 16.9013 8.01775C17.614 7.97423 18.3279 8.08111 18.9966 8.33145C19.6653 8.58179 20.2739 8.96998 20.7828 9.47083C21.2917 9.97167 21.6896 10.574 21.9506 11.2386C22.2116 11.9032 22.3299 12.6153 22.2978 13.3286V22.0166C22.2978 23.34 21.4836 23.0692 20.3298 23.0692C19.1761 23.0692 18.3601 23.34 18.3601 22.0166V15.228C18.3897 14.8789 18.3439 14.5275 18.2258 14.1977C18.1076 13.8678 17.9199 13.5673 17.6753 13.3164C17.4308 13.0655 17.1351 12.8701 16.8084 12.7436C16.4817 12.617 16.1316 12.5622 15.7818 12.5829C15.4333 12.5737 15.0868 12.6387 14.7652 12.7736C14.4437 12.9085 14.1545 13.1103 13.9169 13.3654C13.6793 13.6206 13.4986 13.9233 13.3868 14.2536C13.2751 14.5839 13.2348 14.9342 13.2687 15.2812V22.068C13.2687 23.3915 12.4373 23.1206 11.2836 23.1206C10.1298 23.1206 9.31555 23.3915 9.31555 22.068L9.31727 9.34289Z"
    stroke="currentColor" stroke-linecap="round" stroke-linejoin="round" stroke-width="1.71429"/>
</svg>
