<svg fill="none" height="24" viewBox="0 0 91 24" width="91" xmlns="http://www.w3.org/2000/svg">
  <path
    d="M11.3 17.48L1.1 13.78V10.22L11.3 6.52V9.92L2.38 12.98V11.02L11.3 14.08V17.48ZM17.1423 19V12.86L18.2223 15.68L11.8623 5H16.8423L21.1423 12.3H18.2423L22.5823 5H27.1423L20.8223 15.68L21.8623 12.86V19H17.1423ZM26.7984 14.92V11.52H32.7984V14.92H26.7984ZM34.8314 19V5H38.7114L44.3114 14.14H42.2714L47.7114 5H51.5914L51.6314 19H47.3314L47.2914 11.48H47.9714L44.2514 17.74H42.1714L38.2914 11.48H39.1314V19H34.8314ZM52.3934 19L58.5134 5H63.1534L69.2734 19H64.3934L59.8734 7.24H61.7134L57.1934 19H52.3934ZM56.0334 16.56L57.2334 13.16H63.6734L64.8734 16.56H56.0334ZM68.6922 21L75.2922 2.16H79.2922L72.6922 21H68.6922ZM79.4008 17.48V14.08L88.3208 11.02V12.98L79.4008 9.92V6.52L89.6008 10.22V13.78L79.4008 17.48Z"
    fill="url(#paint0_linear_2361_715)"/>
  <path
    d="M11.3 17.48L1.1 13.78V10.22L11.3 6.52V9.92L2.38 12.98V11.02L11.3 14.08V17.48ZM17.1423 19V12.86L18.2223 15.68L11.8623 5H16.8423L21.1423 12.3H18.2423L22.5823 5H27.1423L20.8223 15.68L21.8623 12.86V19H17.1423ZM26.7984 14.92V11.52H32.7984V14.92H26.7984ZM34.8314 19V5H38.7114L44.3114 14.14H42.2714L47.7114 5H51.5914L51.6314 19H47.3314L47.2914 11.48H47.9714L44.2514 17.74H42.1714L38.2914 11.48H39.1314V19H34.8314ZM52.3934 19L58.5134 5H63.1534L69.2734 19H64.3934L59.8734 7.24H61.7134L57.1934 19H52.3934ZM56.0334 16.56L57.2334 13.16H63.6734L64.8734 16.56H56.0334ZM68.6922 21L75.2922 2.16H79.2922L72.6922 21H68.6922ZM79.4008 17.48V14.08L88.3208 11.02V12.98L79.4008 9.92V6.52L89.6008 10.22V13.78L79.4008 17.48Z"
    fill="url(#paint1_linear_2361_715)"/>
  <defs>
    <linearGradient gradientUnits="userSpaceOnUse" id="paint0_linear_2361_715" x1="-1.10694e-07" x2="90.6851" y1="24"
                    y2="9.9654">
      <stop stop-color="#E40035"/>
      <stop offset="0.24" stop-color="#F60A48"/>
      <stop offset="0.35" stop-color="#F20755"/>
      <stop offset="0.49" stop-color="#DC087D"/>
      <stop offset="0.745" stop-color="#9717E7"/>
      <stop offset="1" stop-color="#6C00F5"/>
    </linearGradient>
    <linearGradient gradientUnits="userSpaceOnUse" id="paint1_linear_2361_715" x1="0" x2="90.6851" y1="0" y2="14.0346">
      <stop stop-color="#FF31D9"/>
      <stop offset="0.500001" stop-color="#FF46DD" stop-opacity="0"/>
      <stop offset="0.849807" stop-color="#FF55E0" stop-opacity="0.150193"/>
      <stop offset="1" stop-color="#FF5BE1" stop-opacity="0"/>
    </linearGradient>
  </defs>
</svg>
